OFLGoudyStM.ufo
<glyph name="exclam" format="1">
  <advance width="276"/>
  <unicode hex="0021"/>
  <outline>
    <contour>
      <point x="68" y="45"/>
      <point x="92" y="33"/>
      <point x="101" y="21" type="curve" smooth="yes"/>
      <point x="111" y="8"/>
      <point x="134" y="-13"/>
      <point x="143" y="-13" type="curve" smooth="yes"/>
      <point x="157" y="-13"/>
      <point x="168" y="10"/>
      <point x="180" y="22" type="curve" smooth="yes"/>
      <point x="191" y="33"/>
      <point x="218" y="45"/>
      <point x="218" y="62" type="curve" smooth="yes"/>
      <point x="218" y="79"/>
      <point x="199" y="79"/>
      <point x="165" y="115" type="curve" smooth="yes"/>
      <point x="156" y="124"/>
      <point x="151" y="133"/>
      <point x="142" y="133" type="curve" smooth="yes"/>
      <point x="123" y="133"/>
      <point x="110" y="107"/>
      <point x="97" y="95" type="curve" smooth="yes"/>
      <point x="81" y="81"/>
      <point x="68" y="72"/>
      <point x="68" y="63" type="curve" smooth="yes"/>
    </contour>
    <contour>
      <point x="98" y="605"/>
      <point x="102" y="577"/>
      <point x="107" y="507" type="curve" smooth="yes"/>
      <point x="111" y="447"/>
      <point x="102" y="506"/>
      <point x="127" y="208" type="curve"/>
      <point x="127" y="202"/>
      <point x="131" y="199"/>
      <point x="139" y="199" type="curve" smooth="yes"/>
      <point x="149" y="199"/>
      <point x="152" y="203"/>
      <point x="153" y="210" type="curve" smooth="yes"/>
      <point x="179" y="420"/>
      <point x="176" y="520"/>
      <point x="188" y="618" type="curve" smooth="yes"/>
      <point x="191" y="642"/>
      <point x="193" y="650"/>
      <point x="193" y="657" type="curve" smooth="yes"/>
      <point x="193" y="683"/>
      <point x="176" y="689"/>
      <point x="147" y="689" type="curve" smooth="yes"/>
      <point x="117" y="689"/>
      <point x="98" y="675"/>
      <point x="98" y="651" type="curve" smooth="yes"/>
    </contour>
  </outline>
</glyph>
<glyph name="quotedbl" format="1">
  <advance width="459"/>
  <unicode hex="0022"/>
  <outline>
    <contour>
      <point x="56" y="613"/>
      <point x="125" y="621"/>
      <point x="125" y="541" type="curve" smooth="yes"/>
      <point x="125" y="466"/>
      <point x="69" y="458"/>
      <point x="69" y="439" type="curve" smooth="yes"/>
      <point x="69" y="436"/>
      <point x="74" y="427"/>
      <point x="82" y="427" type="curve" smooth="yes"/>
      <point x="102" y="427"/>
      <point x="190" y="479"/>
      <point x="190" y="601" type="curve" smooth="yes"/>
      <point x="190" y="683"/>
      <point x="131" y="713"/>
      <point x="123" y="713" type="curve" smooth="yes"/>
      <point x="105" y="713"/>
      <point x="95" y="694"/>
      <point x="83" y="682" type="curve" smooth="yes"/>
      <point x="69" y="668"/>
      <point x="56" y="657"/>
      <point x="56" y="649" type="curve" smooth="yes"/>
    </contour>
    <contour>
      <point x="251" y="613"/>
      <point x="320" y="621"/>
      <point x="320" y="541" type="curve" smooth="yes"/>
      <point x="320" y="466"/>
      <point x="264" y="458"/>
      <point x="264" y="439" type="curve" smooth="yes"/>
      <point x="264" y="436"/>
      <point x="269" y="427"/>
      <point x="277" y="427" type="curve" smooth="yes"/>
      <point x="297" y="427"/>
      <point x="386" y="479"/>
      <point x="386" y="601" type="curve" smooth="yes"/>
      <point x="386" y="683"/>
      <point x="326" y="713"/>
      <point x="318" y="713" type="curve" smooth="yes"/>
      <point x="300" y="713"/>
      <point x="290" y="694"/>
      <point x="278" y="682" type="curve" smooth="yes"/>
      <point x="264" y="668"/>
      <point x="251" y="657"/>
      <point x="251" y="649" type="curve" smooth="yes"/>
    </contour>
  </outline>
</glyph>
<glyph name="dollar" format="1">
  <advance width="533"/>
  <unicode hex="0024"/>
  <outline>
    <contour>
      <point x="64" y="83"/>
      <point x="65" y="72"/>
      <point x="75" y="60" type="curve" smooth="yes"/>
      <point x="103" y="26"/>
      <point x="181" y="-12"/>
      <point x="246" y="-12" type="curve" smooth="yes"/>
      <point x="252" y="-12"/>
      <point x="252" y="-25"/>
      <point x="252" y="-31" type="curve" smooth="yes"/>
      <point x="252" y="-55"/>
      <point x="249" y="-96"/>
      <point x="249" y="-129" type="curve" smooth="yes"/>
      <point x="249" y="-140"/>
      <point x="251" y="-150"/>
      <point x="270" y="-150" type="curve" smooth="yes"/>
      <point x="287" y="-150"/>
      <point x="292" y="-146"/>
      <point x="292" y="-108" type="curve" smooth="yes"/>
      <point x="292" y="-45" type="line"/>
      <point x="292" y="-26" type="line" smooth="yes"/>
      <point x="292" y="-10"/>
      <point x="294" y="-12"/>
      <point x="313" y="-7" type="curve" smooth="yes"/>
      <point x="385" y="12"/>
      <point x="488" y="67"/>
      <point x="488" y="208" type="curve" smooth="yes"/>
      <point x="488" y="317"/>
      <point x="429" y="376"/>
      <point x="311" y="409" type="curve" smooth="yes"/>
      <point x="299" y="412"/>
      <point x="298" y="416"/>
      <point x="298" y="437" type="curve" smooth="yes"/>
      <point x="298" y="499"/>
      <point x="303" y="486"/>
      <point x="303" y="633" type="curve" smooth="yes"/>
      <point x="303" y="641"/>
      <point x="303" y="652"/>
      <point x="312" y="652" type="curve" smooth="yes"/>
      <point x="351" y="652"/>
      <point x="394" y="597"/>
      <point x="414" y="554" type="curve"/>
      <point x="416" y="549"/>
      <point x="420" y="543"/>
      <point x="427" y="543" type="curve" smooth="yes"/>
      <point x="440" y="543"/>
      <point x="457" y="589"/>
      <point x="457" y="607" type="curve" smooth="yes"/>
      <point x="457" y="614"/>
      <point x="427" y="680"/>
      <point x="312" y="694" type="curve"/>
      <point x="308" y="694"/>
      <point x="307" y="698"/>
      <point x="307" y="703" type="curve" smooth="yes"/>
      <point x="307" y="707"/>
      <point x="308" y="721"/>
      <point x="308" y="748" type="curve" smooth="yes"/>
      <point x="308" y="760"/>
      <point x="307" y="766"/>
      <point x="286" y="766" type="curve" smooth="yes"/>
      <point x="270" y="766"/>
      <point x="264" y="760"/>
      <point x="264" y="743" type="curve" smooth="yes"/>
      <point x="264" y="732"/>
      <point x="265" y="728"/>
      <point x="265" y="716" type="curve" smooth="yes"/>
      <point x="265" y="696"/>
      <point x="260" y="694"/>
      <point x="252" y="693" type="curve" smooth="yes"/>
      <point x="167" y="682"/>
      <point x="87" y="611"/>
      <point x="87" y="513" type="curve" smooth="yes"/>
      <point x="87" y="407"/>
      <point x="160" y="369"/>
      <point x="221" y="349" type="curve" smooth="yes"/>
      <point x="237" y="344"/>
      <point x="257" y="337"/>
      <point x="257" y="324" type="curve" smooth="yes"/>
      <point x="257" y="207"/>
      <point x="254" y="168"/>
      <point x="254" y="42" type="curve" smooth="yes"/>
      <point x="254" y="33"/>
      <point x="253" y="27"/>
      <point x="244" y="27" type="curve" smooth="yes"/>
      <point x="206" y="27"/>
      <point x="155" y="60"/>
      <point x="134" y="98" type="curve" smooth="yes"/>
      <point x="113" y="137"/>
      <point x="108" y="166"/>
      <point x="87" y="166" type="curve" smooth="yes"/>
      <point x="67" y="166"/>
      <point x="64" y="98"/>
      <point x="64" y="96" type="curve" smooth="yes"/>
    </contour>
    <contour>
      <point x="146" y="621"/>
      <point x="231" y="653"/>
      <point x="252" y="653" type="curve" smooth="yes"/>
      <point x="258" y="653"/>
      <point x="263" y="648"/>
      <point x="263" y="641" type="curve" smooth="yes"/>
      <point x="263" y="557"/>
      <point x="262" y="532"/>
      <point x="262" y="445" type="curve" smooth="yes"/>
      <point x="262" y="439"/>
      <point x="261" y="428"/>
      <point x="253" y="428" type="curve" smooth="yes"/>
      <point x="251" y="428" type="line"/>
      <point x="186" y="445"/>
      <point x="146" y="480"/>
      <point x="146" y="539" type="curve" smooth="yes"/>
    </contour>
    <contour>
      <point x="293" y="146"/>
      <point x="297" y="200"/>
      <point x="297" y="306" type="curve" smooth="yes"/>
      <point x="297" y="315"/>
      <point x="299" y="320"/>
      <point x="304" y="320" type="curve" smooth="yes"/>
      <point x="307" y="320"/>
      <point x="428" y="294"/>
      <point x="428" y="185" type="curve" smooth="yes"/>
      <point x="428" y="40"/>
      <point x="306" y="27"/>
      <point x="300" y="27" type="curve" smooth="yes"/>
      <point x="295" y="27"/>
      <point x="293" y="31"/>
      <point x="293" y="40" type="curve" smooth="yes"/>
    </contour>
  </outline>
</glyph>
<glyph name="percent" format="1">
  <advance width="771"/>
  <unicode hex="0025"/>
  <outline>
    <contour>
      <point x="59" y="256"/>
      <point x="133" y="220"/>
      <point x="169" y="220" type="curve" smooth="yes"/>
      <point x="248" y="220"/>
      <point x="288" y="266"/>
      <point x="311" y="300" type="curve" smooth="yes"/>
      <point x="353" y="362"/>
      <point x="362" y="401"/>
      <point x="362" y="474" type="curve" smooth="yes"/>
      <point x="362" y="484"/>
      <point x="360" y="491"/>
      <point x="360" y="493" type="curve" smooth="yes"/>
      <point x="360" y="494"/>
      <point x="360" y="494"/>
      <point x="361" y="494" type="curve" smooth="yes"/>
      <point x="365" y="494"/>
      <point x="386" y="484"/>
      <point x="410" y="484" type="curve" smooth="yes"/>
      <point x="471" y="484"/>
      <point x="525" y="528"/>
      <point x="532" y="528" type="curve" smooth="yes"/>
      <point x="534" y="528"/>
      <point x="536" y="527"/>
      <point x="536" y="524" type="curve" smooth="yes"/>
      <point x="536" y="516"/>
      <point x="462" y="424"/>
      <point x="334" y="240" type="curve" smooth="yes"/>
      <point x="169" y="3" type="line" smooth="yes"/>
      <point x="138" y="-42"/>
      <point x="129" y="-53"/>
      <point x="129" y="-67" type="curve" smooth="yes"/>
      <point x="129" y="-78"/>
      <point x="145" y="-91"/>
      <point x="162" y="-91" type="curve" smooth="yes"/>
      <point x="165" y="-91"/>
      <point x="169" y="-90"/>
      <point x="172" y="-89" type="curve" smooth="yes"/>
      <point x="184" y="-85"/>
      <point x="167" y="-88"/>
      <point x="638" y="616" type="curve"/>
      <point x="641" y="621"/>
      <point x="646" y="630"/>
      <point x="646" y="637" type="curve" smooth="yes"/>
      <point x="646" y="642"/>
      <point x="644" y="646"/>
      <point x="637" y="646" type="curve" smooth="yes"/>
      <point x="632" y="646"/>
      <point x="625" y="644"/>
      <point x="619" y="638" type="curve"/>
      <point x="589" y="611"/>
      <point x="489" y="508"/>
      <point x="408" y="508" type="curve" smooth="yes"/>
      <point x="346" y="508"/>
      <point x="333" y="577"/>
      <point x="258" y="577" type="curve" smooth="yes"/>
      <point x="138" y="577"/>
      <point x="59" y="441"/>
      <point x="59" y="344" type="curve" smooth="yes"/>
    </contour>
    <contour>
      <point x="131" y="449"/>
      <point x="170" y="548"/>
      <point x="250" y="548" type="curve" smooth="yes"/>
      <point x="279" y="548"/>
      <point x="297" y="508"/>
      <point x="297" y="456" type="curve" smooth="yes"/>
      <point x="297" y="364"/>
      <point x="260" y="247"/>
      <point x="191" y="247" type="curve" smooth="yes"/>
      <point x="153" y="247"/>
      <point x="131" y="291"/>
      <point x="131" y="364" type="curve" smooth="yes"/>
    </contour>
    <contour>
      <point x="386" y="-12"/>
      <point x="425" y="-78"/>
      <point x="507" y="-78" type="curve" smooth="yes"/>
      <point x="612" y="-78"/>
      <point x="692" y="62"/>
      <point x="692" y="170" type="curve" smooth="yes"/>
      <point x="692" y="238"/>
      <point x="660" y="293"/>
      <point x="584" y="293" type="curve" smooth="yes"/>
      <point x="459" y="293"/>
      <point x="386" y="168"/>
      <point x="386" y="64" type="curve" smooth="yes"/>
    </contour>
    <contour>
      <point x="457" y="158"/>
      <point x="496" y="262"/>
      <point x="576" y="262" type="curve" smooth="yes"/>
      <point x="605" y="262"/>
      <point x="626" y="217"/>
      <point x="626" y="165" type="curve" smooth="yes"/>
      <point x="626" y="73"/>
      <point x="581" y="-46"/>
      <point x="517" y="-46" type="curve" smooth="yes"/>
      <point x="479" y="-46"/>
      <point x="457" y="0"/>
      <point x="457" y="73" type="curve" smooth="yes"/>
    </contour>
  </outline>
</glyph>
<glyph name="ampersand" format="1">
  <advance width="947"/>
  <unicode hex="0026"/>
  <outline>
    <contour>
      <point x="59" y="5"/>
      <point x="274" y="-22"/>
      <point x="358" y="-22" type="curve" smooth="yes"/>
      <point x="551" y="-22"/>
      <point x="602" y="82"/>
      <point x="621" y="82" type="curve" smooth="yes"/>
      <point x="631" y="82"/>
      <point x="707" y="-19"/>
      <point x="845" y="-19" type="curve" smooth="yes"/>
      <point x="897" y="-19"/>
      <point x="942" y="-3"/>
      <point x="942" y="19" type="curve" smooth="yes"/>
      <point x="942" y="24"/>
      <point x="937" y="28"/>
      <point x="929" y="28" type="curve" smooth="yes"/>
      <point x="919" y="28"/>
      <point x="906" y="25"/>
      <point x="893" y="25" type="curve" smooth="yes"/>
      <point x="884" y="25"/>
      <point x="870" y="25"/>
      <point x="850" y="35" type="curve" smooth="yes"/>
      <point x="774" y="73"/>
      <point x="670" y="136"/>
      <point x="670" y="149" type="curve" smooth="yes"/>
      <point x="670" y="158"/>
      <point x="700" y="201"/>
      <point x="706" y="245" type="curve" smooth="yes"/>
      <point x="708" y="263"/>
      <point x="713" y="298"/>
      <point x="715" y="324" type="curve" smooth="yes"/>
      <point x="719" y="377"/>
      <point x="755" y="359"/>
      <point x="755" y="380" type="curve" smooth="yes"/>
      <point x="755" y="388"/>
      <point x="749" y="393"/>
      <point x="736" y="393" type="curve" smooth="yes"/>
      <point x="601" y="393"/>
      <point x="647" y="395"/>
      <point x="587" y="395" type="curve" smooth="yes"/>
      <point x="566" y="395"/>
      <point x="562" y="394"/>
      <point x="562" y="384" type="curve" smooth="yes"/>
      <point x="562" y="366"/>
      <point x="581" y="375"/>
      <point x="600" y="366" type="curve" smooth="yes"/>
      <point x="626" y="353"/>
      <point x="657" y="342"/>
      <point x="657" y="263" type="curve" smooth="yes"/>
      <point x="657" y="206"/>
      <point x="643" y="179"/>
      <point x="631" y="179" type="curve" smooth="yes"/>
      <point x="619" y="179"/>
      <point x="511" y="271"/>
      <point x="407" y="374" type="curve" smooth="yes"/>
      <point x="327" y="453"/>
      <point x="243" y="537"/>
      <point x="243" y="590" type="curve" smooth="yes"/>
      <point x="243" y="619"/>
      <point x="266" y="667"/>
      <point x="336" y="667" type="curve" smooth="yes"/>
      <point x="424" y="667"/>
      <point x="472" y="552"/>
      <point x="493" y="552" type="curve" smooth="yes"/>
      <point x="503" y="552"/>
      <point x="504" y="553"/>
      <point x="504" y="593" type="curve" smooth="yes"/>
      <point x="504" y="615"/>
      <point x="500" y="658"/>
      <point x="500" y="661" type="curve" smooth="yes"/>
      <point x="500" y="672"/>
      <point x="499" y="684"/>
      <point x="484" y="684" type="curve" smooth="yes"/>
      <point x="475" y="684"/>
      <point x="470" y="681"/>
      <point x="462" y="681" type="curve" smooth="yes"/>
      <point x="444" y="681"/>
      <point x="421" y="704"/>
      <point x="361" y="704" type="curve" smooth="yes"/>
      <point x="279" y="704"/>
      <point x="173" y="667"/>
      <point x="173" y="571" type="curve" smooth="yes"/>
      <point x="173" y="484"/>
      <point x="221" y="454"/>
      <point x="221" y="442" type="curve" smooth="yes"/>
      <point x="221" y="434"/>
      <point x="153" y="437"/>
      <point x="99" y="371" type="curve" smooth="yes"/>
      <point x="76" y="342"/>
      <point x="59" y="287"/>
      <point x="59" y="242" type="curve" smooth="yes"/>
    </contour>
    <contour>
      <point x="125" y="366"/>
      <point x="198" y="421"/>
      <point x="234" y="421" type="curve" smooth="yes"/>
      <point x="246" y="421"/>
      <point x="254" y="407"/>
      <point x="346" y="316" type="curve" smooth="yes"/>
      <point x="491" y="172"/>
      <point x="580" y="119"/>
      <point x="580" y="109" type="curve" smooth="yes"/>
      <point x="580" y="100"/>
      <point x="508" y="45"/>
      <point x="412" y="45" type="curve" smooth="yes"/>
      <point x="209" y="45"/>
      <point x="125" y="189"/>
      <point x="125" y="276" type="curve" smooth="yes"/>
    </contour>
  </outline>
</glyph>
<glyph name="parenleft" format="1">
  <advance width="326"/>
  <unicode hex="0028"/>
  <outline>
    <contour>
      <point x="73" y="0"/>
      <point x="260" y="-214"/>
      <point x="293" y="-214" type="curve" smooth="yes"/>
      <point x="299" y="-214"/>
      <point x="313" y="-208"/>
      <point x="313" y="-195" type="curve" smooth="yes"/>
      <point x="313" y="-168"/>
      <point x="118" y="-41"/>
      <point x="118" y="277" type="curve" smooth="yes"/>
      <point x="118" y="623"/>
      <point x="316" y="722"/>
      <point x="316" y="751" type="curve" smooth="yes"/>
      <point x="316" y="762"/>
      <point x="313" y="772"/>
      <point x="295" y="772" type="curve" smooth="yes"/>
      <point x="274" y="772"/>
      <point x="73" y="593"/>
      <point x="73" y="278" type="curve" smooth="yes"/>
    </contour>
  </outline>
</glyph>
<glyph name="parenright" format="1">
  <advance width="326"/>
  <unicode hex="0029"/>
  <outline>
    <contour>
      <point x="10" y="-203"/>
      <point x="13" y="-214"/>
      <point x="31" y="-214" type="curve" smooth="yes"/>
      <point x="52" y="-214"/>
      <point x="253" y="-35"/>
      <point x="253" y="280" type="curve" smooth="yes"/>
      <point x="253" y="558"/>
      <point x="66" y="772"/>
      <point x="33" y="772" type="curve" smooth="yes"/>
      <point x="27" y="772"/>
      <point x="13" y="766"/>
      <point x="13" y="753" type="curve" smooth="yes"/>
      <point x="13" y="726"/>
      <point x="208" y="599"/>
      <point x="208" y="281" type="curve" smooth="yes"/>
      <point x="208" y="-65"/>
      <point x="10" y="-163"/>
      <point x="10" y="-192" type="curve" smooth="yes"/>
    </contour>
  </outline>
</glyph>
<glyph name="comma" format="1">
  <advance width="250"/>
  <unicode hex="002C"/>
  <outline>
    <contour>
      <point x="54" y="44"/>
      <point x="54" y="45"/>
      <point x="71" y="33" type="curve" smooth="yes"/>
      <point x="103" y="9"/>
      <point x="127" y="-6"/>
      <point x="127" y="-48" type="curve" smooth="yes"/>
      <point x="127" y="-117"/>
      <point x="65" y="-132"/>
      <point x="65" y="-153" type="curve" smooth="yes"/>
      <point x="65" y="-161"/>
      <point x="73" y="-166"/>
      <point x="80" y="-166" type="curve" smooth="yes"/>
      <point x="107" y="-166"/>
      <point x="196" y="-94"/>
      <point x="196" y="0" type="curve" smooth="yes"/>
      <point x="196" y="87"/>
      <point x="132" y="125"/>
      <point x="127" y="125" type="curve" smooth="yes"/>
      <point x="104" y="125"/>
      <point x="97" y="105"/>
      <point x="85" y="93" type="curve" smooth="yes"/>
      <point x="70" y="78"/>
      <point x="54" y="68"/>
      <point x="54" y="54" type="curve" smooth="yes"/>
    </contour>
  </outline>
</glyph>
<glyph name="period" format="1">
  <advance width="252"/>
  <unicode hex="002E"/>
  <outline>
    <contour>
      <point x="54" y="45"/>
      <point x="68" y="33"/>
      <point x="85" y="21" type="curve"/>
      <point x="98" y="11"/>
      <point x="109" y="-16"/>
      <point x="125" y="-16" type="curve" smooth="yes"/>
      <point x="139" y="-16"/>
      <point x="151" y="7"/>
      <point x="163" y="19" type="curve" smooth="yes"/>
      <point x="178" y="33"/>
      <point x="198" y="43"/>
      <point x="198" y="55" type="curve" smooth="yes"/>
      <point x="198" y="65"/>
      <point x="177" y="80"/>
      <point x="168" y="90" type="curve" smooth="yes"/>
      <point x="152" y="109"/>
      <point x="135" y="129"/>
      <point x="127" y="129" type="curve" smooth="yes"/>
      <point x="108" y="129"/>
      <point x="98" y="106"/>
      <point x="85" y="94" type="curve" smooth="yes"/>
      <point x="69" y="80"/>
      <point x="54" y="64"/>
      <point x="54" y="55" type="curve" smooth="yes"/>
    </contour>
  </outline>
</glyph>
<glyph name="slash" format="1">
  <advance width="416"/>
  <unicode hex="002F"/>
  <outline>
    <contour>
      <point x="20" y="-183"/>
      <point x="34" y="-183"/>
      <point x="46" y="-183" type="curve" smooth="yes"/>
      <point x="61" y="-183"/>
      <point x="67" y="-183"/>
      <point x="78" y="-152" type="curve" smooth="yes"/>
      <point x="382" y="679" type="line" smooth="yes"/>
      <point x="387" y="692"/>
      <point x="396" y="714"/>
      <point x="396" y="723" type="curve" smooth="yes"/>
      <point x="396" y="733"/>
      <point x="384" y="735"/>
      <point x="375" y="735" type="curve" smooth="yes"/>
      <point x="357" y="735"/>
      <point x="351" y="732"/>
      <point x="346" y="717" type="curve"/>
      <point x="344" y="710"/>
      <point x="39" y="-113"/>
      <point x="39" y="-113" type="curve"/>
      <point x="31" y="-136"/>
      <point x="20" y="-161"/>
      <point x="20" y="-170" type="curve" smooth="yes"/>
    </contour>
  </outline>
</glyph>
<glyph name="zero" format="1">
  <advance width="529"/>
  <unicode hex="0030"/>
  <outline>
    <contour>
      <point x="39" y="100"/>
      <point x="110" y="-15"/>
      <point x="271" y="-15" type="curve" smooth="yes"/>
      <point x="417" y="-15"/>
      <point x="490" y="96"/>
      <point x="490" y="206" type="curve" smooth="yes"/>
      <point x="490" y="360"/>
      <point x="377" y="427"/>
      <point x="264" y="427" type="curve" smooth="yes"/>
      <point x="151" y="427"/>
      <point x="39" y="354"/>
      <point x="39" y="212" type="curve" smooth="yes"/>
    </contour>
    <contour>
      <point x="95" y="323"/>
      <point x="176" y="376"/>
      <point x="260" y="376" type="curve" smooth="yes"/>
      <point x="347" y="376"/>
      <point x="437" y="318"/>
      <point x="437" y="214" type="curve" smooth="yes"/>
      <point x="437" y="104"/>
      <point x="357" y="39"/>
      <point x="271" y="39" type="curve" smooth="yes"/>
      <point x="187" y="39"/>
      <point x="95" y="91"/>
      <point x="95" y="207" type="curve" smooth="yes"/>
    </contour>
  </outline>
</glyph>
<glyph name="one" format="1">
  <advance width="340"/>
  <unicode hex="0031"/>
  <outline>
    <contour>
      <point x="20" y="0"/>
      <point x="30" y="-4"/>
      <point x="48" y="-4" type="curve" smooth="yes"/>
      <point x="75" y="-4"/>
      <point x="122" y="1"/>
      <point x="164" y="1" type="curve" smooth="yes"/>
      <point x="207" y="1"/>
      <point x="261" y="-4"/>
      <point x="292" y="-4" type="curve" smooth="yes"/>
      <point x="310" y="-4"/>
      <point x="320" y="-4"/>
      <point x="320" y="9" type="curve" smooth="yes"/>
      <point x="320" y="36"/>
      <point x="214" y="19"/>
      <point x="201" y="61" type="curve"/>
      <point x="198" y="73"/>
      <point x="197" y="87"/>
      <point x="197" y="103" type="curve" smooth="yes"/>
      <point x="197" y="126" type="line" smooth="yes"/>
      <point x="197" y="168"/>
      <point x="199" y="215"/>
      <point x="199" y="240" type="curve" smooth="yes"/>
      <point x="199" y="263"/>
      <point x="200" y="277"/>
      <point x="200" y="291" type="curve" smooth="yes"/>
      <point x="200" y="393"/>
      <point x="223" y="379"/>
      <point x="260" y="386" type="curve" smooth="yes"/>
      <point x="274" y="389"/>
      <point x="293" y="386"/>
      <point x="293" y="403" type="curve" smooth="yes"/>
      <point x="293" y="408"/>
      <point x="287" y="418"/>
      <point x="270" y="418" type="curve" smooth="yes"/>
      <point x="243" y="418"/>
      <point x="234" y="413"/>
      <point x="165" y="413" type="curve" smooth="yes"/>
      <point x="64" y="413"/>
      <point x="72" y="419"/>
      <point x="49" y="419" type="curve" smooth="yes"/>
      <point x="34" y="419"/>
      <point x="28" y="416"/>
      <point x="28" y="408" type="curve" smooth="yes"/>
      <point x="28" y="396"/>
      <point x="36" y="393"/>
      <point x="46" y="393" type="curve"/>
      <point x="114" y="389"/>
      <point x="126" y="386"/>
      <point x="126" y="300" type="curve" smooth="yes"/>
      <point x="126" y="286"/>
      <point x="125" y="270"/>
      <point x="125" y="249" type="curve" smooth="yes"/>
      <point x="125" y="169" type="line" smooth="yes"/>
      <point x="125" y="135"/>
      <point x="123" y="108"/>
      <point x="116" y="66" type="curve" smooth="yes"/>
      <point x="107" y="15"/>
      <point x="20" y="41"/>
      <point x="20" y="12" type="curve" smooth="yes"/>
    </contour>
  </outline>
</glyph>
<glyph name="two" format="1">
  <advance width="468"/>
  <unicode hex="0032"/>
  <outline>
    <contour>
      <point x="29" y="0"/>
      <point x="38" y="-2"/>
      <point x="56" y="-2" type="curve" smooth="yes"/>
      <point x="83" y="-2"/>
      <point x="83" y="-1"/>
      <point x="193" y="-1" type="curve" smooth="yes"/>
      <point x="355" y="-1"/>
      <point x="356" y="-4"/>
      <point x="374" y="-4" type="curve" smooth="yes"/>
      <point x="383" y="-4"/>
      <point x="385" y="0"/>
      <point x="395" y="14" type="curve" smooth="yes"/>
      <point x="397" y="17"/>
      <point x="448" y="111"/>
      <point x="448" y="116" type="curve" smooth="yes"/>
      <point x="448" y="124"/>
      <point x="445" y="127"/>
      <point x="436" y="127" type="curve" smooth="yes"/>
      <point x="425" y="127"/>
      <point x="410" y="86"/>
      <point x="381" y="77" type="curve" smooth="yes"/>
      <point x="355" y="69"/>
      <point x="322" y="64"/>
      <point x="239" y="64" type="curve" smooth="yes"/>
      <point x="210" y="64"/>
      <point x="193" y="64"/>
      <point x="193" y="72" type="curve" smooth="yes"/>
      <point x="193" y="79"/>
      <point x="231" y="111"/>
      <point x="254" y="130" type="curve" smooth="yes"/>
      <point x="308" y="174"/>
      <point x="383" y="252"/>
      <point x="383" y="316" type="curve" smooth="yes"/>
      <point x="383" y="389"/>
      <point x="323" y="424"/>
      <point x="249" y="424" type="curve" smooth="yes"/>
      <point x="112" y="424"/>
      <point x="79" y="340"/>
      <point x="79" y="313" type="curve" smooth="yes"/>
      <point x="79" y="295"/>
      <point x="116" y="277"/>
      <point x="149" y="277" type="curve" smooth="yes"/>
      <point x="158" y="277"/>
      <point x="162" y="281"/>
      <point x="162" y="287" type="curve" smooth="yes"/>
      <point x="162" y="301"/>
      <point x="146" y="325"/>
      <point x="146" y="346" type="curve" smooth="yes"/>
      <point x="146" y="375"/>
      <point x="160" y="392"/>
      <point x="205" y="392" type="curve" smooth="yes"/>
      <point x="242" y="392"/>
      <point x="305" y="360"/>
      <point x="305" y="297" type="curve" smooth="yes"/>
      <point x="305" y="233"/>
      <point x="249" y="141"/>
      <point x="89" y="45" type="curve" smooth="yes"/>
      <point x="50" y="22"/>
      <point x="29" y="22"/>
      <point x="29" y="8" type="curve" smooth="yes"/>
    </contour>
  </outline>
</glyph>
<glyph name="three" format="1">
  <advance width="404"/>
  <unicode hex="0033"/>
  <outline>
    <contour>
      <point x="39" y="-139"/>
      <point x="40" y="-155"/>
      <point x="40" y="-168" type="curve" smooth="yes"/>
      <point x="40" y="-189"/>
      <point x="62" y="-204"/>
      <point x="125" y="-204" type="curve" smooth="yes"/>
      <point x="253" y="-204"/>
      <point x="358" y="-62"/>
      <point x="358" y="42" type="curve" smooth="yes"/>
      <point x="358" y="97"/>
      <point x="322" y="132"/>
      <point x="286" y="150" type="curve" smooth="yes"/>
      <point x="249" y="168"/>
      <point x="211" y="167"/>
      <point x="211" y="171" type="curve" smooth="yes"/>
      <point x="211" y="184"/>
      <point x="322" y="246"/>
      <point x="322" y="331" type="curve" smooth="yes"/>
      <point x="322" y="405"/>
      <point x="246" y="424"/>
      <point x="192" y="424" type="curve" smooth="yes"/>
      <point x="128" y="424"/>
      <point x="68" y="373"/>
      <point x="68" y="354" type="curve" smooth="yes"/>
      <point x="68" y="348"/>
      <point x="70" y="344"/>
      <point x="79" y="344" type="curve" smooth="yes"/>
      <point x="99" y="344"/>
      <point x="103" y="376"/>
      <point x="158" y="376" type="curve" smooth="yes"/>
      <point x="209" y="376"/>
      <point x="250" y="336"/>
      <point x="250" y="296" type="curve" smooth="yes"/>
      <point x="250" y="236"/>
      <point x="201" y="189"/>
      <point x="173" y="169" type="curve" smooth="yes"/>
      <point x="102" y="119"/>
      <point x="94" y="129"/>
      <point x="94" y="114" type="curve" smooth="yes"/>
      <point x="94" y="107"/>
      <point x="102" y="103"/>
      <point x="107" y="103" type="curve" smooth="yes"/>
      <point x="110" y="103"/>
      <point x="132" y="108"/>
      <point x="153" y="108" type="curve" smooth="yes"/>
      <point x="242" y="108"/>
      <point x="301" y="59"/>
      <point x="301" y="-4" type="curve" smooth="yes"/>
      <point x="301" y="-70"/>
      <point x="245" y="-155"/>
      <point x="162" y="-155" type="curve" smooth="yes"/>
      <point x="87" y="-155"/>
      <point x="70" y="-104"/>
      <point x="57" y="-104" type="curve" smooth="yes"/>
      <point x="40" y="-104"/>
      <point x="39" y="-124"/>
      <point x="39" y="-136" type="curve" smooth="yes"/>
    </contour>
  </outline>
</glyph>
<glyph name="four" format="1">
  <advance width="504"/>
  <unicode hex="0034"/>
  <outline>
    <contour>
      <point x="10" y="-1"/>
      <point x="18" y="-1"/>
      <point x="38" y="-1" type="curve" smooth="yes"/>
      <point x="69" y="-1"/>
      <point x="100" y="-2"/>
      <point x="141" y="-2" type="curve" smooth="yes"/>
      <point x="204" y="-2"/>
      <point x="259" y="0"/>
      <point x="290" y="0" type="curve" smooth="yes"/>
      <point x="298" y="0"/>
      <point x="299" y="-7"/>
      <point x="299" y="-16" type="curve" smooth="yes"/>
      <point x="299" y="-173"/>
      <point x="291" y="-156"/>
      <point x="291" y="-172" type="curve" smooth="yes"/>
      <point x="291" y="-180"/>
      <point x="294" y="-186"/>
      <point x="310" y="-186" type="curve" smooth="yes"/>
      <point x="325" y="-186"/>
      <point x="339" y="-183"/>
      <point x="354" y="-179" type="curve" smooth="yes"/>
      <point x="361" y="-177"/>
      <point x="370" y="-175"/>
      <point x="370" y="-155" type="curve" smooth="yes"/>
      <point x="370" y="-145"/>
      <point x="369" y="-134"/>
      <point x="369" y="-129" type="curve" smooth="yes"/>
      <point x="369" y="-97"/>
      <point x="366" y="-54"/>
      <point x="366" y="-23" type="curve" smooth="yes"/>
      <point x="366" y="-9"/>
      <point x="367" y="-4"/>
      <point x="380" y="-4" type="curve" smooth="yes"/>
      <point x="394" y="-4"/>
      <point x="419" y="-5"/>
      <point x="435" y="-5" type="curve" smooth="yes"/>
      <point x="449" y="-5"/>
      <point x="453" y="15"/>
      <point x="458" y="27" type="curve"/>
      <point x="464" y="44"/>
      <point x="475" y="64"/>
      <point x="475" y="77" type="curve" smooth="yes"/>
      <point x="475" y="89"/>
      <point x="465" y="90"/>
      <point x="462" y="90" type="curve" smooth="yes"/>
      <point x="446" y="90"/>
      <point x="458" y="67"/>
      <point x="387" y="67" type="curve" smooth="yes"/>
      <point x="370" y="67"/>
      <point x="369" y="74"/>
      <point x="369" y="81" type="curve" smooth="yes"/>
      <point x="369" y="129"/>
      <point x="382" y="387"/>
      <point x="382" y="393" type="curve" smooth="yes"/>
      <point x="382" y="407"/>
      <point x="380" y="417"/>
      <point x="371" y="417" type="curve" smooth="yes"/>
      <point x="357" y="417"/>
      <point x="333" y="384"/>
      <point x="320" y="369" type="curve" smooth="yes"/>
      <point x="15" y="26"/>
      <point x="10" y="37"/>
      <point x="10" y="14" type="curve" smooth="yes"/>
    </contour>
    <contour>
      <point x="103" y="88"/>
      <point x="181" y="165"/>
      <point x="229" y="225" type="curve" smooth="yes"/>
      <point x="234" y="231"/>
      <point x="292" y="296"/>
      <point x="300" y="296" type="curve" smooth="yes"/>
      <point x="304" y="296"/>
      <point x="305" y="289"/>
      <point x="305" y="272" type="curve" smooth="yes"/>
      <point x="305" y="215"/>
      <point x="302" y="73"/>
      <point x="302" y="73" type="curve"/>
      <point x="302" y="64"/>
      <point x="292" y="63"/>
      <point x="257" y="63" type="curve" smooth="yes"/>
      <point x="232" y="63"/>
      <point x="201" y="64"/>
      <point x="178" y="64" type="curve" smooth="yes"/>
      <point x="141" y="64" type="line" smooth="yes"/>
      <point x="115" y="64"/>
      <point x="103" y="66"/>
      <point x="103" y="76" type="curve" smooth="yes"/>
    </contour>
  </outline>
</glyph>
<glyph name="five" format="1">
  <advance width="342"/>
  <unicode hex="0035"/>
  <outline>
    <contour>
      <point x="-47" y="-131"/>
      <point x="-43" y="-182"/>
      <point x="-33" y="-188" type="curve" smooth="yes"/>
      <point x="-8" y="-202"/>
      <point x="3" y="-205"/>
      <point x="24" y="-205" type="curve" smooth="yes"/>
      <point x="73" y="-205"/>
      <point x="171" y="-191"/>
      <point x="238" y="-78" type="curve" smooth="yes"/>
      <point x="257" y="-46"/>
      <point x="284" y="1"/>
      <point x="284" y="84" type="curve" smooth="yes"/>
      <point x="284" y="147"/>
      <point x="250" y="196"/>
      <point x="241" y="206" type="curve" smooth="yes"/>
      <point x="179" y="272"/>
      <point x="90" y="264"/>
      <point x="90" y="289" type="curve" smooth="yes"/>
      <point x="90" y="293"/>
      <point x="96" y="313"/>
      <point x="105" y="334" type="curve"/>
      <point x="108" y="342"/>
      <point x="107" y="343"/>
      <point x="267" y="344" type="curve" smooth="yes"/>
      <point x="292" y="344"/>
      <point x="278" y="346"/>
      <point x="319" y="429" type="curve"/>
      <point x="321" y="434"/>
      <point x="322" y="438"/>
      <point x="322" y="441" type="curve" smooth="yes"/>
      <point x="322" y="450"/>
      <point x="315" y="452"/>
      <point x="309" y="452" type="curve" smooth="yes"/>
      <point x="301" y="452"/>
      <point x="295" y="440"/>
      <point x="282" y="425" type="curve" smooth="yes"/>
      <point x="272" y="413"/>
      <point x="280" y="411"/>
      <point x="204" y="411" type="curve" smooth="yes"/>
      <point x="199" y="411" type="line" smooth="yes"/>
      <point x="170" y="411"/>
      <point x="134" y="413"/>
      <point x="125" y="413" type="curve" smooth="yes"/>
      <point x="103" y="413"/>
      <point x="98" y="402"/>
      <point x="94" y="389" type="curve" smooth="yes"/>
      <point x="51" y="248"/>
      <point x="39" y="253"/>
      <point x="39" y="229" type="curve" smooth="yes"/>
      <point x="39" y="198"/>
      <point x="89" y="221"/>
      <point x="155" y="175" type="curve" smooth="yes"/>
      <point x="210" y="136"/>
      <point x="219" y="100"/>
      <point x="219" y="43" type="curve" smooth="yes"/>
      <point x="219" y="-56"/>
      <point x="158" y="-162"/>
      <point x="84" y="-162" type="curve" smooth="yes"/>
      <point x="4" y="-162"/>
      <point x="-12" y="-99"/>
      <point x="-35" y="-99" type="curve" smooth="yes"/>
      <point x="-48" y="-99"/>
      <point x="-47" y="-114"/>
      <point x="-47" y="-127" type="curve" smooth="yes"/>
    </contour>
  </outline>
</glyph>
<glyph name="six" format="1">
  <advance width="497"/>
  <unicode hex="0036"/>
  <outline>
    <contour>
      <point x="44" y="172"/>
      <point x="58" y="100"/>
      <point x="103" y="53" type="curve" smooth="yes"/>
      <point x="144" y="11"/>
      <point x="191" y="-20"/>
      <point x="255" y="-20" type="curve" smooth="yes"/>
      <point x="382" y="-20"/>
      <point x="453" y="88"/>
      <point x="453" y="208" type="curve" smooth="yes"/>
      <point x="453" y="339"/>
      <point x="381" y="425"/>
      <point x="264" y="425" type="curve" smooth="yes"/>
      <point x="181" y="425"/>
      <point x="148" y="371"/>
      <point x="140" y="371" type="curve" smooth="yes"/>
      <point x="138" y="371"/>
      <point x="137" y="373"/>
      <point x="137" y="375" type="curve" smooth="yes"/>
      <point x="137" y="380"/>
      <point x="169" y="509"/>
      <point x="268" y="593" type="curve" smooth="yes"/>
      <point x="320" y="637"/>
      <point x="354" y="659"/>
      <point x="416" y="667" type="curve" smooth="yes"/>
      <point x="423" y="668"/>
      <point x="426" y="675"/>
      <point x="426" y="681" type="curve" smooth="yes"/>
      <point x="426" y="688"/>
      <point x="422" y="694"/>
      <point x="411" y="694" type="curve" smooth="yes"/>
      <point x="384" y="694"/>
      <point x="317" y="675"/>
      <point x="264" y="638" type="curve" smooth="yes"/>
      <point x="154" y="562"/>
      <point x="44" y="418"/>
      <point x="44" y="255" type="curve" smooth="yes"/>
    </contour>
    <contour>
      <point x="125" y="341"/>
      <point x="136" y="344"/>
      <point x="145" y="351" type="curve" smooth="yes"/>
      <point x="185" y="380"/>
      <point x="201" y="382"/>
      <point x="222" y="382" type="curve" smooth="yes"/>
      <point x="344" y="382"/>
      <point x="388" y="233"/>
      <point x="388" y="169" type="curve" smooth="yes"/>
      <point x="388" y="61"/>
      <point x="321" y="12"/>
      <point x="270" y="12" type="curve" smooth="yes"/>
      <point x="215" y="12"/>
      <point x="125" y="69"/>
      <point x="125" y="261" type="curve" smooth="yes"/>
    </contour>
  </outline>
</glyph>
<glyph name="seven" format="1">
  <advance width="501"/>
  <unicode hex="0037"/>
  <outline>
    <contour>
      <point x="23" y="-184"/>
      <point x="33" y="-186"/>
      <point x="45" y="-186" type="curve" smooth="yes"/>
      <point x="69" y="-186"/>
      <point x="87" y="-188"/>
      <point x="97" y="-188" type="curve" smooth="yes"/>
      <point x="119" y="-188"/>
      <point x="97" y="-165"/>
      <point x="182" y="-40" type="curve" smooth="yes"/>
      <point x="449" y="354" type="line" smooth="yes"/>
      <point x="469" y="384"/>
      <point x="482" y="403"/>
      <point x="482" y="413" type="curve" smooth="yes"/>
      <point x="482" y="418"/>
      <point x="479" y="424"/>
      <point x="471" y="424" type="curve" smooth="yes"/>
      <point x="456" y="424"/>
      <point x="476" y="408"/>
      <point x="309" y="408" type="curve" smooth="yes"/>
      <point x="235" y="408"/>
      <point x="175" y="412"/>
      <point x="114" y="412" type="curve" smooth="yes"/>
      <point x="105" y="412"/>
      <point x="71" y="411"/>
      <point x="70" y="398" type="curve"/>
      <point x="69" y="368"/>
      <point x="53" y="320"/>
      <point x="53" y="292" type="curve" smooth="yes"/>
      <point x="53" y="288"/>
      <point x="58" y="284"/>
      <point x="63" y="284" type="curve" smooth="yes"/>
      <point x="68" y="284"/>
      <point x="75" y="289"/>
      <point x="76" y="293" type="curve"/>
      <point x="87" y="345"/>
      <point x="186" y="346"/>
      <point x="257" y="346" type="curve" smooth="yes"/>
      <point x="335" y="346" type="line" smooth="yes"/>
      <point x="375" y="346"/>
      <point x="396" y="342"/>
      <point x="396" y="335" type="curve" smooth="yes"/>
      <point x="396" y="312"/>
      <point x="23" y="-146"/>
      <point x="23" y="-175" type="curve" smooth="yes"/>
    </contour>
  </outline>
</glyph>
<glyph name="eight" format="1">
  <advance width="500"/>
  <unicode hex="0038"/>
  <outline>
    <contour>
      <point x="39" y="104"/>
      <point x="73" y="38"/>
      <point x="134" y="3" type="curve" smooth="yes"/>
      <point x="167" y="-16"/>
      <point x="208" y="-22"/>
      <point x="256" y="-22" type="curve" smooth="yes"/>
      <point x="403" y="-22"/>
      <point x="461" y="93"/>
      <point x="461" y="188" type="curve" smooth="yes"/>
      <point x="461" y="320"/>
      <point x="327" y="356"/>
      <point x="327" y="371" type="curve" smooth="yes"/>
      <point x="327" y="380"/>
      <point x="421" y="407"/>
      <point x="421" y="524" type="curve" smooth="yes"/>
      <point x="421" y="616"/>
      <point x="360" y="687"/>
      <point x="240" y="687" type="curve" smooth="yes"/>
      <point x="137" y="687"/>
      <point x="59" y="613"/>
      <point x="59" y="510" type="curve" smooth="yes"/>
      <point x="59" y="400"/>
      <point x="171" y="360"/>
      <point x="171" y="350" type="curve" smooth="yes"/>
      <point x="171" y="340"/>
      <point x="39" y="321"/>
      <point x="39" y="179" type="curve" smooth="yes"/>
    </contour>
    <contour>
      <point x="83" y="314"/>
      <point x="210" y="332"/>
      <point x="227" y="332" type="curve" smooth="yes"/>
      <point x="257" y="332"/>
      <point x="398" y="249"/>
      <point x="398" y="151" type="curve" smooth="yes"/>
      <point x="398" y="92"/>
      <point x="358" y="9"/>
      <point x="250" y="9" type="curve" smooth="yes"/>
      <point x="155" y="9"/>
      <point x="83" y="79"/>
      <point x="83" y="180" type="curve" smooth="yes"/>
    </contour>
    <contour>
      <point x="117" y="615"/>
      <point x="189" y="656"/>
      <point x="247" y="656" type="curve" smooth="yes"/>
      <point x="343" y="656"/>
      <point x="384" y="568"/>
      <point x="384" y="527" type="curve" smooth="yes"/>
      <point x="384" y="436"/>
      <point x="306" y="392"/>
      <point x="284" y="392" type="curve" smooth="yes"/>
      <point x="255" y="392"/>
      <point x="117" y="454"/>
      <point x="117" y="534" type="curve" smooth="yes"/>
    </contour>
  </outline>
</glyph>
<glyph name="nine" format="1">
  <advance width="486"/>
  <unicode hex="0039"/>
  <outline>
    <contour>
      <point x="39" y="86"/>
      <point x="98" y="-11"/>
      <point x="227" y="-11" type="curve" smooth="yes"/>
      <point x="310" y="-11"/>
      <point x="333" y="27"/>
      <point x="340" y="27" type="curve" smooth="yes"/>
      <point x="341" y="27"/>
      <point x="342" y="27"/>
      <point x="342" y="25" type="curve" smooth="yes"/>
      <point x="342" y="3"/>
      <point x="307" y="-67"/>
      <point x="252" y="-114" type="curve" smooth="yes"/>
      <point x="195" y="-162"/>
      <point x="146" y="-174"/>
      <point x="121" y="-174" type="curve" smooth="yes"/>
      <point x="107" y="-174"/>
      <point x="95" y="-176"/>
      <point x="95" y="-188" type="curve" smooth="yes"/>
      <point x="95" y="-205"/>
      <point x="105" y="-205"/>
      <point x="114" y="-205" type="curve" smooth="yes"/>
      <point x="141" y="-205"/>
      <point x="215" y="-200"/>
      <point x="268" y="-163" type="curve" smooth="yes"/>
      <point x="393" y="-77"/>
      <point x="447" y="57"/>
      <point x="447" y="174" type="curve" smooth="yes"/>
      <point x="447" y="308"/>
      <point x="376" y="422"/>
      <point x="244" y="422" type="curve" smooth="yes"/>
      <point x="111" y="422"/>
      <point x="39" y="294"/>
      <point x="39" y="189" type="curve" smooth="yes"/>
    </contour>
    <contour>
      <point x="109" y="338"/>
      <point x="166" y="386"/>
      <point x="220" y="386" type="curve" smooth="yes"/>
      <point x="293" y="386"/>
      <point x="374" y="305"/>
      <point x="374" y="167" type="curve" smooth="yes"/>
      <point x="374" y="49"/>
      <point x="301" y="34"/>
      <point x="263" y="34" type="curve" smooth="yes"/>
      <point x="173" y="34"/>
      <point x="109" y="146"/>
      <point x="109" y="240" type="curve" smooth="yes"/>
    </contour>
  </outline>
</glyph>
<glyph name="colon" format="1">
  <advance width="260"/>
  <unicode hex="003A"/>
  <outline>
    <contour>
      <point x="59" y="45"/>
      <point x="72" y="33"/>
      <point x="89" y="21" type="curve"/>
      <point x="102" y="11"/>
      <point x="114" y="-16"/>
      <point x="130" y="-16" type="curve" smooth="yes"/>
      <point x="144" y="-16"/>
      <point x="155" y="7"/>
      <point x="167" y="19" type="curve" smooth="yes"/>
      <point x="182" y="33"/>
      <point x="202" y="43"/>
      <point x="202" y="55" type="curve" smooth="yes"/>
      <point x="202" y="65"/>
      <point x="181" y="80"/>
      <point x="172" y="90" type="curve" smooth="yes"/>
      <point x="156" y="109"/>
      <point x="144" y="127"/>
      <point x="136" y="127" type="curve" smooth="yes"/>
      <point x="117" y="127"/>
      <point x="107" y="106"/>
      <point x="94" y="94" type="curve" smooth="yes"/>
      <point x="78" y="80"/>
      <point x="59" y="64"/>
      <point x="59" y="55" type="curve" smooth="yes"/>
    </contour>
    <contour>
      <point x="66" y="327"/>
      <point x="82" y="317"/>
      <point x="96" y="303" type="curve" smooth="yes"/>
      <point x="105" y="294"/>
      <point x="114" y="268"/>
      <point x="130" y="268" type="curve" smooth="yes"/>
      <point x="146" y="268"/>
      <point x="154" y="290"/>
      <point x="166" y="301" type="curve" smooth="yes"/>
      <point x="180" y="314"/>
      <point x="196" y="324"/>
      <point x="196" y="335" type="curve" smooth="yes"/>
      <point x="196" y="349"/>
      <point x="178" y="359"/>
      <point x="170" y="369" type="curve" smooth="yes"/>
      <point x="160" y="382"/>
      <point x="142" y="406"/>
      <point x="134" y="406" type="curve" smooth="yes"/>
      <point x="116" y="406"/>
      <point x="109" y="384"/>
      <point x="96" y="373" type="curve" smooth="yes"/>
      <point x="81" y="360"/>
      <point x="66" y="345"/>
      <point x="66" y="336" type="curve" smooth="yes"/>
    </contour>
  </outline>
</glyph>
<glyph name="semicolon" format="1">
  <advance width="262"/>
  <unicode hex="003B"/>
  <outline>
    <contour>
      <point x="59" y="333"/>
      <point x="76" y="323"/>
      <point x="90" y="309" type="curve" smooth="yes"/>
      <point x="99" y="300"/>
      <point x="109" y="273"/>
      <point x="125" y="273" type="curve" smooth="yes"/>
      <point x="141" y="273"/>
      <point x="151" y="295"/>
      <point x="163" y="306" type="curve" smooth="yes"/>
      <point x="177" y="319"/>
      <point x="193" y="329"/>
      <point x="193" y="340" type="curve" smooth="yes"/>
      <point x="193" y="354"/>
      <point x="173" y="365"/>
      <point x="165" y="375" type="curve" smooth="yes"/>
      <point x="155" y="388"/>
      <point x="136" y="413"/>
      <point x="128" y="413" type="curve" smooth="yes"/>
      <point x="107" y="413"/>
      <point x="103" y="390"/>
      <point x="90" y="379" type="curve" smooth="yes"/>
      <point x="75" y="366"/>
      <point x="59" y="351"/>
      <point x="59" y="342" type="curve" smooth="yes"/>
    </contour>
    <contour>
      <point x="61" y="44"/>
      <point x="62" y="45"/>
      <point x="79" y="33" type="curve" smooth="yes"/>
      <point x="111" y="9"/>
      <point x="134" y="-10"/>
      <point x="134" y="-48" type="curve" smooth="yes"/>
      <point x="134" y="-117"/>
      <point x="73" y="-132"/>
      <point x="73" y="-153" type="curve" smooth="yes"/>
      <point x="73" y="-161"/>
      <point x="81" y="-168"/>
      <point x="85" y="-168" type="curve" smooth="yes"/>
      <point x="112" y="-168"/>
      <point x="204" y="-94"/>
      <point x="204" y="0" type="curve" smooth="yes"/>
      <point x="204" y="87"/>
      <point x="139" y="125"/>
      <point x="134" y="125" type="curve" smooth="yes"/>
      <point x="111" y="125"/>
      <point x="105" y="105"/>
      <point x="93" y="93" type="curve" smooth="yes"/>
      <point x="78" y="78"/>
      <point x="61" y="68"/>
      <point x="61" y="54" type="curve" smooth="yes"/>
    </contour>
  </outline>
</glyph>
<glyph name="equal" format="1">
  <advance width="527"/>
  <unicode hex="003D"/>
  <outline>
    <contour>
      <point x="31" y="97"/>
      <point x="30" y="90"/>
      <point x="48" y="90" type="curve" smooth="yes"/>
      <point x="475" y="90" type="line" smooth="yes"/>
      <point x="496" y="90"/>
      <point x="496" y="97"/>
      <point x="496" y="114" type="curve" smooth="yes"/>
      <point x="496" y="128"/>
      <point x="496" y="135"/>
      <point x="480" y="135" type="curve" smooth="yes"/>
      <point x="49" y="135" type="line" smooth="yes"/>
      <point x="31" y="135"/>
      <point x="31" y="127"/>
      <point x="31" y="114" type="curve" smooth="yes"/>
    </contour>
    <contour>
      <point x="31" y="293"/>
      <point x="30" y="286"/>
      <point x="48" y="286" type="curve" smooth="yes"/>
      <point x="475" y="286" type="line" smooth="yes"/>
      <point x="496" y="286"/>
      <point x="496" y="292"/>
      <point x="496" y="309" type="curve" smooth="yes"/>
      <point x="496" y="323"/>
      <point x="496" y="330"/>
      <point x="480" y="330" type="curve" smooth="yes"/>
      <point x="49" y="330" type="line" smooth="yes"/>
      <point x="31" y="330"/>
      <point x="31" y="323"/>
      <point x="31" y="310" type="curve" smooth="yes"/>
    </contour>
  </outline>
</glyph>
<glyph name="at" format="1">
  <advance width="821"/>
  <unicode hex="0040"/>
  <outline>
    <contour>
      <point x="44" y="63"/>
      <point x="197" y="-64"/>
      <point x="405" y="-64" type="curve" smooth="yes"/>
      <point x="556" y="-64"/>
      <point x="652" y="8"/>
      <point x="652" y="26" type="curve" smooth="yes"/>
      <point x="652" y="35"/>
      <point x="646" y="38"/>
      <point x="641" y="38" type="curve" smooth="yes"/>
      <point x="629" y="38"/>
      <point x="566" y="-27"/>
      <point x="423" y="-27" type="curve" smooth="yes"/>
      <point x="232" y="-27"/>
      <point x="104" y="109"/>
      <point x="104" y="297" type="curve" smooth="yes"/>
      <point x="104" y="516"/>
      <point x="267" y="659"/>
      <point x="464" y="659" type="curve" smooth="yes"/>
      <point x="612" y="659"/>
      <point x="736" y="568"/>
      <point x="736" y="397" type="curve" smooth="yes"/>
      <point x="736" y="246"/>
      <point x="658" y="174"/>
      <point x="562" y="174" type="curve" smooth="yes"/>
      <point x="532" y="174"/>
      <point x="521" y="203"/>
      <point x="521" y="233" type="curve" smooth="yes"/>
      <point x="521" y="246" type="line" smooth="yes"/>
      <point x="521" y="320"/>
      <point x="570" y="487"/>
      <point x="570" y="500" type="curve" smooth="yes"/>
      <point x="570" y="509"/>
      <point x="570" y="519"/>
      <point x="562" y="519" type="curve" smooth="yes"/>
      <point x="541" y="519"/>
      <point x="535" y="479"/>
      <point x="520" y="479" type="curve" smooth="yes"/>
      <point x="511" y="479"/>
      <point x="480" y="488"/>
      <point x="448" y="488" type="curve" smooth="yes"/>
      <point x="325" y="488"/>
      <point x="217" y="321"/>
      <point x="217" y="208" type="curve" smooth="yes"/>
      <point x="217" y="152"/>
      <point x="244" y="111"/>
      <point x="310" y="111" type="curve" smooth="yes"/>
      <point x="400" y="111"/>
      <point x="456" y="209"/>
      <point x="465" y="209" type="curve" smooth="yes"/>
      <point x="474" y="209"/>
      <point x="456" y="129"/>
      <point x="549" y="129" type="curve" smooth="yes"/>
      <point x="668" y="129"/>
      <point x="777" y="244"/>
      <point x="777" y="392" type="curve" smooth="yes"/>
      <point x="777" y="559"/>
      <point x="652" y="697"/>
      <point x="463" y="697" type="curve" smooth="yes"/>
      <point x="343" y="697"/>
      <point x="44" y="625"/>
      <point x="44" y="286" type="curve" smooth="yes"/>
    </contour>
    <contour>
      <point x="284" y="374"/>
      <point x="386" y="456"/>
      <point x="440" y="456" type="curve" smooth="yes"/>
      <point x="464" y="456"/>
      <point x="502" y="444"/>
      <point x="502" y="436" type="curve" smooth="yes"/>
      <point x="502" y="433"/>
      <point x="476" y="334"/>
      <point x="462" y="281" type="curve" smooth="yes"/>
      <point x="451" y="238"/>
      <point x="448" y="231"/>
      <point x="437" y="215" type="curve" smooth="yes"/>
      <point x="429" y="203"/>
      <point x="389" y="167"/>
      <point x="346" y="167" type="curve" smooth="yes"/>
      <point x="312" y="167"/>
      <point x="284" y="185"/>
      <point x="284" y="227" type="curve" smooth="yes"/>
    </contour>
  </outline>
</glyph>
<glyph name="B" format="1">
  <advance width="630"/>
  <unicode hex="0042"/>
  <outline>
    <contour>
      <point x="20" y="682"/>
      <point x="31" y="682"/>
      <point x="37" y="682" type="curve" smooth="yes"/>
      <point x="120" y="682"/>
      <point x="125" y="613"/>
      <point x="125" y="604" type="curve" smooth="yes"/>
      <point x="125" y="434" type="line" smooth="yes"/>
      <point x="125" y="322"/>
      <point x="125" y="187"/>
      <point x="122" y="122" type="curve" smooth="yes"/>
      <point x="119" y="46"/>
      <point x="91" y="29"/>
      <point x="77" y="29" type="curve" smooth="yes"/>
      <point x="70" y="29"/>
      <point x="65" y="28"/>
      <point x="54" y="28" type="curve" smooth="yes"/>
      <point x="44" y="28"/>
      <point x="43" y="18"/>
      <point x="43" y="14" type="curve" smooth="yes"/>
      <point x="43" y="1"/>
      <point x="54" y="-1"/>
      <point x="64" y="-1" type="curve" smooth="yes"/>
      <point x="78" y="-1" type="line" smooth="yes"/>
      <point x="112" y="-1"/>
      <point x="140" y="3"/>
      <point x="164" y="3" type="curve" smooth="yes"/>
      <point x="189" y="3"/>
      <point x="274" y="-8"/>
      <point x="343" y="-8" type="curve" smooth="yes"/>
      <point x="411" y="-8"/>
      <point x="455" y="1"/>
      <point x="517" y="44" type="curve" smooth="yes"/>
      <point x="562" y="75"/>
      <point x="601" y="151"/>
      <point x="601" y="208" type="curve" smooth="yes"/>
      <point x="601" y="379"/>
      <point x="438" y="384"/>
      <point x="438" y="396" type="curve" smooth="yes"/>
      <point x="438" y="402"/>
      <point x="538" y="440"/>
      <point x="538" y="545" type="curve" smooth="yes"/>
      <point x="538" y="656"/>
      <point x="439" y="712"/>
      <point x="325" y="712" type="curve" smooth="yes"/>
      <point x="290" y="712"/>
      <point x="258" y="709"/>
      <point x="215" y="709" type="curve" smooth="yes"/>
      <point x="197" y="709"/>
      <point x="105" y="708"/>
      <point x="69" y="708" type="curve" smooth="yes"/>
      <point x="39" y="708"/>
      <point x="39" y="709"/>
      <point x="29" y="709" type="curve" smooth="yes"/>
      <point x="23" y="709"/>
      <point x="20" y="700"/>
      <point x="20" y="694" type="curve" smooth="yes"/>
    </contour>
    <contour>
      <point x="201" y="102"/>
      <point x="202" y="113"/>
      <point x="202" y="196" type="curve" smooth="yes"/>
      <point x="202" y="204" type="line" smooth="yes"/>
      <point x="202" y="364"/>
      <point x="206" y="366"/>
      <point x="227" y="366" type="curve" smooth="yes"/>
      <point x="236" y="366"/>
      <point x="227" y="364"/>
      <point x="320" y="364" type="curve" smooth="yes"/>
      <point x="353" y="364"/>
      <point x="516" y="356"/>
      <point x="516" y="184" type="curve" smooth="yes"/>
      <point x="516" y="108"/>
      <point x="470" y="47"/>
      <point x="408" y="37" type="curve" smooth="yes"/>
      <point x="382" y="33"/>
      <point x="352" y="32"/>
      <point x="322" y="32" type="curve" smooth="yes"/>
      <point x="299" y="32" type="line" smooth="yes"/>
      <point x="264" y="32"/>
      <point x="201" y="35"/>
      <point x="201" y="92" type="curve" smooth="yes"/>
    </contour>
    <contour>
      <point x="207" y="574" type="line" smooth="yes"/>
      <point x="207" y="665"/>
      <point x="220" y="677"/>
      <point x="259" y="677" type="curve" smooth="yes"/>
      <point x="403" y="677"/>
      <point x="461" y="576"/>
      <point x="461" y="516" type="curve" smooth="yes"/>
      <point x="461" y="452"/>
      <point x="424" y="398"/>
      <point x="335" y="398" type="curve" smooth="yes"/>
      <point x="271" y="398" type="line" smooth="yes"/>
      <point x="243" y="398"/>
      <point x="239" y="399"/>
      <point x="220" y="401" type="curve" smooth="yes"/>
      <point x="210" y="402"/>
      <point x="207" y="413"/>
      <point x="207" y="545" type="curve" smooth="yes"/>
    </contour>
  </outline>
</glyph>
<glyph name="F" format="1">
  <advance width="554"/>
  <unicode hex="0046"/>
  <outline>
    <contour>
      <point x="20" y="676"/>
      <point x="48" y="688"/>
      <point x="70" y="677" type="curve" smooth="yes"/>
      <point x="113" y="657"/>
      <point x="117" y="621"/>
      <point x="117" y="589" type="curve" smooth="yes"/>
      <point x="117" y="531" type="line" smooth="yes"/>
      <point x="117" y="469"/>
      <point x="114" y="412"/>
      <point x="114" y="357" type="curve" smooth="yes"/>
      <point x="112" y="121"/>
      <point x="118" y="55"/>
      <point x="75" y="40" type="curve" smooth="yes"/>
      <point x="34" y="25"/>
      <point x="32" y="27"/>
      <point x="32" y="9" type="curve" smooth="yes"/>
      <point x="32" y="-2"/>
      <point x="42" y="-2"/>
      <point x="52" y="-2" type="curve" smooth="yes"/>
      <point x="101" y="-2"/>
      <point x="118" y="4"/>
      <point x="173" y="4" type="curve" smooth="yes"/>
      <point x="199" y="4"/>
      <point x="239" y="-4"/>
      <point x="270" y="-4" type="curve" smooth="yes"/>
      <point x="296" y="-4"/>
      <point x="301" y="10"/>
      <point x="301" y="15" type="curve" smooth="yes"/>
      <point x="301" y="22"/>
      <point x="294" y="33"/>
      <point x="271" y="33" type="curve" smooth="yes"/>
      <point x="199" y="33"/>
      <point x="191" y="111"/>
      <point x="191" y="137" type="curve" smooth="yes"/>
      <point x="191" y="150"/>
      <point x="192" y="163"/>
      <point x="192" y="177" type="curve" smooth="yes"/>
      <point x="192" y="233"/>
      <point x="194" y="264"/>
      <point x="194" y="321" type="curve" smooth="yes"/>
      <point x="194" y="337"/>
      <point x="214" y="340"/>
      <point x="235" y="340" type="curve" smooth="yes"/>
      <point x="322" y="340" type="line" smooth="yes"/>
      <point x="326" y="340"/>
      <point x="397" y="336"/>
      <point x="419" y="326" type="curve" smooth="yes"/>
      <point x="438" y="318"/>
      <point x="438" y="296"/>
      <point x="441" y="278" type="curve" smooth="yes"/>
      <point x="443" y="264"/>
      <point x="447" y="253"/>
      <point x="462" y="253" type="curve" smooth="yes"/>
      <point x="470" y="253"/>
      <point x="476" y="254"/>
      <point x="476" y="278" type="curve" smooth="yes"/>
      <point x="476" y="297"/>
      <point x="469" y="326"/>
      <point x="469" y="360" type="curve" smooth="yes"/>
      <point x="469" y="395"/>
      <point x="478" y="425"/>
      <point x="478" y="443" type="curve" smooth="yes"/>
      <point x="478" y="455"/>
      <point x="477" y="459"/>
      <point x="465" y="459" type="curve" smooth="yes"/>
      <point x="445" y="459"/>
      <point x="454" y="439"/>
      <point x="441" y="419" type="curve"/>
      <point x="438" y="414"/>
      <point x="433" y="409"/>
      <point x="427" y="405" type="curve" smooth="yes"/>
      <point x="408" y="392"/>
      <point x="398" y="387"/>
      <point x="312" y="387" type="curve" smooth="yes"/>
      <point x="281" y="387" type="line" smooth="yes"/>
      <point x="265" y="387"/>
      <point x="253" y="386"/>
      <point x="238" y="386" type="curve" smooth="yes"/>
      <point x="231" y="386"/>
      <point x="222" y="387"/>
      <point x="213" y="387" type="curve"/>
      <point x="195" y="388"/>
      <point x="195" y="419"/>
      <point x="195" y="437" type="curve" smooth="yes"/>
      <point x="195" y="483"/>
      <point x="196" y="568"/>
      <point x="198" y="604" type="curve" smooth="yes"/>
      <point x="200" y="651"/>
      <point x="196" y="668"/>
      <point x="265" y="668" type="curve" smooth="yes"/>
      <point x="301" y="668"/>
      <point x="357" y="663"/>
      <point x="445" y="656" type="curve" smooth="yes"/>
      <point x="479" y="654"/>
      <point x="491" y="622"/>
      <point x="491" y="587" type="curve" smooth="yes"/>
      <point x="491" y="573"/>
      <point x="497" y="567"/>
      <point x="505" y="567" type="curve" smooth="yes"/>
      <point x="513" y="567"/>
      <point x="519" y="575"/>
      <point x="520" y="587" type="curve" smooth="yes"/>
      <point x="526" y="638"/>
      <point x="534" y="669"/>
      <point x="534" y="689" type="curve" smooth="yes"/>
      <point x="534" y="710"/>
      <point x="524" y="713"/>
      <point x="517" y="713" type="curve" smooth="yes"/>
      <point x="417" y="713"/>
      <point x="423" y="708"/>
      <point x="290" y="708" type="curve" smooth="yes"/>
      <point x="139" y="708"/>
      <point x="142" y="714"/>
      <point x="73" y="714" type="curve" smooth="yes"/>
      <point x="46" y="714" type="line" smooth="yes"/>
      <point x="23" y="714"/>
      <point x="20" y="700"/>
      <point x="20" y="697" type="curve" smooth="yes"/>
    </contour>
  </outline>
</glyph>
<glyph name="G" format="1">
  <advance width="818"/>
  <unicode hex="0047"/>
  <outline>
    <contour>
      <point x="44" y="158"/>
      <point x="142" y="-17"/>
      <point x="444" y="-17" type="curve" smooth="yes"/>
      <point x="555" y="-17"/>
      <point x="658" y="53"/>
      <point x="670" y="60" type="curve" smooth="yes"/>
      <point x="705" y="79"/>
      <point x="733" y="75"/>
      <point x="733" y="87" type="curve" smooth="yes"/>
      <point x="733" y="98"/>
      <point x="728" y="110"/>
      <point x="728" y="199" type="curve" smooth="yes"/>
      <point x="728" y="242"/>
      <point x="730" y="280"/>
      <point x="735" y="311" type="curve" smooth="yes"/>
      <point x="740" y="341"/>
      <point x="789" y="341"/>
      <point x="789" y="357" type="curve" smooth="yes"/>
      <point x="789" y="365"/>
      <point x="777" y="366"/>
      <point x="773" y="366" type="curve" smooth="yes"/>
      <point x="770" y="366"/>
      <point x="724" y="365"/>
      <point x="678" y="365" type="curve" smooth="yes"/>
      <point x="653" y="365"/>
      <point x="592" y="370"/>
      <point x="567" y="370" type="curve" smooth="yes"/>
      <point x="553" y="370"/>
      <point x="549" y="365"/>
      <point x="549" y="359" type="curve" smooth="yes"/>
      <point x="549" y="339"/>
      <point x="566" y="339"/>
      <point x="586" y="337" type="curve" smooth="yes"/>
      <point x="601" y="335"/>
      <point x="618" y="333"/>
      <point x="630" y="321" type="curve" smooth="yes"/>
      <point x="640" y="311"/>
      <point x="647" y="294"/>
      <point x="647" y="265" type="curve" smooth="yes"/>
      <point x="647" y="224"/>
      <point x="645" y="147"/>
      <point x="644" y="139" type="curve" smooth="yes"/>
      <point x="635" y="79"/>
      <point x="539" y="24"/>
      <point x="435" y="24" type="curve" smooth="yes"/>
      <point x="247" y="24"/>
      <point x="138" y="203"/>
      <point x="138" y="384" type="curve" smooth="yes"/>
      <point x="138" y="575"/>
      <point x="266" y="680"/>
      <point x="426" y="680" type="curve" smooth="yes"/>
      <point x="542" y="680"/>
      <point x="666" y="600"/>
      <point x="712" y="499" type="curve" smooth="yes"/>
      <point x="715" y="492"/>
      <point x="723" y="487"/>
      <point x="729" y="487" type="curve" smooth="yes"/>
      <point x="733" y="487"/>
      <point x="741" y="488"/>
      <point x="741" y="504" type="curve" smooth="yes"/>
      <point x="741" y="516"/>
      <point x="729" y="577"/>
      <point x="727" y="643" type="curve"/>
      <point x="727" y="654"/>
      <point x="722" y="663"/>
      <point x="712" y="663" type="curve" smooth="yes"/>
      <point x="704" y="663"/>
      <point x="691" y="648"/>
      <point x="684" y="648" type="curve" smooth="yes"/>
      <point x="675" y="648"/>
      <point x="605" y="719"/>
      <point x="435" y="719" type="curve" smooth="yes"/>
      <point x="179" y="719"/>
      <point x="44" y="542"/>
      <point x="44" y="329" type="curve" smooth="yes"/>
    </contour>
  </outline>
</glyph>
<glyph name="K" format="1">
  <advance width="724"/>
  <unicode hex="004B"/>
  <outline>
    <contour>
      <point x="20" y="690"/>
      <point x="21" y="681"/>
      <point x="41" y="680" type="curve" smooth="yes"/>
      <point x="69" y="679"/>
      <point x="110" y="664"/>
      <point x="114" y="629" type="curve" smooth="yes"/>
      <point x="117" y="607"/>
      <point x="117" y="582"/>
      <point x="117" y="556" type="curve" smooth="yes"/>
      <point x="117" y="510" type="line" smooth="yes"/>
      <point x="117" y="469"/>
      <point x="119" y="431"/>
      <point x="119" y="402" type="curve" smooth="yes"/>
      <point x="119" y="268" type="line" smooth="yes"/>
      <point x="119" y="148"/>
      <point x="119" y="63"/>
      <point x="98" y="42" type="curve" smooth="yes"/>
      <point x="79" y="22"/>
      <point x="43" y="30"/>
      <point x="43" y="14" type="curve" smooth="yes"/>
      <point x="43" y="10" type="line" smooth="yes"/>
      <point x="43" y="4"/>
      <point x="46" y="-1"/>
      <point x="79" y="-1" type="curve" smooth="yes"/>
      <point x="115" y="-1"/>
      <point x="137" y="4"/>
      <point x="189" y="4" type="curve" smooth="yes"/>
      <point x="222" y="4"/>
      <point x="230" y="0"/>
      <point x="284" y="0" type="curve" smooth="yes"/>
      <point x="301" y="0"/>
      <point x="309" y="2"/>
      <point x="309" y="18" type="curve" smooth="yes"/>
      <point x="309" y="23"/>
      <point x="298" y="29"/>
      <point x="288" y="29" type="curve" smooth="yes"/>
      <point x="285" y="29"/>
      <point x="283" y="30"/>
      <point x="280" y="30" type="curve" smooth="yes"/>
      <point x="270" y="30"/>
      <point x="231" y="31"/>
      <point x="213" y="62" type="curve" smooth="yes"/>
      <point x="198" y="89"/>
      <point x="198" y="159"/>
      <point x="198" y="220" type="curve" smooth="yes"/>
      <point x="198" y="276"/>
      <point x="197" y="295"/>
      <point x="197" y="297" type="curve" smooth="yes"/>
      <point x="197" y="309"/>
      <point x="199" y="324"/>
      <point x="211" y="324" type="curve" smooth="yes"/>
      <point x="227" y="324"/>
      <point x="224" y="323"/>
      <point x="453" y="91" type="curve" smooth="yes"/>
      <point x="538" y="4"/>
      <point x="524" y="1"/>
      <point x="550" y="1" type="curve" smooth="yes"/>
      <point x="647" y="1" type="line" smooth="yes"/>
      <point x="703" y="1"/>
      <point x="705" y="2"/>
      <point x="705" y="14" type="curve" smooth="yes"/>
      <point x="705" y="28"/>
      <point x="692" y="29"/>
      <point x="671" y="32" type="curve" smooth="yes"/>
      <point x="609" y="42"/>
      <point x="577" y="84"/>
      <point x="291" y="366" type="curve" smooth="yes"/>
      <point x="286" y="371"/>
      <point x="280" y="376"/>
      <point x="280" y="382" type="curve"/>
      <point x="280" y="382"/>
      <point x="283" y="390"/>
      <point x="291" y="396" type="curve"/>
      <point x="584" y="642"/>
      <point x="560" y="625"/>
      <point x="578" y="636" type="curve" smooth="yes"/>
      <point x="600" y="650"/>
      <point x="612" y="660"/>
      <point x="627" y="666" type="curve" smooth="yes"/>
      <point x="662" y="681"/>
      <point x="685" y="679"/>
      <point x="685" y="695" type="curve" smooth="yes"/>
      <point x="685" y="705"/>
      <point x="679" y="708"/>
      <point x="665" y="708" type="curve" smooth="yes"/>
      <point x="665" y="708"/>
      <point x="545" y="705"/>
      <point x="541" y="705" type="curve" smooth="yes"/>
      <point x="515" y="705"/>
      <point x="490" y="707"/>
      <point x="481" y="707" type="curve" smooth="yes"/>
      <point x="470" y="707"/>
      <point x="462" y="708"/>
      <point x="456" y="708" type="curve" smooth="yes"/>
      <point x="449" y="708"/>
      <point x="440" y="708"/>
      <point x="440" y="697" type="curve" smooth="yes"/>
      <point x="440" y="694"/>
      <point x="442" y="685"/>
      <point x="451" y="683" type="curve" smooth="yes"/>
      <point x="468" y="679"/>
      <point x="501" y="677"/>
      <point x="501" y="655" type="curve" smooth="yes"/>
      <point x="501" y="607"/>
      <point x="215" y="375"/>
      <point x="204" y="375" type="curve" smooth="yes"/>
      <point x="197" y="375"/>
      <point x="195" y="378"/>
      <point x="195" y="396" type="curve" smooth="yes"/>
      <point x="195" y="417"/>
      <point x="198" y="462"/>
      <point x="198" y="552" type="curve" smooth="yes"/>
      <point x="198" y="591"/>
      <point x="203" y="659"/>
      <point x="229" y="674" type="curve" smooth="yes"/>
      <point x="245" y="683"/>
      <point x="264" y="685"/>
      <point x="264" y="695" type="curve" smooth="yes"/>
      <point x="264" y="707"/>
      <point x="254" y="708"/>
      <point x="247" y="708" type="curve" smooth="yes"/>
      <point x="178" y="708"/>
      <point x="204" y="706"/>
      <point x="161" y="706" type="curve" smooth="yes"/>
      <point x="105" y="706"/>
      <point x="76" y="708"/>
      <point x="48" y="708" type="curve" smooth="yes"/>
      <point x="24" y="708"/>
      <point x="20" y="702"/>
      <point x="20" y="695" type="curve" smooth="yes"/>
    </contour>
  </outline>
</glyph>
<glyph name="M" format="1">
  <advance width="919"/>
  <unicode hex="004D"/>
  <outline>
    <contour>
      <point x="20" y="690"/>
      <point x="20" y="683"/>
      <point x="33" y="680" type="curve" smooth="yes"/>
      <point x="122" y="659"/>
      <point x="137" y="618"/>
      <point x="137" y="489" type="curve" smooth="yes"/>
      <point x="137" y="397"/>
      <point x="125" y="120"/>
      <point x="118" y="90" type="curve" smooth="yes"/>
      <point x="96" y="1"/>
      <point x="42" y="41"/>
      <point x="42" y="14" type="curve" smooth="yes"/>
      <point x="42" y="-1"/>
      <point x="50" y="-2"/>
      <point x="63" y="-2" type="curve" smooth="yes"/>
      <point x="107" y="-2"/>
      <point x="133" y="1"/>
      <point x="145" y="1" type="curve" smooth="yes"/>
      <point x="159" y="1"/>
      <point x="215" y="-3"/>
      <point x="249" y="-3" type="curve" smooth="yes"/>
      <point x="260" y="-3"/>
      <point x="264" y="-1"/>
      <point x="264" y="15" type="curve" smooth="yes"/>
      <point x="264" y="20"/>
      <point x="256" y="26"/>
      <point x="250" y="26" type="curve"/>
      <point x="174" y="34"/>
      <point x="173" y="87"/>
      <point x="173" y="140" type="curve" smooth="yes"/>
      <point x="173" y="185" type="line" smooth="yes"/>
      <point x="173" y="261"/>
      <point x="180" y="303"/>
      <point x="182" y="449" type="curve" smooth="yes"/>
      <point x="182" y="479"/>
      <point x="185" y="489"/>
      <point x="190" y="489" type="curve" smooth="yes"/>
      <point x="198" y="489"/>
      <point x="196" y="488"/>
      <point x="384" y="106" type="curve" smooth="yes"/>
      <point x="413" y="47"/>
      <point x="418" y="12"/>
      <point x="438" y="12" type="curve" smooth="yes"/>
      <point x="450" y="12"/>
      <point x="445" y="13"/>
      <point x="521" y="168" type="curve" smooth="yes"/>
      <point x="660" y="449" type="line" smooth="yes"/>
      <point x="678" y="485"/>
      <point x="690" y="512"/>
      <point x="699" y="512" type="curve" smooth="yes"/>
      <point x="704" y="512"/>
      <point x="708" y="497"/>
      <point x="708" y="469" type="curve" smooth="yes"/>
      <point x="708" y="466"/>
      <point x="722" y="252"/>
      <point x="722" y="139" type="curve" smooth="yes"/>
      <point x="722" y="109"/>
      <point x="720" y="85"/>
      <point x="718" y="75" type="curve" smooth="yes"/>
      <point x="702" y="7"/>
      <point x="653" y="39"/>
      <point x="653" y="10" type="curve" smooth="yes"/>
      <point x="653" y="4"/>
      <point x="655" y="-4"/>
      <point x="671" y="-4" type="curve" smooth="yes"/>
      <point x="707" y="-4"/>
      <point x="723" y="1"/>
      <point x="775" y="1" type="curve" smooth="yes"/>
      <point x="808" y="1"/>
      <point x="823" y="-3"/>
      <point x="877" y="-3" type="curve" smooth="yes"/>
      <point x="894" y="-3"/>
      <point x="899" y="-3"/>
      <point x="899" y="13" type="curve" smooth="yes"/>
      <point x="899" y="18"/>
      <point x="891" y="27"/>
      <point x="881" y="27" type="curve" smooth="yes"/>
      <point x="816" y="27"/>
      <point x="798" y="44"/>
      <point x="798" y="182" type="curve" smooth="yes"/>
      <point x="798" y="274"/>
      <point x="786" y="329"/>
      <point x="786" y="564" type="curve" smooth="yes"/>
      <point x="786" y="651"/>
      <point x="800" y="669"/>
      <point x="831" y="673" type="curve" smooth="yes"/>
      <point x="859" y="677"/>
      <point x="864" y="683"/>
      <point x="864" y="695" type="curve" smooth="yes"/>
      <point x="864" y="708"/>
      <point x="854" y="708"/>
      <point x="847" y="708" type="curve" smooth="yes"/>
      <point x="784" y="708"/>
      <point x="804" y="710"/>
      <point x="761" y="710" type="curve" smooth="yes"/>
      <point x="726" y="710"/>
      <point x="730" y="696"/>
      <point x="723" y="683" type="curve" smooth="yes"/>
      <point x="717" y="671"/>
      <point x="726" y="679"/>
      <point x="620" y="458" type="curve" smooth="yes"/>
      <point x="491" y="192" type="line" smooth="yes"/>
      <point x="480" y="169"/>
      <point x="469" y="137"/>
      <point x="458" y="137" type="curve" smooth="yes"/>
      <point x="444" y="137"/>
      <point x="284" y="490"/>
      <point x="190" y="694" type="curve"/>
      <point x="187" y="702"/>
      <point x="178" y="708"/>
      <point x="166" y="708" type="curve" smooth="yes"/>
      <point x="147" y="708"/>
      <point x="118" y="706"/>
      <point x="91" y="706" type="curve" smooth="yes"/>
      <point x="82" y="706"/>
      <point x="49" y="710"/>
      <point x="38" y="710" type="curve" smooth="yes"/>
      <point x="23" y="710"/>
      <point x="20" y="702"/>
      <point x="20" y="695" type="curve" smooth="yes"/>
    </contour>
  </outline>
</glyph>
<glyph name="O" format="1">
  <advance width="853"/>
  <unicode hex="004F"/>
  <outline>
    <contour>
      <point x="44" y="159"/>
      <point x="169" y="-16"/>
      <point x="417" y="-16" type="curve" smooth="yes"/>
      <point x="636" y="-16"/>
      <point x="809" y="111"/>
      <point x="809" y="392" type="curve" smooth="yes"/>
      <point x="809" y="494"/>
      <point x="733" y="722"/>
      <point x="431" y="722" type="curve" smooth="yes"/>
      <point x="176" y="722"/>
      <point x="44" y="554"/>
      <point x="44" y="339" type="curve" smooth="yes"/>
    </contour>
    <contour>
      <point x="132" y="594"/>
      <point x="263" y="682"/>
      <point x="397" y="682" type="curve" smooth="yes"/>
      <point x="573" y="682"/>
      <point x="727" y="552"/>
      <point x="727" y="300" type="curve" smooth="yes"/>
      <point x="727" y="116"/>
      <point x="560" y="28"/>
      <point x="449" y="28" type="curve" smooth="yes"/>
      <point x="223" y="28"/>
      <point x="132" y="263"/>
      <point x="132" y="390" type="curve" smooth="yes"/>
    </contour>
  </outline>
</glyph>
<glyph name="P" format="1">
  <advance width="564"/>
  <unicode hex="0050"/>
  <outline>
    <contour>
      <point x="20" y="684"/>
      <point x="29" y="681"/>
      <point x="40" y="681" type="curve" smooth="yes"/>
      <point x="99" y="681"/>
      <point x="113" y="625"/>
      <point x="113" y="601" type="curve" smooth="yes"/>
      <point x="113" y="575"/>
      <point x="114" y="536"/>
      <point x="114" y="431" type="curve" smooth="yes"/>
      <point x="114" y="371"/>
      <point x="109" y="107"/>
      <point x="99" y="78" type="curve" smooth="yes"/>
      <point x="83" y="31"/>
      <point x="78" y="38"/>
      <point x="64" y="34" type="curve" smooth="yes"/>
      <point x="41" y="28"/>
      <point x="26" y="28"/>
      <point x="26" y="5" type="curve" smooth="yes"/>
      <point x="26" y="-6"/>
      <point x="46" y="-6"/>
      <point x="57" y="-6" type="curve" smooth="yes"/>
      <point x="101" y="-6"/>
      <point x="125" y="-2"/>
      <point x="150" y="-2" type="curve" smooth="yes"/>
      <point x="165" y="-2"/>
      <point x="253" y="-7"/>
      <point x="293" y="-7" type="curve" smooth="yes"/>
      <point x="304" y="-7"/>
      <point x="316" y="-4"/>
      <point x="316" y="10" type="curve" smooth="yes"/>
      <point x="316" y="45"/>
      <point x="268" y="19"/>
      <point x="233" y="41" type="curve" smooth="yes"/>
      <point x="210" y="56"/>
      <point x="192" y="87"/>
      <point x="192" y="156" type="curve" smooth="yes"/>
      <point x="192" y="468"/>
      <point x="194" y="174"/>
      <point x="194" y="569" type="curve" smooth="yes"/>
      <point x="194" y="659"/>
      <point x="208" y="671"/>
      <point x="247" y="671" type="curve" smooth="yes"/>
      <point x="384" y="671"/>
      <point x="450" y="567"/>
      <point x="450" y="489" type="curve" smooth="yes"/>
      <point x="450" y="377"/>
      <point x="337" y="349"/>
      <point x="283" y="349" type="curve" smooth="yes"/>
      <point x="257" y="349"/>
      <point x="246" y="357"/>
      <point x="232" y="357" type="curve" smooth="yes"/>
      <point x="225" y="357"/>
      <point x="219" y="353"/>
      <point x="219" y="342" type="curve" smooth="yes"/>
      <point x="219" y="331"/>
      <point x="275" y="319"/>
      <point x="317" y="319" type="curve" smooth="yes"/>
      <point x="370" y="319"/>
      <point x="535" y="354"/>
      <point x="535" y="527" type="curve" smooth="yes"/>
      <point x="535" y="653"/>
      <point x="419" y="711"/>
      <point x="305" y="711" type="curve" smooth="yes"/>
      <point x="270" y="711"/>
      <point x="183" y="708"/>
      <point x="140" y="708" type="curve" smooth="yes"/>
      <point x="122" y="708"/>
      <point x="91" y="711"/>
      <point x="80" y="711" type="curve" smooth="yes"/>
      <point x="50" y="711"/>
      <point x="53" y="710"/>
      <point x="43" y="710" type="curve" smooth="yes"/>
      <point x="27" y="710"/>
      <point x="20" y="702"/>
      <point x="20" y="694" type="curve" smooth="yes"/>
    </contour>
  </outline>
</glyph>
<glyph name="Q" format="1">
  <advance width="839"/>
  <unicode hex="0051"/>
  <outline>
    <contour>
      <point x="45" y="234"/>
      <point x="89" y="139"/>
      <point x="174" y="78" type="curve" smooth="yes"/>
      <point x="186" y="70"/>
      <point x="196" y="62"/>
      <point x="196" y="59" type="curve" smooth="yes"/>
      <point x="196" y="55"/>
      <point x="185" y="49"/>
      <point x="174" y="41" type="curve" smooth="yes"/>
      <point x="146" y="21"/>
      <point x="110" y="-34"/>
      <point x="110" y="-98" type="curve" smooth="yes"/>
      <point x="110" y="-119"/>
      <point x="121" y="-140"/>
      <point x="134" y="-140" type="curve" smooth="yes"/>
      <point x="149" y="-140"/>
      <point x="152" y="-128"/>
      <point x="152" y="-114" type="curve" smooth="yes"/>
      <point x="152" y="-96" type="line" smooth="yes"/>
      <point x="152" y="-49"/>
      <point x="175" y="10"/>
      <point x="242" y="10" type="curve" smooth="yes"/>
      <point x="318" y="10"/>
      <point x="618" y="-194"/>
      <point x="765" y="-194" type="curve" smooth="yes"/>
      <point x="851" y="-194"/>
      <point x="939" y="-154"/>
      <point x="939" y="-106" type="curve" smooth="yes"/>
      <point x="939" y="-103"/>
      <point x="934" y="-94"/>
      <point x="929" y="-94" type="curve" smooth="yes"/>
      <point x="901" y="-94"/>
      <point x="902" y="-127"/>
      <point x="836" y="-127" type="curve" smooth="yes"/>
      <point x="754" y="-127"/>
      <point x="609" y="-58"/>
      <point x="529" y="-22" type="curve" smooth="yes"/>
      <point x="517" y="-17"/>
      <point x="510" y="-9"/>
      <point x="510" y="-3" type="curve" smooth="yes"/>
      <point x="510" y="1"/>
      <point x="521" y="3"/>
      <point x="581" y="20" type="curve" smooth="yes"/>
      <point x="718" y="57"/>
      <point x="795" y="229"/>
      <point x="795" y="367" type="curve" smooth="yes"/>
      <point x="795" y="476"/>
      <point x="724" y="722"/>
      <point x="432" y="722" type="curve" smooth="yes"/>
      <point x="152" y="722"/>
      <point x="45" y="550"/>
      <point x="45" y="339" type="curve" smooth="yes"/>
    </contour>
    <contour>
      <point x="136" y="594"/>
      <point x="264" y="682"/>
      <point x="398" y="682" type="curve" smooth="yes"/>
      <point x="574" y="682"/>
      <point x="717" y="515"/>
      <point x="717" y="300" type="curve" smooth="yes"/>
      <point x="717" y="177"/>
      <point x="636" y="89"/>
      <point x="592" y="66" type="curve" smooth="yes"/>
      <point x="557" y="48"/>
      <point x="505" y="28"/>
      <point x="448" y="28" type="curve" smooth="yes"/>
      <point x="383" y="28"/>
      <point x="266" y="74"/>
      <point x="210" y="152" type="curve" smooth="yes"/>
      <point x="160" y="221"/>
      <point x="136" y="310"/>
      <point x="136" y="390" type="curve" smooth="yes"/>
    </contour>
  </outline>
</glyph>
<glyph name="V" format="1">
  <advance width="807"/>
  <unicode hex="0056"/>
  <outline>
    <contour>
      <point x="20" y="661"/>
      <point x="63" y="699"/>
      <point x="113" y="643" type="curve" smooth="yes"/>
      <point x="141" y="611"/>
      <point x="141" y="579"/>
      <point x="283" y="271" type="curve" smooth="yes"/>
      <point x="328" y="173"/>
      <point x="354" y="118"/>
      <point x="386" y="39" type="curve" smooth="yes"/>
      <point x="411" y="-24"/>
      <point x="425" y="-30"/>
      <point x="431" y="-30" type="curve" smooth="yes"/>
      <point x="442" y="-30"/>
      <point x="436" y="-29"/>
      <point x="500" y="117" type="curve" smooth="yes"/>
      <point x="723" y="625" type="line" smooth="yes"/>
      <point x="750" y="687"/>
      <point x="787" y="675"/>
      <point x="787" y="697" type="curve" smooth="yes"/>
      <point x="787" y="709"/>
      <point x="779" y="711"/>
      <point x="768" y="711" type="curve" smooth="yes"/>
      <point x="719" y="711"/>
      <point x="717" y="709"/>
      <point x="679" y="709" type="curve" smooth="yes"/>
      <point x="644" y="709"/>
      <point x="628" y="710"/>
      <point x="616" y="710" type="curve" smooth="yes"/>
      <point x="598" y="710"/>
      <point x="595" y="709"/>
      <point x="595" y="700" type="curve" smooth="yes"/>
      <point x="595" y="676"/>
      <point x="667" y="696"/>
      <point x="667" y="649" type="curve" smooth="yes"/>
      <point x="667" y="596"/>
      <point x="465" y="119"/>
      <point x="455" y="119" type="curve" smooth="yes"/>
      <point x="442" y="119"/>
      <point x="388" y="236"/>
      <point x="355" y="312" type="curve" smooth="yes"/>
      <point x="247" y="557"/>
      <point x="215" y="608"/>
      <point x="215" y="650" type="curve" smooth="yes"/>
      <point x="215" y="683"/>
      <point x="256" y="682"/>
      <point x="256" y="697" type="curve" smooth="yes"/>
      <point x="256" y="707"/>
      <point x="253" y="708"/>
      <point x="223" y="708" type="curve" smooth="yes"/>
      <point x="202" y="708"/>
      <point x="176" y="706"/>
      <point x="158" y="706" type="curve" smooth="yes"/>
      <point x="92" y="706"/>
      <point x="70" y="710"/>
      <point x="48" y="710" type="curve" smooth="yes"/>
      <point x="37" y="710"/>
      <point x="20" y="709"/>
      <point x="20" y="696" type="curve" smooth="yes"/>
    </contour>
  </outline>
</glyph>
<glyph name="X" format="1">
  <advance width="751"/>
  <unicode hex="0058"/>
  <outline>
    <contour>
      <point x="20" y="684"/>
      <point x="47" y="684"/>
      <point x="60" y="681" type="curve" smooth="yes"/>
      <point x="106" y="671"/>
      <point x="164" y="598"/>
      <point x="196" y="551" type="curve" smooth="yes"/>
      <point x="298" y="405"/>
      <point x="332" y="365"/>
      <point x="332" y="356" type="curve" smooth="yes"/>
      <point x="332" y="349"/>
      <point x="299" y="310"/>
      <point x="258" y="253" type="curve" smooth="yes"/>
      <point x="206" y="180"/>
      <point x="146" y="91"/>
      <point x="96" y="51" type="curve" smooth="yes"/>
      <point x="57" y="20"/>
      <point x="25" y="39"/>
      <point x="25" y="18" type="curve" smooth="yes"/>
      <point x="25" y="0"/>
      <point x="36" y="-1"/>
      <point x="54" y="-1" type="curve" smooth="yes"/>
      <point x="75" y="-1"/>
      <point x="116" y="3"/>
      <point x="134" y="3" type="curve" smooth="yes"/>
      <point x="143" y="3"/>
      <point x="204" y="0"/>
      <point x="222" y="0" type="curve" smooth="yes"/>
      <point x="243" y="0"/>
      <point x="253" y="1"/>
      <point x="253" y="11" type="curve" smooth="yes"/>
      <point x="253" y="24"/>
      <point x="248" y="28"/>
      <point x="241" y="28" type="curve" smooth="yes"/>
      <point x="190" y="28"/>
      <point x="187" y="46"/>
      <point x="187" y="55" type="curve" smooth="yes"/>
      <point x="187" y="100"/>
      <point x="270" y="189"/>
      <point x="334" y="289" type="curve" smooth="yes"/>
      <point x="345" y="307"/>
      <point x="351" y="320"/>
      <point x="355" y="320" type="curve" smooth="yes"/>
      <point x="358" y="320"/>
      <point x="366" y="313"/>
      <point x="372" y="303" type="curve"/>
      <point x="468" y="159"/>
      <point x="528" y="80"/>
      <point x="528" y="56" type="curve" smooth="yes"/>
      <point x="528" y="21"/>
      <point x="477" y="39"/>
      <point x="477" y="13" type="curve" smooth="yes"/>
      <point x="477" y="2"/>
      <point x="482" y="0"/>
      <point x="490" y="0" type="curve" smooth="yes"/>
      <point x="502" y="0"/>
      <point x="527" y="6"/>
      <point x="592" y="6" type="curve" smooth="yes"/>
      <point x="603" y="6"/>
      <point x="667" y="-1"/>
      <point x="699" y="-1" type="curve" smooth="yes"/>
      <point x="729" y="-1"/>
      <point x="731" y="5"/>
      <point x="731" y="13" type="curve" smooth="yes"/>
      <point x="731" y="32"/>
      <point x="677" y="32"/>
      <point x="668" y="40" type="curve"/>
      <point x="640" y="63"/>
      <point x="571" y="157"/>
      <point x="538" y="205" type="curve" smooth="yes"/>
      <point x="425" y="369"/>
      <point x="412" y="380"/>
      <point x="412" y="392" type="curve" smooth="yes"/>
      <point x="412" y="396"/>
      <point x="505" y="519"/>
      <point x="567" y="602" type="curve" smooth="yes"/>
      <point x="588" y="630"/>
      <point x="603" y="649"/>
      <point x="620" y="661" type="curve" smooth="yes"/>
      <point x="663" y="691"/>
      <point x="695" y="682"/>
      <point x="695" y="704" type="curve" smooth="yes"/>
      <point x="695" y="712"/>
      <point x="687" y="714"/>
      <point x="679" y="714" type="curve" smooth="yes"/>
      <point x="656" y="714"/>
      <point x="679" y="710"/>
      <point x="585" y="710" type="curve" smooth="yes"/>
      <point x="550" y="710"/>
      <point x="547" y="714"/>
      <point x="504" y="714" type="curve" smooth="yes"/>
      <point x="494" y="714"/>
      <point x="489" y="712"/>
      <point x="489" y="704" type="curve" smooth="yes"/>
      <point x="489" y="677"/>
      <point x="542" y="702"/>
      <point x="542" y="655" type="curve" smooth="yes"/>
      <point x="542" y="632"/>
      <point x="451" y="510"/>
      <point x="410" y="450" type="curve" smooth="yes"/>
      <point x="399" y="434"/>
      <point x="394" y="428"/>
      <point x="387" y="428" type="curve" smooth="yes"/>
      <point x="376" y="428"/>
      <point x="349" y="473"/>
      <point x="287" y="567" type="curve" smooth="yes"/>
      <point x="269" y="593"/>
      <point x="233" y="643"/>
      <point x="233" y="664" type="curve" smooth="yes"/>
      <point x="233" y="697"/>
      <point x="278" y="675"/>
      <point x="278" y="703" type="curve" smooth="yes"/>
      <point x="278" y="712"/>
      <point x="270" y="712"/>
      <point x="256" y="712" type="curve" smooth="yes"/>
      <point x="248" y="712"/>
      <point x="162" y="710"/>
      <point x="151" y="710" type="curve" smooth="yes"/>
      <point x="92" y="710"/>
      <point x="104" y="714"/>
      <point x="62" y="714" type="curve" smooth="yes"/>
      <point x="24" y="714"/>
      <point x="20" y="712"/>
      <point x="20" y="701" type="curve" smooth="yes"/>
    </contour>
  </outline>
</glyph>
<glyph name="bracketleft" format="1">
  <advance width="287"/>
  <unicode hex="005B"/>
  <outline>
    <contour>
      <point x="78" y="-143" type="line" smooth="yes"/>
      <point x="78" y="-198"/>
      <point x="81" y="-204"/>
      <point x="111" y="-204" type="curve" smooth="yes"/>
      <point x="201" y="-204" type="line" smooth="yes"/>
      <point x="239" y="-204"/>
      <point x="253" y="-202"/>
      <point x="253" y="-180" type="curve" smooth="yes"/>
      <point x="253" y="-163"/>
      <point x="247" y="-158"/>
      <point x="229" y="-158" type="curve" smooth="yes"/>
      <point x="220" y="-158"/>
      <point x="157" y="-159"/>
      <point x="139" y="-159" type="curve" smooth="yes"/>
      <point x="129" y="-159"/>
      <point x="127" y="-144"/>
      <point x="127" y="-132" type="curve"/>
      <point x="126" y="-82"/>
      <point x="126" y="-27"/>
      <point x="126" y="15" type="curve" smooth="yes"/>
      <point x="126" y="165"/>
      <point x="131" y="402"/>
      <point x="131" y="559" type="curve" smooth="yes"/>
      <point x="131" y="652"/>
      <point x="129" y="698"/>
      <point x="129" y="714" type="curve" smooth="yes"/>
      <point x="129" y="722"/>
      <point x="132" y="722"/>
      <point x="137" y="722" type="curve" smooth="yes"/>
      <point x="153" y="722" type="line" smooth="yes"/>
      <point x="162" y="722"/>
      <point x="226" y="723"/>
      <point x="245" y="723" type="curve" smooth="yes"/>
      <point x="253" y="723"/>
      <point x="257" y="732"/>
      <point x="257" y="743" type="curve" smooth="yes"/>
      <point x="257" y="754"/>
      <point x="250" y="764"/>
      <point x="241" y="764" type="curve" smooth="yes"/>
      <point x="234" y="764"/>
      <point x="228" y="763"/>
      <point x="175" y="763" type="curve" smooth="yes"/>
      <point x="132" y="763" type="line" smooth="yes"/>
      <point x="96" y="763"/>
      <point x="83" y="761"/>
      <point x="83" y="738" type="curve" smooth="yes"/>
      <point x="83" y="721"/>
      <point x="84" y="671"/>
      <point x="84" y="570" type="curve" smooth="yes"/>
      <point x="84" y="372"/>
      <point x="78" y="77"/>
      <point x="78" y="-82" type="curve" smooth="yes"/>
    </contour>
  </outline>
</glyph>
<glyph name="backslash" format="1">
  <advance width="416"/>
  <unicode hex="005C"/>
  <outline>
    <contour>
      <point x="20" y="714"/>
      <point x="29" y="692"/>
      <point x="34" y="679" type="curve" smooth="yes"/>
      <point x="338" y="-152" type="line" smooth="yes"/>
      <point x="349" y="-181"/>
      <point x="354" y="-183"/>
      <point x="363" y="-183" type="curve" smooth="yes"/>
      <point x="374" y="-183"/>
      <point x="396" y="-183"/>
      <point x="396" y="-167" type="curve" smooth="yes"/>
      <point x="396" y="-158"/>
      <point x="385" y="-136"/>
      <point x="377" y="-113" type="curve"/>
      <point x="377" y="-113"/>
      <point x="72" y="710"/>
      <point x="70" y="717" type="curve"/>
      <point x="65" y="732"/>
      <point x="59" y="735"/>
      <point x="41" y="735" type="curve" smooth="yes"/>
      <point x="32" y="735"/>
      <point x="20" y="733"/>
      <point x="20" y="723" type="curve" smooth="yes"/>
    </contour>
  </outline>
</glyph>
<glyph name="bracketright" format="1">
  <advance width="287"/>
  <unicode hex="005D"/>
  <outline>
    <contour>
      <point x="29" y="-195"/>
      <point x="37" y="-204"/>
      <point x="46" y="-204" type="curve" smooth="yes"/>
      <point x="112" y="-204" type="line"/>
      <point x="155" y="-204" type="line" smooth="yes"/>
      <point x="191" y="-204"/>
      <point x="204" y="-201"/>
      <point x="204" y="-178" type="curve" smooth="yes"/>
      <point x="204" y="-161"/>
      <point x="203" y="-111"/>
      <point x="203" y="-10" type="curve" smooth="yes"/>
      <point x="203" y="188"/>
      <point x="208" y="483"/>
      <point x="208" y="642" type="curve" smooth="yes"/>
      <point x="208" y="703" type="line" smooth="yes"/>
      <point x="208" y="758"/>
      <point x="205" y="764"/>
      <point x="175" y="764" type="curve" smooth="yes"/>
      <point x="62" y="764"/>
      <point x="100" y="763"/>
      <point x="50" y="762" type="curve" smooth="yes"/>
      <point x="37" y="762"/>
      <point x="33" y="750"/>
      <point x="33" y="739" type="curve" smooth="yes"/>
      <point x="33" y="722"/>
      <point x="39" y="718"/>
      <point x="57" y="718" type="curve" smooth="yes"/>
      <point x="147" y="718" type="line" smooth="yes"/>
      <point x="157" y="718"/>
      <point x="159" y="703"/>
      <point x="159" y="691" type="curve" smooth="yes"/>
      <point x="160" y="641"/>
      <point x="160" y="587"/>
      <point x="160" y="545" type="curve" smooth="yes"/>
      <point x="160" y="395"/>
      <point x="156" y="158"/>
      <point x="156" y="1" type="curve" smooth="yes"/>
      <point x="156" y="-92"/>
      <point x="157" y="-138"/>
      <point x="157" y="-154" type="curve" smooth="yes"/>
      <point x="157" y="-162"/>
      <point x="155" y="-163"/>
      <point x="150" y="-163" type="curve" smooth="yes"/>
      <point x="134" y="-163" type="line"/>
      <point x="42" y="-163" type="line" smooth="yes"/>
      <point x="34" y="-163"/>
      <point x="29" y="-173"/>
      <point x="29" y="-184" type="curve" smooth="yes"/>
    </contour>
  </outline>
</glyph>
<glyph name="asciicircum" format="1">
  <advance width="333"/>
  <unicode hex="005E"/>
  <outline>
    <contour>
      <point x="29" y="324"/>
      <point x="39" y="322"/>
      <point x="49" y="322" type="curve" smooth="yes"/>
      <point x="63" y="322" type="line" smooth="yes"/>
      <point x="80" y="322"/>
      <point x="86" y="339"/>
      <point x="94" y="354" type="curve" smooth="yes"/>
      <point x="139" y="437"/>
      <point x="152" y="468"/>
      <point x="162" y="468" type="curve" smooth="yes"/>
      <point x="171" y="468"/>
      <point x="185" y="437"/>
      <point x="230" y="354" type="curve" smooth="yes"/>
      <point x="238" y="339"/>
      <point x="243" y="321"/>
      <point x="260" y="321" type="curve" smooth="yes"/>
      <point x="275" y="321" type="line" smooth="yes"/>
      <point x="284" y="321"/>
      <point x="293" y="322"/>
      <point x="293" y="329" type="curve" smooth="yes"/>
      <point x="293" y="334"/>
      <point x="286" y="350"/>
      <point x="282" y="356" type="curve"/>
      <point x="196" y="501"/>
      <point x="190" y="521"/>
      <point x="162" y="521" type="curve" smooth="yes"/>
      <point x="135" y="521"/>
      <point x="129" y="502"/>
      <point x="42" y="356" type="curve"/>
      <point x="38" y="350"/>
      <point x="29" y="336"/>
      <point x="29" y="331" type="curve" smooth="yes"/>
    </contour>
  </outline>
</glyph>
<glyph name="underscore" format="1">
  <advance width="213"/>
  <unicode hex="005F"/>
  <outline>
    <contour>
      <point x="0" y="-55"/>
      <point x="0" y="-62"/>
      <point x="18" y="-62" type="curve" smooth="yes"/>
      <point x="192" y="-62" type="line" smooth="yes"/>
      <point x="213" y="-62"/>
      <point x="213" y="-55"/>
      <point x="213" y="-38" type="curve" smooth="yes"/>
      <point x="213" y="-24"/>
      <point x="213" y="-17"/>
      <point x="197" y="-17" type="curve" smooth="yes"/>
      <point x="19" y="-17" type="line" smooth="yes"/>
      <point x="1" y="-17"/>
      <point x="0" y="-25"/>
      <point x="0" y="-38" type="curve" smooth="yes"/>
    </contour>
  </outline>
</glyph>
<glyph name="grave" format="1">
  <advance width="439"/>
  <unicode hex="0060"/>
  <outline>
    <contour>
      <point x="109" y="615"/>
      <point x="166" y="554"/>
      <point x="207" y="511" type="curve" smooth="yes"/>
      <point x="222" y="495"/>
      <point x="238" y="480"/>
      <point x="246" y="480" type="curve" smooth="yes"/>
      <point x="252" y="480"/>
      <point x="258" y="485"/>
      <point x="258" y="491" type="curve" smooth="yes"/>
      <point x="258" y="505"/>
      <point x="234" y="518"/>
      <point x="182" y="643" type="curve" smooth="yes"/>
      <point x="175" y="659"/>
      <point x="166" y="662"/>
      <point x="162" y="662" type="curve" smooth="yes"/>
      <point x="158" y="662"/>
      <point x="109" y="657"/>
      <point x="109" y="636" type="curve" smooth="yes"/>
    </contour>
  </outline>
</glyph>
<glyph name="b" format="1">
  <advance width="547"/>
  <unicode hex="0062"/>
  <outline>
    <contour>
      <point x="12" y="682"/>
      <point x="20" y="680"/>
      <point x="28" y="680" type="curve" smooth="yes"/>
      <point x="38" y="680" type="line" smooth="yes"/>
      <point x="75" y="680"/>
      <point x="83" y="632"/>
      <point x="83" y="589" type="curve" smooth="yes"/>
      <point x="83" y="342" type="line" smooth="yes"/>
      <point x="83" y="229"/>
      <point x="74" y="154"/>
      <point x="74" y="78" type="curve" smooth="yes"/>
      <point x="74" y="72"/>
      <point x="70" y="20"/>
      <point x="70" y="-4" type="curve" smooth="yes"/>
      <point x="70" y="-13"/>
      <point x="72" y="-17"/>
      <point x="82" y="-17" type="curve" smooth="yes"/>
      <point x="107" y="-17"/>
      <point x="120" y="47"/>
      <point x="131" y="47" type="curve" smooth="yes"/>
      <point x="138" y="47"/>
      <point x="185" y="-11"/>
      <point x="278" y="-11" type="curve" smooth="yes"/>
      <point x="334" y="-11"/>
      <point x="380" y="5"/>
      <point x="417" y="33" type="curve" smooth="yes"/>
      <point x="479" y="80"/>
      <point x="508" y="182"/>
      <point x="508" y="235" type="curve" smooth="yes"/>
      <point x="508" y="336"/>
      <point x="446" y="442"/>
      <point x="320" y="442" type="curve" smooth="yes"/>
      <point x="178" y="442"/>
      <point x="178" y="375"/>
      <point x="162" y="375" type="curve" smooth="yes"/>
      <point x="157" y="375"/>
      <point x="155" y="385"/>
      <point x="155" y="411" type="curve" smooth="yes"/>
      <point x="155" y="743"/>
      <point x="156" y="702"/>
      <point x="156" y="738" type="curve" smooth="yes"/>
      <point x="156" y="749"/>
      <point x="147" y="756"/>
      <point x="141" y="756" type="curve" smooth="yes"/>
      <point x="131" y="756"/>
      <point x="98" y="738"/>
      <point x="77" y="729" type="curve" smooth="yes"/>
      <point x="58" y="721"/>
      <point x="12" y="712"/>
      <point x="12" y="691" type="curve" smooth="yes"/>
    </contour>
    <contour>
      <point x="155" y="313" type="line" smooth="yes"/>
      <point x="155" y="325"/>
      <point x="158" y="336"/>
      <point x="187" y="360" type="curve" smooth="yes"/>
      <point x="208" y="378"/>
      <point x="238" y="388"/>
      <point x="267" y="388" type="curve" smooth="yes"/>
      <point x="381" y="388"/>
      <point x="443" y="282"/>
      <point x="443" y="185" type="curve" smooth="yes"/>
      <point x="443" y="102"/>
      <point x="398" y="25"/>
      <point x="301" y="25" type="curve" smooth="yes"/>
      <point x="199" y="25"/>
      <point x="155" y="109"/>
      <point x="155" y="132" type="curve" smooth="yes"/>
    </contour>
  </outline>
</glyph>
<glyph name="c" format="1">
  <advance width="452"/>
  <unicode hex="0063"/>
  <outline>
    <contour>
      <point x="39" y="58"/>
      <point x="122" y="-21"/>
      <point x="246" y="-21" type="curve" smooth="yes"/>
      <point x="375" y="-21"/>
      <point x="428" y="64"/>
      <point x="428" y="73" type="curve" smooth="yes"/>
      <point x="428" y="78"/>
      <point x="423" y="83"/>
      <point x="417" y="83" type="curve" smooth="yes"/>
      <point x="404" y="83"/>
      <point x="365" y="31"/>
      <point x="285" y="31" type="curve" smooth="yes"/>
      <point x="188" y="31"/>
      <point x="114" y="122"/>
      <point x="114" y="224" type="curve" smooth="yes"/>
      <point x="114" y="363"/>
      <point x="193" y="390"/>
      <point x="213" y="390" type="curve" smooth="yes"/>
      <point x="266" y="390"/>
      <point x="323" y="357"/>
      <point x="346" y="337" type="curve" smooth="yes"/>
      <point x="363" y="323"/>
      <point x="365" y="305"/>
      <point x="379" y="305" type="curve" smooth="yes"/>
      <point x="387" y="305"/>
      <point x="390" y="326"/>
      <point x="390" y="349" type="curve" smooth="yes"/>
      <point x="390" y="366"/>
      <point x="389" y="384"/>
      <point x="388" y="396" type="curve" smooth="yes"/>
      <point x="386" y="415"/>
      <point x="312" y="429"/>
      <point x="271" y="429" type="curve" smooth="yes"/>
      <point x="129" y="429"/>
      <point x="39" y="314"/>
      <point x="39" y="192" type="curve" smooth="yes"/>
    </contour>
  </outline>
</glyph>
<glyph name="f" format="1">
  <advance width="345"/>
  <unicode hex="0066"/>
  <outline>
    <contour>
      <point x="29" y="379"/>
      <point x="30" y="372"/>
      <point x="51" y="372" type="curve" smooth="yes"/>
      <point x="68" y="372"/>
      <point x="80" y="375"/>
      <point x="91" y="375" type="curve" smooth="yes"/>
      <point x="104" y="375"/>
      <point x="108" y="374"/>
      <point x="108" y="359" type="curve" smooth="yes"/>
      <point x="108" y="171"/>
      <point x="112" y="105"/>
      <point x="112" y="77" type="curve" smooth="yes"/>
      <point x="112" y="16"/>
      <point x="63" y="23"/>
      <point x="63" y="8" type="curve" smooth="yes"/>
      <point x="63" y="-3"/>
      <point x="69" y="-6"/>
      <point x="78" y="-6" type="curve" smooth="yes"/>
      <point x="117" y="-6"/>
      <point x="115" y="-1"/>
      <point x="152" y="-1" type="curve" smooth="yes"/>
      <point x="175" y="-1"/>
      <point x="249" y="-6"/>
      <point x="252" y="-6" type="curve" smooth="yes"/>
      <point x="262" y="-6"/>
      <point x="263" y="0"/>
      <point x="263" y="4" type="curve" smooth="yes"/>
      <point x="263" y="11"/>
      <point x="262" y="19"/>
      <point x="246" y="19" type="curve" smooth="yes"/>
      <point x="184" y="19"/>
      <point x="184" y="72"/>
      <point x="183" y="110" type="curve" smooth="yes"/>
      <point x="182" y="153"/>
      <point x="178" y="290"/>
      <point x="178" y="308" type="curve" smooth="yes"/>
      <point x="178" y="366" type="line" smooth="yes"/>
      <point x="178" y="375"/>
      <point x="185" y="376"/>
      <point x="194" y="376" type="curve" smooth="yes"/>
      <point x="256" y="376"/>
      <point x="225" y="377"/>
      <point x="272" y="377" type="curve" smooth="yes"/>
      <point x="284" y="377"/>
      <point x="293" y="380"/>
      <point x="297" y="386" type="curve"/>
      <point x="302" y="395"/>
      <point x="311" y="407"/>
      <point x="311" y="424" type="curve" smooth="yes"/>
      <point x="311" y="428"/>
      <point x="309" y="432"/>
      <point x="306" y="432" type="curve" smooth="yes"/>
      <point x="300" y="432"/>
      <point x="294" y="424"/>
      <point x="285" y="422" type="curve" smooth="yes"/>
      <point x="264" y="418"/>
      <point x="231" y="414"/>
      <point x="189" y="414" type="curve" smooth="yes"/>
      <point x="179" y="414"/>
      <point x="177" y="422"/>
      <point x="177" y="433" type="curve" smooth="yes"/>
      <point x="177" y="458" type="line" smooth="yes"/>
      <point x="177" y="556"/>
      <point x="198" y="685"/>
      <point x="282" y="685" type="curve" smooth="yes"/>
      <point x="345" y="685"/>
      <point x="341" y="659"/>
      <point x="353" y="659" type="curve" smooth="yes"/>
      <point x="369" y="659"/>
      <point x="370" y="671"/>
      <point x="376" y="691" type="curve"/>
      <point x="379" y="703"/>
      <point x="382" y="713"/>
      <point x="382" y="719" type="curve" smooth="yes"/>
      <point x="382" y="736"/>
      <point x="361" y="747"/>
      <point x="330" y="747" type="curve" smooth="yes"/>
      <point x="258" y="747"/>
      <point x="110" y="644"/>
      <point x="110" y="438" type="curve" smooth="yes"/>
      <point x="110" y="424"/>
      <point x="109" y="415"/>
      <point x="92" y="415" type="curve" smooth="yes"/>
      <point x="71" y="415" type="line" smooth="yes"/>
      <point x="39" y="415"/>
      <point x="29" y="410"/>
      <point x="29" y="385" type="curve" smooth="yes"/>
    </contour>
  </outline>
</glyph>
<glyph name="h" format="1">
  <advance width="587"/>
  <unicode hex="0068"/>
  <outline>
    <contour>
      <point x="20" y="691"/>
      <point x="26" y="687"/>
      <point x="37" y="687" type="curve" smooth="yes"/>
      <point x="40" y="687"/>
      <point x="39" y="686"/>
      <point x="54" y="686" type="curve" smooth="yes"/>
      <point x="96" y="686"/>
      <point x="96" y="665"/>
      <point x="96" y="490" type="curve" smooth="yes"/>
      <point x="96" y="441" type="line"/>
      <point x="92" y="100" type="line" smooth="yes"/>
      <point x="92" y="60"/>
      <point x="87" y="35"/>
      <point x="46" y="23" type="curve" smooth="yes"/>
      <point x="35" y="20"/>
      <point x="34" y="15"/>
      <point x="34" y="10" type="curve" smooth="yes"/>
      <point x="34" y="4"/>
      <point x="33" y="0"/>
      <point x="61" y="0" type="curve" smooth="yes"/>
      <point x="76" y="0"/>
      <point x="118" y="5"/>
      <point x="132" y="5" type="curve" smooth="yes"/>
      <point x="137" y="5"/>
      <point x="238" y="0"/>
      <point x="239" y="0" type="curve" smooth="yes"/>
      <point x="245" y="0"/>
      <point x="250" y="6"/>
      <point x="250" y="12" type="curve" smooth="yes"/>
      <point x="250" y="30"/>
      <point x="220" y="21"/>
      <point x="199" y="30" type="curve" smooth="yes"/>
      <point x="162" y="46"/>
      <point x="159" y="93"/>
      <point x="159" y="141" type="curve" smooth="yes"/>
      <point x="159" y="164" type="line" smooth="yes"/>
      <point x="159" y="310"/>
      <point x="163" y="330"/>
      <point x="187" y="349" type="curve" smooth="yes"/>
      <point x="210" y="367"/>
      <point x="246" y="388"/>
      <point x="284" y="388" type="curve" smooth="yes"/>
      <point x="350" y="388"/>
      <point x="408" y="320"/>
      <point x="408" y="238" type="curve" smooth="yes"/>
      <point x="408" y="72"/>
      <point x="406" y="89"/>
      <point x="406" y="72" type="curve" smooth="yes"/>
      <point x="406" y="4"/>
      <point x="352" y="42"/>
      <point x="352" y="9" type="curve" smooth="yes"/>
      <point x="352" y="1"/>
      <point x="362" y="-1"/>
      <point x="375" y="-1" type="curve" smooth="yes"/>
      <point x="383" y="-1"/>
      <point x="436" y="2"/>
      <point x="452" y="2" type="curve" smooth="yes"/>
      <point x="473" y="2"/>
      <point x="524" y="-3"/>
      <point x="536" y="-3" type="curve" smooth="yes"/>
      <point x="552" y="-3"/>
      <point x="567" y="0"/>
      <point x="567" y="13" type="curve" smooth="yes"/>
      <point x="567" y="25"/>
      <point x="543" y="31"/>
      <point x="513" y="34" type="curve" smooth="yes"/>
      <point x="485" y="37"/>
      <point x="480" y="77"/>
      <point x="480" y="92" type="curve" smooth="yes"/>
      <point x="480" y="237" type="line" smooth="yes"/>
      <point x="480" y="376"/>
      <point x="412" y="434"/>
      <point x="309" y="434" type="curve" smooth="yes"/>
      <point x="226" y="434"/>
      <point x="178" y="360"/>
      <point x="168" y="360" type="curve" smooth="yes"/>
      <point x="162" y="360"/>
      <point x="160" y="367"/>
      <point x="160" y="379" type="curve" smooth="yes"/>
      <point x="160" y="408"/>
      <point x="164" y="408"/>
      <point x="167" y="673" type="curve" smooth="yes"/>
      <point x="167" y="707"/>
      <point x="174" y="721"/>
      <point x="174" y="735" type="curve" smooth="yes"/>
      <point x="174" y="742"/>
      <point x="173" y="758"/>
      <point x="161" y="758" type="curve" smooth="yes"/>
      <point x="149" y="758"/>
      <point x="116" y="742"/>
      <point x="89" y="730" type="curve" smooth="yes"/>
      <point x="62" y="718"/>
      <point x="20" y="716"/>
      <point x="20" y="697" type="curve" smooth="yes"/>
    </contour>
  </outline>
</glyph>
<glyph name="j" format="1">
  <advance width="281"/>
  <unicode hex="006A"/>
  <outline>
    <contour>
      <point x="23" y="-148"/>
      <point x="25" y="-162"/>
      <point x="25" y="-173" type="curve" smooth="yes"/>
      <point x="25" y="-193"/>
      <point x="39" y="-200"/>
      <point x="64" y="-200" type="curve" smooth="yes"/>
      <point x="169" y="-200"/>
      <point x="196" y="-59"/>
      <point x="196" y="35" type="curve" smooth="yes"/>
      <point x="196" y="359" type="line" smooth="yes"/>
      <point x="196" y="371"/>
      <point x="198" y="390"/>
      <point x="198" y="406" type="curve" smooth="yes"/>
      <point x="198" y="417" type="line" smooth="yes"/>
      <point x="198" y="430"/>
      <point x="197" y="440"/>
      <point x="186" y="440" type="curve" smooth="yes"/>
      <point x="178" y="440"/>
      <point x="160" y="429"/>
      <point x="139" y="419" type="curve" smooth="yes"/>
      <point x="80" y="391"/>
      <point x="51" y="396"/>
      <point x="51" y="383" type="curve" smooth="yes"/>
      <point x="51" y="374"/>
      <point x="58" y="373"/>
      <point x="67" y="373" type="curve" smooth="yes"/>
      <point x="125" y="373"/>
      <point x="126" y="336"/>
      <point x="126" y="314" type="curve" smooth="yes"/>
      <point x="126" y="10" type="line" smooth="yes"/>
      <point x="126" y="-117"/>
      <point x="120" y="-151"/>
      <point x="103" y="-151" type="curve" smooth="yes"/>
      <point x="87" y="-151"/>
      <point x="66" y="-108"/>
      <point x="45" y="-108" type="curve" smooth="yes"/>
      <point x="28" y="-108"/>
      <point x="23" y="-120"/>
      <point x="23" y="-137" type="curve" smooth="yes"/>
    </contour>
    <contour>
      <point x="116" y="575"/>
      <point x="138" y="538"/>
      <point x="167" y="538" type="curve" smooth="yes"/>
      <point x="176" y="538"/>
      <point x="211" y="567"/>
      <point x="211" y="591" type="curve" smooth="yes"/>
      <point x="211" y="611"/>
      <point x="186" y="642"/>
      <point x="163" y="642" type="curve" smooth="yes"/>
      <point x="141" y="642"/>
      <point x="116" y="608"/>
      <point x="116" y="591" type="curve" smooth="yes"/>
    </contour>
  </outline>
</glyph>
<glyph name="k" format="1">
  <advance width="545"/>
  <unicode hex="006B"/>
  <outline>
    <contour>
      <point x="0" y="680"/>
      <point x="9" y="678"/>
      <point x="20" y="678" type="curve" smooth="yes"/>
      <point x="28" y="678"/>
      <point x="33" y="679"/>
      <point x="40" y="679" type="curve" smooth="yes"/>
      <point x="59" y="679"/>
      <point x="87" y="671"/>
      <point x="87" y="604" type="curve" smooth="yes"/>
      <point x="86" y="160" type="line" smooth="yes"/>
      <point x="86" y="152"/>
      <point x="85" y="135"/>
      <point x="85" y="116" type="curve" smooth="yes"/>
      <point x="85" y="54"/>
      <point x="82" y="36"/>
      <point x="50" y="24" type="curve"/>
      <point x="43" y="22"/>
      <point x="25" y="20"/>
      <point x="25" y="7" type="curve" smooth="yes"/>
      <point x="25" y="-4"/>
      <point x="36" y="-5"/>
      <point x="49" y="-5" type="curve" smooth="yes"/>
      <point x="92" y="-5"/>
      <point x="93" y="-1"/>
      <point x="122" y="-1" type="curve" smooth="yes"/>
      <point x="154" y="-1"/>
      <point x="209" y="-7"/>
      <point x="219" y="-7" type="curve" smooth="yes"/>
      <point x="223" y="-7"/>
      <point x="250" y="-5"/>
      <point x="250" y="9" type="curve" smooth="yes"/>
      <point x="250" y="28"/>
      <point x="190" y="19"/>
      <point x="175" y="41" type="curve" smooth="yes"/>
      <point x="158" y="65"/>
      <point x="161" y="42"/>
      <point x="157" y="136" type="curve"/>
      <point x="157" y="143"/>
      <point x="156" y="148"/>
      <point x="156" y="153" type="curve" smooth="yes"/>
      <point x="156" y="179"/>
      <point x="175" y="199"/>
      <point x="187" y="199" type="curve" smooth="yes"/>
      <point x="191" y="199"/>
      <point x="195" y="197"/>
      <point x="198" y="193" type="curve"/>
      <point x="230" y="154"/>
      <point x="352" y="-4"/>
      <point x="382" y="-4" type="curve" smooth="yes"/>
      <point x="392" y="-4"/>
      <point x="473" y="-5"/>
      <point x="486" y="-5" type="curve" smooth="yes"/>
      <point x="514" y="-5"/>
      <point x="527" y="-5"/>
      <point x="527" y="12" type="curve" smooth="yes"/>
      <point x="527" y="36"/>
      <point x="485" y="3"/>
      <point x="421" y="59" type="curve" smooth="yes"/>
      <point x="389" y="87"/>
      <point x="337" y="139"/>
      <point x="265" y="227" type="curve"/>
      <point x="259" y="235"/>
      <point x="254" y="243"/>
      <point x="254" y="250" type="curve" smooth="yes"/>
      <point x="254" y="262"/>
      <point x="254" y="260"/>
      <point x="354" y="336" type="curve" smooth="yes"/>
      <point x="392" y="364"/>
      <point x="391" y="365"/>
      <point x="401" y="371" type="curve" smooth="yes"/>
      <point x="461" y="409"/>
      <point x="491" y="394"/>
      <point x="491" y="414" type="curve" smooth="yes"/>
      <point x="491" y="420"/>
      <point x="487" y="423"/>
      <point x="465" y="423" type="curve" smooth="yes"/>
      <point x="442" y="423"/>
      <point x="399" y="420"/>
      <point x="318" y="418" type="curve" smooth="yes"/>
      <point x="310" y="418"/>
      <point x="305" y="419"/>
      <point x="300" y="419" type="curve" smooth="yes"/>
      <point x="291" y="419"/>
      <point x="288" y="415"/>
      <point x="288" y="409" type="curve" smooth="yes"/>
      <point x="288" y="391"/>
      <point x="333" y="394"/>
      <point x="333" y="370" type="curve" smooth="yes"/>
      <point x="333" y="364"/>
      <point x="326" y="349"/>
      <point x="193" y="243" type="curve" smooth="yes"/>
      <point x="180" y="232"/>
      <point x="175" y="220"/>
      <point x="161" y="220" type="curve" smooth="yes"/>
      <point x="158" y="220"/>
      <point x="157" y="241"/>
      <point x="157" y="262" type="curve" smooth="yes"/>
      <point x="157" y="283" type="line" smooth="yes"/>
      <point x="157" y="351"/>
      <point x="160" y="420"/>
      <point x="160" y="488" type="curve" smooth="yes"/>
      <point x="160" y="677"/>
      <point x="169" y="731"/>
      <point x="169" y="741" type="curve" smooth="yes"/>
      <point x="169" y="750"/>
      <point x="166" y="760"/>
      <point x="155" y="760" type="curve" smooth="yes"/>
      <point x="144" y="760"/>
      <point x="130" y="752"/>
      <point x="122" y="747" type="curve" smooth="yes"/>
      <point x="84" y="724"/>
      <point x="101" y="731"/>
      <point x="49" y="715" type="curve" smooth="yes"/>
      <point x="11" y="703"/>
      <point x="0" y="697"/>
      <point x="0" y="689" type="curve" smooth="yes"/>
    </contour>
  </outline>
</glyph>
<glyph name="m" format="1">
  <advance width="827"/>
  <unicode hex="006D"/>
  <outline>
    <contour>
      <point x="31" y="356"/>
      <point x="98" y="400"/>
      <point x="98" y="330" type="curve" smooth="yes"/>
      <point x="98" y="289"/>
      <point x="99" y="247"/>
      <point x="99" y="208" type="curve" smooth="yes"/>
      <point x="99" y="137"/>
      <point x="97" y="77"/>
      <point x="91" y="56" type="curve"/>
      <point x="77" y="13"/>
      <point x="45" y="33"/>
      <point x="45" y="12" type="curve" smooth="yes"/>
      <point x="45" y="5"/>
      <point x="46" y="-3"/>
      <point x="69" y="-3" type="curve" smooth="yes"/>
      <point x="84" y="-3"/>
      <point x="108" y="0"/>
      <point x="148" y="0" type="curve" smooth="yes"/>
      <point x="191" y="0"/>
      <point x="217" y="-3"/>
      <point x="232" y="-3" type="curve" smooth="yes"/>
      <point x="253" y="-3"/>
      <point x="253" y="1"/>
      <point x="253" y="12" type="curve" smooth="yes"/>
      <point x="253" y="35"/>
      <point x="169" y="0"/>
      <point x="169" y="104" type="curve" smooth="yes"/>
      <point x="169" y="292" type="line"/>
      <point x="169" y="306" type="line" smooth="yes"/>
      <point x="169" y="345"/>
      <point x="221" y="379"/>
      <point x="277" y="379" type="curve" smooth="yes"/>
      <point x="342" y="379"/>
      <point x="379" y="331"/>
      <point x="379" y="262" type="curve" smooth="yes"/>
      <point x="379" y="256"/>
      <point x="381" y="262"/>
      <point x="381" y="199" type="curve" smooth="yes"/>
      <point x="381" y="91"/>
      <point x="380" y="104"/>
      <point x="380" y="90" type="curve" smooth="yes"/>
      <point x="380" y="32"/>
      <point x="364" y="30"/>
      <point x="357" y="28" type="curve"/>
      <point x="337" y="20"/>
      <point x="334" y="17"/>
      <point x="334" y="8" type="curve" smooth="yes"/>
      <point x="334" y="-2"/>
      <point x="349" y="-5"/>
      <point x="356" y="-5" type="curve" smooth="yes"/>
      <point x="365" y="-5"/>
      <point x="429" y="0"/>
      <point x="447" y="0" type="curve" smooth="yes"/>
      <point x="476" y="0"/>
      <point x="503" y="-5"/>
      <point x="520" y="-5" type="curve" smooth="yes"/>
      <point x="526" y="-5"/>
      <point x="539" y="-5"/>
      <point x="539" y="6" type="curve" smooth="yes"/>
      <point x="539" y="9"/>
      <point x="536" y="20"/>
      <point x="521" y="22" type="curve" smooth="yes"/>
      <point x="460" y="31"/>
      <point x="452" y="62"/>
      <point x="452" y="117" type="curve" smooth="yes"/>
      <point x="452" y="202" type="line" smooth="yes"/>
      <point x="452" y="304"/>
      <point x="446" y="316"/>
      <point x="446" y="329" type="curve" smooth="yes"/>
      <point x="446" y="338"/>
      <point x="499" y="383"/>
      <point x="549" y="383" type="curve" smooth="yes"/>
      <point x="579" y="383"/>
      <point x="607" y="372"/>
      <point x="624" y="352" type="curve" smooth="yes"/>
      <point x="656" y="313"/>
      <point x="662" y="325"/>
      <point x="662" y="104" type="curve" smooth="yes"/>
      <point x="662" y="88" type="line" smooth="yes"/>
      <point x="662" y="68"/>
      <point x="661" y="50"/>
      <point x="658" y="42" type="curve"/>
      <point x="650" y="23"/>
      <point x="612" y="26"/>
      <point x="612" y="6" type="curve" smooth="yes"/>
      <point x="612" y="-2"/>
      <point x="625" y="-4"/>
      <point x="636" y="-4" type="curve" smooth="yes"/>
      <point x="657" y="-4"/>
      <point x="680" y="0"/>
      <point x="708" y="0" type="curve" smooth="yes"/>
      <point x="728" y="0"/>
      <point x="761" y="-4"/>
      <point x="774" y="-4" type="curve" smooth="yes"/>
      <point x="785" y="-4"/>
      <point x="807" y="-4"/>
      <point x="807" y="11" type="curve" smooth="yes"/>
      <point x="807" y="28"/>
      <point x="777" y="28"/>
      <point x="769" y="30" type="curve"/>
      <point x="743" y="38"/>
      <point x="741" y="68"/>
      <point x="741" y="121" type="curve" smooth="yes"/>
      <point x="741" y="153" type="line" smooth="yes"/>
      <point x="741" y="188"/>
      <point x="740" y="231"/>
      <point x="735" y="280" type="curve" smooth="yes"/>
      <point x="727" y="357"/>
      <point x="680" y="430"/>
      <point x="576" y="430" type="curve" smooth="yes"/>
      <point x="494" y="430"/>
      <point x="446" y="348"/>
      <point x="439" y="348" type="curve" smooth="yes"/>
      <point x="429" y="348"/>
      <point x="419" y="427"/>
      <point x="311" y="427" type="curve" smooth="yes"/>
      <point x="209" y="427"/>
      <point x="183" y="355"/>
      <point x="176" y="355" type="curve" smooth="yes"/>
      <point x="170" y="355"/>
      <point x="170" y="361"/>
      <point x="170" y="367" type="curve" smooth="yes"/>
      <point x="170" y="375"/>
      <point x="175" y="397"/>
      <point x="175" y="409" type="curve" smooth="yes"/>
      <point x="175" y="425"/>
      <point x="172" y="438"/>
      <point x="163" y="438" type="curve" smooth="yes"/>
      <point x="146" y="438"/>
      <point x="140" y="432"/>
      <point x="119" y="423" type="curve" smooth="yes"/>
      <point x="76" y="404"/>
      <point x="31" y="409"/>
      <point x="31" y="388" type="curve" smooth="yes"/>
    </contour>
  </outline>
</glyph>
<glyph name="n" format="1">
  <advance width="591"/>
  <unicode hex="006E"/>
  <outline>
    <contour>
      <point x="31" y="383"/>
      <point x="36" y="379"/>
      <point x="50" y="379" type="curve" smooth="yes"/>
      <point x="60" y="379" type="line" smooth="yes"/>
      <point x="83" y="379"/>
      <point x="103" y="372"/>
      <point x="103" y="325" type="curve" smooth="yes"/>
      <point x="103" y="181" type="line" smooth="yes"/>
      <point x="103" y="152"/>
      <point x="103" y="162"/>
      <point x="101" y="106" type="curve" smooth="yes"/>
      <point x="97" y="-13"/>
      <point x="48" y="41"/>
      <point x="48" y="10" type="curve" smooth="yes"/>
      <point x="48" y="4"/>
      <point x="51" y="0"/>
      <point x="63" y="0" type="curve" smooth="yes"/>
      <point x="72" y="0"/>
      <point x="132" y="4"/>
      <point x="175" y="4" type="curve" smooth="yes"/>
      <point x="221" y="4"/>
      <point x="211" y="0"/>
      <point x="248" y="0" type="curve" smooth="yes"/>
      <point x="257" y="0"/>
      <point x="267" y="2"/>
      <point x="267" y="13" type="curve" smooth="yes"/>
      <point x="267" y="25"/>
      <point x="232" y="28"/>
      <point x="226" y="28" type="curve"/>
      <point x="174" y="32"/>
      <point x="169" y="71"/>
      <point x="169" y="129" type="curve" smooth="yes"/>
      <point x="169" y="167" type="line" smooth="yes"/>
      <point x="169" y="200"/>
      <point x="173" y="311"/>
      <point x="178" y="325" type="curve" smooth="yes"/>
      <point x="182" y="337"/>
      <point x="224" y="386"/>
      <point x="290" y="386" type="curve" smooth="yes"/>
      <point x="353" y="386"/>
      <point x="419" y="341"/>
      <point x="419" y="230" type="curve" smooth="yes"/>
      <point x="419" y="95" type="line" smooth="yes"/>
      <point x="419" y="68"/>
      <point x="417" y="34"/>
      <point x="397" y="28" type="curve"/>
      <point x="395" y="27"/>
      <point x="372" y="27"/>
      <point x="372" y="13" type="curve" smooth="yes"/>
      <point x="372" y="5"/>
      <point x="379" y="0"/>
      <point x="392" y="0" type="curve" smooth="yes"/>
      <point x="404" y="0"/>
      <point x="444" y="4"/>
      <point x="469" y="4" type="curve" smooth="yes"/>
      <point x="491" y="4"/>
      <point x="510" y="-1"/>
      <point x="551" y="-1" type="curve" smooth="yes"/>
      <point x="561" y="-1"/>
      <point x="571" y="1"/>
      <point x="571" y="9" type="curve" smooth="yes"/>
      <point x="571" y="17"/>
      <point x="569" y="21"/>
      <point x="551" y="24" type="curve" smooth="yes"/>
      <point x="494" y="33"/>
      <point x="490" y="51"/>
      <point x="490" y="97" type="curve" smooth="yes"/>
      <point x="490" y="119" type="line" smooth="yes"/>
      <point x="490" y="262"/>
      <point x="489" y="245"/>
      <point x="489" y="262" type="curve" smooth="yes"/>
      <point x="489" y="315"/>
      <point x="459" y="430"/>
      <point x="317" y="430" type="curve" smooth="yes"/>
      <point x="285" y="430"/>
      <point x="254" y="417"/>
      <point x="230" y="402" type="curve" smooth="yes"/>
      <point x="194" y="380"/>
      <point x="190" y="361"/>
      <point x="183" y="361" type="curve" smooth="yes"/>
      <point x="179" y="361"/>
      <point x="178" y="369"/>
      <point x="178" y="387" type="curve" smooth="yes"/>
      <point x="178" y="403"/>
      <point x="180" y="423"/>
      <point x="180" y="430" type="curve" smooth="yes"/>
      <point x="180" y="437"/>
      <point x="178" y="442"/>
      <point x="171" y="442" type="curve" smooth="yes"/>
      <point x="169" y="442" type="line" smooth="yes"/>
      <point x="159" y="442"/>
      <point x="124" y="420"/>
      <point x="80" y="408" type="curve" smooth="yes"/>
      <point x="58" y="402"/>
      <point x="31" y="403"/>
      <point x="31" y="390" type="curve" smooth="yes"/>
    </contour>
  </outline>
</glyph>
<glyph name="o" format="1">
  <advance width="547"/>
  <unicode hex="006F"/>
  <outline>
    <contour>
      <point x="39" y="92"/>
      <point x="115" y="-18"/>
      <point x="268" y="-18" type="curve" smooth="yes"/>
      <point x="388" y="-18"/>
      <point x="508" y="59"/>
      <point x="508" y="209" type="curve" smooth="yes"/>
      <point x="508" y="355"/>
      <point x="392" y="431"/>
      <point x="275" y="431" type="curve" smooth="yes"/>
      <point x="118" y="431"/>
      <point x="39" y="316"/>
      <point x="39" y="203" type="curve" smooth="yes"/>
    </contour>
    <contour>
      <point x="118" y="361"/>
      <point x="193" y="404"/>
      <point x="251" y="404" type="curve" smooth="yes"/>
      <point x="374" y="404"/>
      <point x="433" y="285"/>
      <point x="433" y="179" type="curve" smooth="yes"/>
      <point x="433" y="66"/>
      <point x="369" y="12"/>
      <point x="298" y="12" type="curve" smooth="yes"/>
      <point x="213" y="12"/>
      <point x="118" y="91"/>
      <point x="118" y="237" type="curve" smooth="yes"/>
    </contour>
  </outline>
</glyph>
<glyph name="p" format="1">
  <advance width="555"/>
  <unicode hex="0070"/>
  <outline>
    <contour>
      <point x="31" y="378"/>
      <point x="31" y="374"/>
      <point x="56" y="374" type="curve" smooth="yes"/>
      <point x="101" y="374"/>
      <point x="103" y="336"/>
      <point x="103" y="236" type="curve" smooth="yes"/>
      <point x="103" y="214" type="line" smooth="yes"/>
      <point x="103" y="172"/>
      <point x="100" y="135"/>
      <point x="100" y="-62" type="curve" smooth="yes"/>
      <point x="100" y="-82" type="line" smooth="yes"/>
      <point x="100" y="-202"/>
      <point x="38" y="-158"/>
      <point x="38" y="-189" type="curve" smooth="yes"/>
      <point x="38" y="-196"/>
      <point x="41" y="-199"/>
      <point x="72" y="-199" type="curve" smooth="yes"/>
      <point x="85" y="-199"/>
      <point x="103" y="-196"/>
      <point x="135" y="-196" type="curve" smooth="yes"/>
      <point x="214" y="-196"/>
      <point x="213" y="-200"/>
      <point x="239" y="-200" type="curve" smooth="yes"/>
      <point x="270" y="-200"/>
      <point x="273" y="-191"/>
      <point x="273" y="-188" type="curve" smooth="yes"/>
      <point x="273" y="-156"/>
      <point x="213" y="-191"/>
      <point x="186" y="-149" type="curve" smooth="yes"/>
      <point x="180" y="-139"/>
      <point x="169" y="-124"/>
      <point x="169" y="-102" type="curve" smooth="yes"/>
      <point x="169" y="-89" type="line"/>
      <point x="169" y="21" type="line" smooth="yes"/>
      <point x="169" y="26"/>
      <point x="170" y="29"/>
      <point x="172" y="29" type="curve" smooth="yes"/>
      <point x="187" y="29"/>
      <point x="196" y="-9"/>
      <point x="301" y="-9" type="curve" smooth="yes"/>
      <point x="440" y="-9"/>
      <point x="516" y="119"/>
      <point x="516" y="233" type="curve" smooth="yes"/>
      <point x="516" y="337"/>
      <point x="458" y="434"/>
      <point x="333" y="434" type="curve" smooth="yes"/>
      <point x="235" y="434"/>
      <point x="190" y="365"/>
      <point x="183" y="365" type="curve" smooth="yes"/>
      <point x="182" y="365"/>
      <point x="180" y="368"/>
      <point x="180" y="373" type="curve" smooth="yes"/>
      <point x="180" y="385"/>
      <point x="184" y="396"/>
      <point x="184" y="432" type="curve" smooth="yes"/>
      <point x="184" y="442"/>
      <point x="178" y="445"/>
      <point x="171" y="445" type="curve" smooth="yes"/>
      <point x="165" y="445"/>
      <point x="162" y="442"/>
      <point x="129" y="426" type="curve" smooth="yes"/>
      <point x="59" y="393"/>
      <point x="31" y="397"/>
      <point x="31" y="385" type="curve" smooth="yes"/>
    </contour>
    <contour>
      <point x="169" y="319"/>
      <point x="178" y="332"/>
      <point x="203" y="352" type="curve" smooth="yes"/>
      <point x="224" y="369"/>
      <point x="253" y="384"/>
      <point x="294" y="384" type="curve" smooth="yes"/>
      <point x="396" y="384"/>
      <point x="451" y="282"/>
      <point x="451" y="185" type="curve" smooth="yes"/>
      <point x="451" y="100"/>
      <point x="408" y="21"/>
      <point x="317" y="21" type="curve" smooth="yes"/>
      <point x="262" y="21"/>
      <point x="170" y="44"/>
      <point x="170" y="142" type="curve" smooth="yes"/>
      <point x="170" y="162"/>
      <point x="169" y="172"/>
      <point x="169" y="192" type="curve" smooth="yes"/>
    </contour>
  </outline>
</glyph>
<glyph name="q" format="1">
  <advance width="559"/>
  <unicode hex="0071"/>
  <outline>
    <contour>
      <point x="39" y="143"/>
      <point x="40" y="76"/>
      <point x="112" y="16" type="curve" smooth="yes"/>
      <point x="143" y="-10"/>
      <point x="180" y="-24"/>
      <point x="233" y="-24" type="curve" smooth="yes"/>
      <point x="347" y="-24"/>
      <point x="378" y="57"/>
      <point x="395" y="57" type="curve" smooth="yes"/>
      <point x="399" y="57"/>
      <point x="401" y="52"/>
      <point x="401" y="11" type="curve" smooth="yes"/>
      <point x="401" y="-9"/>
      <point x="399" y="-39"/>
      <point x="399" y="-81" type="curve" smooth="yes"/>
      <point x="399" y="-151"/>
      <point x="396" y="-160"/>
      <point x="387" y="-166" type="curve" smooth="yes"/>
      <point x="372" y="-176"/>
      <point x="336" y="-171"/>
      <point x="336" y="-188" type="curve" smooth="yes"/>
      <point x="336" y="-196"/>
      <point x="339" y="-203"/>
      <point x="360" y="-203" type="curve" smooth="yes"/>
      <point x="371" y="-203"/>
      <point x="370" y="-198"/>
      <point x="458" y="-198" type="curve" smooth="yes"/>
      <point x="500" y="-198"/>
      <point x="521" y="-199"/>
      <point x="528" y="-199" type="curve" smooth="yes"/>
      <point x="541" y="-199"/>
      <point x="546" y="-195"/>
      <point x="546" y="-187" type="curve" smooth="yes"/>
      <point x="546" y="-160"/>
      <point x="473" y="-196"/>
      <point x="473" y="-80" type="curve" smooth="yes"/>
      <point x="473" y="189"/>
      <point x="470" y="49"/>
      <point x="470" y="232" type="curve" smooth="yes"/>
      <point x="470" y="385"/>
      <point x="479" y="399"/>
      <point x="479" y="429" type="curve" smooth="yes"/>
      <point x="479" y="442"/>
      <point x="476" y="445"/>
      <point x="470" y="445" type="curve" smooth="yes"/>
      <point x="447" y="445"/>
      <point x="432" y="381"/>
      <point x="421" y="381" type="curve" smooth="yes"/>
      <point x="420" y="381"/>
      <point x="369" y="432"/>
      <point x="287" y="432" type="curve" smooth="yes"/>
      <point x="176" y="432"/>
      <point x="39" y="358"/>
      <point x="39" y="176" type="curve" smooth="yes"/>
    </contour>
    <contour>
      <point x="109" y="368"/>
      <point x="215" y="403"/>
      <point x="264" y="403" type="curve" smooth="yes"/>
      <point x="320" y="403"/>
      <point x="399" y="359"/>
      <point x="399" y="302" type="curve" smooth="yes"/>
      <point x="399" y="139" type="line" smooth="yes"/>
      <point x="399" y="101"/>
      <point x="394" y="29"/>
      <point x="270" y="29" type="curve" smooth="yes"/>
      <point x="214" y="29"/>
      <point x="109" y="79"/>
      <point x="109" y="217" type="curve" smooth="yes"/>
    </contour>
  </outline>
</glyph>
<glyph name="t" format="1">
  <advance width="342"/>
  <unicode hex="0074"/>
  <outline>
    <contour>
      <point x="27" y="372"/>
      <point x="32" y="370"/>
      <point x="44" y="370" type="curve" smooth="yes"/>
      <point x="49" y="370"/>
      <point x="56" y="371"/>
      <point x="63" y="371" type="curve" smooth="yes"/>
      <point x="80" y="371"/>
      <point x="84" y="368"/>
      <point x="84" y="355" type="curve" smooth="yes"/>
      <point x="84" y="347"/>
      <point x="80" y="210"/>
      <point x="80" y="122" type="curve" smooth="yes"/>
      <point x="80" y="107" type="line" smooth="yes"/>
      <point x="80" y="68"/>
      <point x="88" y="-10"/>
      <point x="215" y="-10" type="curve" smooth="yes"/>
      <point x="274" y="-10"/>
      <point x="324" y="32"/>
      <point x="324" y="47" type="curve" smooth="yes"/>
      <point x="324" y="57"/>
      <point x="321" y="59"/>
      <point x="314" y="59" type="curve" smooth="yes"/>
      <point x="303" y="59"/>
      <point x="276" y="40"/>
      <point x="240" y="40" type="curve" smooth="yes"/>
      <point x="165" y="40"/>
      <point x="154" y="75"/>
      <point x="154" y="156" type="curve" smooth="yes"/>
      <point x="154" y="209"/>
      <point x="158" y="314"/>
      <point x="158" y="342" type="curve" smooth="yes"/>
      <point x="158" y="370"/>
      <point x="162" y="375"/>
      <point x="188" y="375" type="curve" smooth="yes"/>
      <point x="189" y="375"/>
      <point x="221" y="369"/>
      <point x="294" y="368" type="curve" smooth="yes"/>
      <point x="302" y="368"/>
      <point x="326" y="413"/>
      <point x="326" y="423" type="curve" smooth="yes"/>
      <point x="326" y="429"/>
      <point x="323" y="434"/>
      <point x="316" y="434" type="curve" smooth="yes"/>
      <point x="305" y="434"/>
      <point x="304" y="420"/>
      <point x="239" y="420" type="curve" smooth="yes"/>
      <point x="204" y="420" type="line" smooth="yes"/>
      <point x="163" y="420"/>
      <point x="163" y="421"/>
      <point x="163" y="440" type="curve" smooth="yes"/>
      <point x="163" y="459"/>
      <point x="167" y="479"/>
      <point x="167" y="497" type="curve" smooth="yes"/>
      <point x="167" y="514"/>
      <point x="164" y="520"/>
      <point x="156" y="520" type="curve" smooth="yes"/>
      <point x="136" y="520"/>
      <point x="120" y="480"/>
      <point x="80" y="438" type="curve" smooth="yes"/>
      <point x="45" y="402"/>
      <point x="27" y="400"/>
      <point x="27" y="384" type="curve" smooth="yes"/>
    </contour>
  </outline>
</glyph>
<glyph name="v" format="1">
  <advance width="523"/>
  <unicode hex="0076"/>
  <outline>
    <contour>
      <point x="20" y="391"/>
      <point x="45" y="428"/>
      <point x="119" y="264" type="curve" smooth="yes"/>
      <point x="244" y="-13"/>
      <point x="233" y="-14"/>
      <point x="253" y="-14" type="curve" smooth="yes"/>
      <point x="288" y="-14"/>
      <point x="403" y="288"/>
      <point x="465" y="374" type="curve" smooth="yes"/>
      <point x="486" y="403"/>
      <point x="504" y="397"/>
      <point x="504" y="410" type="curve" smooth="yes"/>
      <point x="504" y="421"/>
      <point x="499" y="425"/>
      <point x="476" y="425" type="curve" smooth="yes"/>
      <point x="465" y="425"/>
      <point x="450" y="424"/>
      <point x="430" y="424" type="curve" smooth="yes"/>
      <point x="403" y="424"/>
      <point x="380" y="425"/>
      <point x="363" y="425" type="curve" smooth="yes"/>
      <point x="343" y="425"/>
      <point x="332" y="423"/>
      <point x="332" y="412" type="curve" smooth="yes"/>
      <point x="332" y="377"/>
      <point x="394" y="420"/>
      <point x="394" y="360" type="curve" smooth="yes"/>
      <point x="394" y="329"/>
      <point x="295" y="95"/>
      <point x="282" y="95" type="curve" smooth="yes"/>
      <point x="273" y="95"/>
      <point x="249" y="159"/>
      <point x="228" y="204" type="curve" smooth="yes"/>
      <point x="184" y="303"/>
      <point x="159" y="348"/>
      <point x="159" y="369" type="curve" smooth="yes"/>
      <point x="159" y="396"/>
      <point x="183" y="397"/>
      <point x="201" y="397" type="curve" smooth="yes"/>
      <point x="215" y="397"/>
      <point x="225" y="398"/>
      <point x="225" y="414" type="curve" smooth="yes"/>
      <point x="225" y="421"/>
      <point x="217" y="425"/>
      <point x="207" y="425" type="curve" smooth="yes"/>
      <point x="196" y="425"/>
      <point x="181" y="422"/>
      <point x="168" y="422" type="curve" smooth="yes"/>
      <point x="139" y="422"/>
      <point x="139" y="423"/>
      <point x="110" y="423" type="curve" smooth="yes"/>
      <point x="70" y="423"/>
      <point x="46" y="427"/>
      <point x="39" y="427" type="curve" smooth="yes"/>
      <point x="33" y="427"/>
      <point x="20" y="425"/>
      <point x="20" y="416" type="curve" smooth="yes"/>
    </contour>
  </outline>
</glyph>
<glyph name="w" format="1">
  <advance width="748"/>
  <unicode hex="0077"/>
  <outline>
    <contour>
      <point x="20" y="404"/>
      <point x="26" y="407"/>
      <point x="39" y="396" type="curve" smooth="yes"/>
      <point x="92" y="352"/>
      <point x="87" y="330"/>
      <point x="113" y="265" type="curve" smooth="yes"/>
      <point x="216" y="10"/>
      <point x="216" y="-10"/>
      <point x="232" y="-10" type="curve" smooth="yes"/>
      <point x="265" y="-10"/>
      <point x="365" y="246"/>
      <point x="376" y="246" type="curve" smooth="yes"/>
      <point x="394" y="246"/>
      <point x="465" y="-13"/>
      <point x="495" y="-13" type="curve" smooth="yes"/>
      <point x="507" y="-13"/>
      <point x="519" y="13"/>
      <point x="541" y="60" type="curve" smooth="yes"/>
      <point x="663" y="319"/>
      <point x="659" y="336"/>
      <point x="685" y="372" type="curve" smooth="yes"/>
      <point x="706" y="401"/>
      <point x="729" y="391"/>
      <point x="729" y="409" type="curve" smooth="yes"/>
      <point x="729" y="421"/>
      <point x="724" y="422"/>
      <point x="700" y="422" type="curve" smooth="yes"/>
      <point x="585" y="422" type="line" smooth="yes"/>
      <point x="574" y="422"/>
      <point x="564" y="422"/>
      <point x="564" y="414" type="curve" smooth="yes"/>
      <point x="564" y="385"/>
      <point x="619" y="410"/>
      <point x="619" y="356" type="curve" smooth="yes"/>
      <point x="619" y="308"/>
      <point x="537" y="103"/>
      <point x="524" y="103" type="curve" smooth="yes"/>
      <point x="515" y="103"/>
      <point x="498" y="159"/>
      <point x="477" y="204" type="curve" smooth="yes"/>
      <point x="442" y="281"/>
      <point x="418" y="352"/>
      <point x="418" y="371" type="curve" smooth="yes"/>
      <point x="418" y="394"/>
      <point x="435" y="398"/>
      <point x="448" y="399" type="curve" smooth="yes"/>
      <point x="459" y="400"/>
      <point x="463" y="400"/>
      <point x="463" y="409" type="curve" smooth="yes"/>
      <point x="463" y="412"/>
      <point x="462" y="423"/>
      <point x="441" y="423" type="curve" smooth="yes"/>
      <point x="428" y="423"/>
      <point x="435" y="422"/>
      <point x="410" y="422" type="curve" smooth="yes"/>
      <point x="288" y="422"/>
      <point x="356" y="424"/>
      <point x="289" y="424" type="curve" smooth="yes"/>
      <point x="283" y="424"/>
      <point x="274" y="424"/>
      <point x="274" y="415" type="curve" smooth="yes"/>
      <point x="274" y="397"/>
      <point x="297" y="411"/>
      <point x="331" y="362" type="curve" smooth="yes"/>
      <point x="346" y="340"/>
      <point x="360" y="302"/>
      <point x="360" y="294" type="curve" smooth="yes"/>
      <point x="360" y="270"/>
      <point x="355" y="265"/>
      <point x="307" y="173" type="curve" smooth="yes"/>
      <point x="287" y="135"/>
      <point x="272" y="104"/>
      <point x="267" y="104" type="curve" smooth="yes"/>
      <point x="258" y="104"/>
      <point x="239" y="159"/>
      <point x="218" y="204" type="curve" smooth="yes"/>
      <point x="183" y="283"/>
      <point x="162" y="335"/>
      <point x="162" y="366" type="curve" smooth="yes"/>
      <point x="162" y="410"/>
      <point x="206" y="393"/>
      <point x="206" y="413" type="curve" smooth="yes"/>
      <point x="206" y="424"/>
      <point x="196" y="424"/>
      <point x="159" y="424" type="curve" smooth="yes"/>
      <point x="130" y="424"/>
      <point x="139" y="423"/>
      <point x="110" y="423" type="curve" smooth="yes"/>
      <point x="70" y="423"/>
      <point x="46" y="427"/>
      <point x="39" y="427" type="curve" smooth="yes"/>
      <point x="33" y="427"/>
      <point x="20" y="425"/>
      <point x="20" y="416" type="curve" smooth="yes"/>
    </contour>
  </outline>
</glyph>
<glyph name="x" format="1">
  <advance width="548"/>
  <unicode hex="0078"/>
  <outline>
    <contour>
      <point x="29" y="1"/>
      <point x="46" y="-2"/>
      <point x="73" y="-2" type="curve" smooth="yes"/>
      <point x="89" y="-2"/>
      <point x="106" y="2"/>
      <point x="126" y="2" type="curve" smooth="yes"/>
      <point x="148" y="2"/>
      <point x="160" y="-1"/>
      <point x="178" y="-1" type="curve" smooth="yes"/>
      <point x="219" y="-1"/>
      <point x="219" y="2"/>
      <point x="219" y="8" type="curve" smooth="yes"/>
      <point x="219" y="36"/>
      <point x="172" y="9"/>
      <point x="172" y="54" type="curve" smooth="yes"/>
      <point x="172" y="84"/>
      <point x="207" y="112"/>
      <point x="249" y="165" type="curve"/>
      <point x="251" y="167"/>
      <point x="257" y="175"/>
      <point x="260" y="175" type="curve" smooth="yes"/>
      <point x="263" y="175"/>
      <point x="265" y="172"/>
      <point x="269" y="166" type="curve" smooth="yes"/>
      <point x="302" y="117"/>
      <point x="357" y="68"/>
      <point x="357" y="38" type="curve" smooth="yes"/>
      <point x="357" y="17"/>
      <point x="322" y="21"/>
      <point x="322" y="9" type="curve" smooth="yes"/>
      <point x="322" y="0"/>
      <point x="333" y="-1"/>
      <point x="356" y="-1" type="curve" smooth="yes"/>
      <point x="367" y="-1" type="line" smooth="yes"/>
      <point x="386" y="-1"/>
      <point x="403" y="1"/>
      <point x="426" y="1" type="curve" smooth="yes"/>
      <point x="452" y="1"/>
      <point x="471" y="-1"/>
      <point x="485" y="-1" type="curve" smooth="yes"/>
      <point x="516" y="-1"/>
      <point x="519" y="2"/>
      <point x="519" y="11" type="curve" smooth="yes"/>
      <point x="519" y="20"/>
      <point x="516" y="21"/>
      <point x="507" y="23" type="curve"/>
      <point x="458" y="37"/>
      <point x="421" y="88"/>
      <point x="397" y="117" type="curve" smooth="yes"/>
      <point x="312" y="221"/>
      <point x="306" y="219"/>
      <point x="306" y="226" type="curve" smooth="yes"/>
      <point x="306" y="233"/>
      <point x="372" y="303"/>
      <point x="421" y="352" type="curve" smooth="yes"/>
      <point x="479" y="410"/>
      <point x="506" y="393"/>
      <point x="506" y="412" type="curve" smooth="yes"/>
      <point x="506" y="419"/>
      <point x="496" y="425"/>
      <point x="487" y="425" type="curve" smooth="yes"/>
      <point x="458" y="425"/>
      <point x="437" y="423"/>
      <point x="418" y="423" type="curve" smooth="yes"/>
      <point x="393" y="423"/>
      <point x="374" y="424"/>
      <point x="355" y="424" type="curve" smooth="yes"/>
      <point x="329" y="424"/>
      <point x="329" y="417"/>
      <point x="329" y="412" type="curve" smooth="yes"/>
      <point x="329" y="396"/>
      <point x="375" y="401"/>
      <point x="375" y="373" type="curve" smooth="yes"/>
      <point x="375" y="354"/>
      <point x="371" y="353"/>
      <point x="299" y="261" type="curve" smooth="yes"/>
      <point x="294" y="255"/>
      <point x="291" y="253"/>
      <point x="289" y="253" type="curve" smooth="yes"/>
      <point x="282" y="253"/>
      <point x="269" y="274"/>
      <point x="228" y="332" type="curve" smooth="yes"/>
      <point x="214" y="352"/>
      <point x="197" y="370"/>
      <point x="197" y="382" type="curve" smooth="yes"/>
      <point x="197" y="402"/>
      <point x="230" y="397"/>
      <point x="230" y="411" type="curve" smooth="yes"/>
      <point x="230" y="420"/>
      <point x="227" y="424"/>
      <point x="204" y="424" type="curve" smooth="yes"/>
      <point x="175" y="424"/>
      <point x="154" y="420"/>
      <point x="123" y="420" type="curve" smooth="yes"/>
      <point x="85" y="420"/>
      <point x="86" y="425"/>
      <point x="45" y="425" type="curve" smooth="yes"/>
      <point x="38" y="425"/>
      <point x="31" y="421"/>
      <point x="31" y="413" type="curve" smooth="yes"/>
      <point x="31" y="401"/>
      <point x="49" y="388"/>
      <point x="74" y="383" type="curve"/>
      <point x="83" y="382"/>
      <point x="117" y="355"/>
      <point x="151" y="311" type="curve" smooth="yes"/>
      <point x="193" y="256"/>
      <point x="236" y="212"/>
      <point x="236" y="202" type="curve" smooth="yes"/>
      <point x="236" y="196"/>
      <point x="234" y="194"/>
      <point x="232" y="191" type="curve"/>
      <point x="199" y="155"/>
      <point x="136" y="79"/>
      <point x="75" y="41" type="curve" smooth="yes"/>
      <point x="39" y="19"/>
      <point x="29" y="26"/>
      <point x="29" y="14" type="curve" smooth="yes"/>
    </contour>
  </outline>
</glyph>
<glyph name="braceleft" format="1">
  <advance width="273"/>
  <unicode hex="007B"/>
  <outline>
    <contour>
      <point x="42" y="237"/>
      <point x="77" y="243"/>
      <point x="77" y="202" type="curve" smooth="yes"/>
      <point x="77" y="88"/>
      <point x="74" y="-44"/>
      <point x="74" y="-174" type="curve" smooth="yes"/>
      <point x="74" y="-181"/>
      <point x="79" y="-186"/>
      <point x="86" y="-186" type="curve" smooth="yes"/>
      <point x="107" y="-186"/>
      <point x="108" y="-172"/>
      <point x="161" y="-172" type="curve" smooth="yes"/>
      <point x="201" y="-172"/>
      <point x="228" y="-181"/>
      <point x="233" y="-181" type="curve" smooth="yes"/>
      <point x="240" y="-181"/>
      <point x="241" y="-176"/>
      <point x="241" y="-172" type="curve" smooth="yes"/>
      <point x="241" y="-152"/>
      <point x="214" y="-135"/>
      <point x="207" y="-131" type="curve" smooth="yes"/>
      <point x="175" y="-114"/>
      <point x="133" y="-115"/>
      <point x="133" y="-105" type="curve" smooth="yes"/>
      <point x="133" y="14"/>
      <point x="130" y="162"/>
      <point x="130" y="255" type="curve" smooth="yes"/>
      <point x="130" y="368"/>
      <point x="132" y="532"/>
      <point x="133" y="676" type="curve" smooth="yes"/>
      <point x="133" y="680"/>
      <point x="136" y="685"/>
      <point x="140" y="685" type="curve" smooth="yes"/>
      <point x="166" y="685"/>
      <point x="240" y="703"/>
      <point x="240" y="740" type="curve" smooth="yes"/>
      <point x="240" y="748"/>
      <point x="229" y="750"/>
      <point x="222" y="750" type="curve" smooth="yes"/>
      <point x="204" y="750"/>
      <point x="191" y="744"/>
      <point x="155" y="744" type="curve" smooth="yes"/>
      <point x="130" y="744"/>
      <point x="113" y="752"/>
      <point x="93" y="752" type="curve" smooth="yes"/>
      <point x="85" y="752"/>
      <point x="75" y="749"/>
      <point x="75" y="734" type="curve" smooth="yes"/>
      <point x="75" y="589"/>
      <point x="79" y="450"/>
      <point x="79" y="321" type="curve" smooth="yes"/>
      <point x="79" y="288"/>
      <point x="42" y="299"/>
      <point x="42" y="267" type="curve" smooth="yes"/>
    </contour>
  </outline>
</glyph>
<glyph name="braceright" format="1">
  <advance width="273"/>
  <unicode hex="007D"/>
  <outline>
    <contour>
      <point x="32" y="-176"/>
      <point x="33" y="-181"/>
      <point x="40" y="-181" type="curve" smooth="yes"/>
      <point x="45" y="-181"/>
      <point x="72" y="-172"/>
      <point x="112" y="-172" type="curve" smooth="yes"/>
      <point x="165" y="-172"/>
      <point x="166" y="-186"/>
      <point x="187" y="-186" type="curve" smooth="yes"/>
      <point x="194" y="-186"/>
      <point x="199" y="-181"/>
      <point x="199" y="-174" type="curve" smooth="yes"/>
      <point x="199" y="-44"/>
      <point x="196" y="88"/>
      <point x="196" y="202" type="curve" smooth="yes"/>
      <point x="196" y="243"/>
      <point x="231" y="237"/>
      <point x="231" y="267" type="curve" smooth="yes"/>
      <point x="231" y="299"/>
      <point x="194" y="288"/>
      <point x="194" y="321" type="curve" smooth="yes"/>
      <point x="194" y="450"/>
      <point x="198" y="589"/>
      <point x="198" y="734" type="curve" smooth="yes"/>
      <point x="198" y="749"/>
      <point x="188" y="752"/>
      <point x="180" y="752" type="curve" smooth="yes"/>
      <point x="160" y="752"/>
      <point x="143" y="744"/>
      <point x="118" y="744" type="curve" smooth="yes"/>
      <point x="82" y="744"/>
      <point x="69" y="750"/>
      <point x="51" y="750" type="curve" smooth="yes"/>
      <point x="44" y="750"/>
      <point x="33" y="748"/>
      <point x="33" y="740" type="curve" smooth="yes"/>
      <point x="33" y="703"/>
      <point x="107" y="685"/>
      <point x="133" y="685" type="curve" smooth="yes"/>
      <point x="137" y="685"/>
      <point x="140" y="680"/>
      <point x="140" y="676" type="curve" smooth="yes"/>
      <point x="141" y="532"/>
      <point x="143" y="368"/>
      <point x="143" y="255" type="curve" smooth="yes"/>
      <point x="143" y="162"/>
      <point x="140" y="14"/>
      <point x="140" y="-105" type="curve" smooth="yes"/>
      <point x="140" y="-115"/>
      <point x="98" y="-114"/>
      <point x="66" y="-131" type="curve" smooth="yes"/>
      <point x="59" y="-135"/>
      <point x="32" y="-152"/>
      <point x="32" y="-172" type="curve" smooth="yes"/>
    </contour>
  </outline>
</glyph>
<glyph name="asciitilde" format="1">
  <advance width="380"/>
  <unicode hex="007E"/>
  <outline>
    <contour>
      <point x="29" y="160"/>
      <point x="36" y="156"/>
      <point x="49" y="156" type="curve" smooth="yes"/>
      <point x="58" y="156"/>
      <point x="75" y="210"/>
      <point x="121" y="210" type="curve" smooth="yes"/>
      <point x="163" y="210"/>
      <point x="181" y="164"/>
      <point x="234" y="164" type="curve" smooth="yes"/>
      <point x="299" y="164"/>
      <point x="351" y="249"/>
      <point x="351" y="254" type="curve" smooth="yes"/>
      <point x="351" y="262"/>
      <point x="344" y="269"/>
      <point x="331" y="269" type="curve" smooth="yes"/>
      <point x="320" y="269"/>
      <point x="299" y="220"/>
      <point x="251" y="220" type="curve" smooth="yes"/>
      <point x="205" y="220"/>
      <point x="180" y="265"/>
      <point x="134" y="265" type="curve" smooth="yes"/>
      <point x="78" y="265"/>
      <point x="29" y="175"/>
      <point x="29" y="172" type="curve" smooth="yes"/>
    </contour>
  </outline>
</glyph>
<glyph name="exclamdown" format="1">
  <advance width="276"/>
  <unicode hex="00A1"/>
  <outline>
    <contour>
      <point x="59" y="598"/>
      <point x="77" y="598"/>
      <point x="111" y="562" type="curve" smooth="yes"/>
      <point x="120" y="553"/>
      <point x="126" y="544"/>
      <point x="135" y="544" type="curve" smooth="yes"/>
      <point x="154" y="544"/>
      <point x="166" y="570"/>
      <point x="179" y="582" type="curve" smooth="yes"/>
      <point x="195" y="596"/>
      <point x="208" y="604"/>
      <point x="208" y="613" type="curve" smooth="yes"/>
      <point x="208" y="631"/>
      <point x="184" y="644"/>
      <point x="175" y="656" type="curve" smooth="yes"/>
      <point x="165" y="669"/>
      <point x="143" y="689"/>
      <point x="134" y="689" type="curve" smooth="yes"/>
      <point x="120" y="689"/>
      <point x="109" y="666"/>
      <point x="97" y="654" type="curve" smooth="yes"/>
      <point x="86" y="643"/>
      <point x="59" y="632"/>
      <point x="59" y="615" type="curve" smooth="yes"/>
    </contour>
    <contour>
      <point x="83" y="-6"/>
      <point x="100" y="-13"/>
      <point x="129" y="-13" type="curve" smooth="yes"/>
      <point x="159" y="-13"/>
      <point x="179" y="1"/>
      <point x="179" y="25" type="curve" smooth="yes"/>
      <point x="179" y="71"/>
      <point x="174" y="100"/>
      <point x="169" y="170" type="curve" smooth="yes"/>
      <point x="165" y="230"/>
      <point x="174" y="170"/>
      <point x="149" y="468" type="curve"/>
      <point x="149" y="474"/>
      <point x="145" y="478"/>
      <point x="137" y="478" type="curve" smooth="yes"/>
      <point x="127" y="478"/>
      <point x="125" y="474"/>
      <point x="124" y="467" type="curve" smooth="yes"/>
      <point x="98" y="257"/>
      <point x="100" y="157"/>
      <point x="88" y="59" type="curve" smooth="yes"/>
      <point x="85" y="35"/>
      <point x="83" y="27"/>
      <point x="83" y="20" type="curve" smooth="yes"/>
    </contour>
  </outline>
</glyph>
<glyph name="cent" format="1">
  <advance width="452"/>
  <unicode hex="00A2"/>
  <outline>
    <contour>
      <point x="39" y="88"/>
      <point x="89" y="18"/>
      <point x="169" y="-9" type="curve" smooth="yes"/>
      <point x="224" y="-28"/>
      <point x="229" y="-11"/>
      <point x="229" y="-29" type="curve" smooth="yes"/>
      <point x="229" y="-93" type="line" smooth="yes"/>
      <point x="229" y="-100"/>
      <point x="240" y="-102"/>
      <point x="246" y="-102" type="curve" smooth="yes"/>
      <point x="257" y="-102"/>
      <point x="267" y="-100"/>
      <point x="267" y="-91" type="curve" smooth="yes"/>
      <point x="267" y="-33" type="line" smooth="yes"/>
      <point x="267" y="-19"/>
      <point x="268" y="-20"/>
      <point x="280" y="-19" type="curve"/>
      <point x="382" y="-6"/>
      <point x="428" y="63"/>
      <point x="428" y="73" type="curve" smooth="yes"/>
      <point x="428" y="78"/>
      <point x="423" y="83"/>
      <point x="417" y="83" type="curve" smooth="yes"/>
      <point x="404" y="83"/>
      <point x="365" y="31"/>
      <point x="285" y="31" type="curve" smooth="yes"/>
      <point x="269" y="31"/>
      <point x="268" y="37"/>
      <point x="268" y="45" type="curve" smooth="yes"/>
      <point x="268" y="77"/>
      <point x="269" y="103"/>
      <point x="270" y="356" type="curve" smooth="yes"/>
      <point x="270" y="373"/>
      <point x="273" y="376"/>
      <point x="276" y="376" type="curve" smooth="yes"/>
      <point x="279" y="376"/>
      <point x="283" y="375"/>
      <point x="295" y="369" type="curve" smooth="yes"/>
      <point x="373" y="331"/>
      <point x="359" y="305"/>
      <point x="379" y="305" type="curve" smooth="yes"/>
      <point x="389" y="305"/>
      <point x="390" y="335"/>
      <point x="390" y="349" type="curve" smooth="yes"/>
      <point x="390" y="404"/>
      <point x="386" y="403"/>
      <point x="375" y="409" type="curve" smooth="yes"/>
      <point x="362" y="416"/>
      <point x="348" y="420"/>
      <point x="335" y="422" type="curve"/>
      <point x="279" y="433"/>
      <point x="271" y="423"/>
      <point x="271" y="436" type="curve" smooth="yes"/>
      <point x="271" y="482" type="line" smooth="yes"/>
      <point x="271" y="487"/>
      <point x="258" y="491"/>
      <point x="247" y="491" type="curve" smooth="yes"/>
      <point x="239" y="491"/>
      <point x="231" y="487"/>
      <point x="231" y="481" type="curve" smooth="yes"/>
      <point x="231" y="445" type="line" smooth="yes"/>
      <point x="231" y="417"/>
      <point x="230" y="429"/>
      <point x="192" y="416" type="curve" smooth="yes"/>
      <point x="97" y="383"/>
      <point x="39" y="290"/>
      <point x="39" y="192" type="curve" smooth="yes"/>
    </contour>
    <contour>
      <point x="114" y="363"/>
      <point x="193" y="390"/>
      <point x="213" y="390" type="curve" smooth="yes"/>
      <point x="229" y="390"/>
      <point x="230" y="390"/>
      <point x="230" y="376" type="curve" smooth="yes"/>
      <point x="229" y="187"/>
      <point x="229" y="92"/>
      <point x="229" y="60" type="curve" smooth="yes"/>
      <point x="229" y="48"/>
      <point x="227" y="45"/>
      <point x="224" y="45" type="curve" smooth="yes"/>
      <point x="212" y="45"/>
      <point x="114" y="102"/>
      <point x="114" y="224" type="curve" smooth="yes"/>
    </contour>
  </outline>
</glyph>
<glyph name="sterling" format="1">
  <advance width="557"/>
  <unicode hex="00A3"/>
  <outline>
    <contour>
      <point x="20" y="16"/>
      <point x="40" y="-11"/>
      <point x="81" y="-11" type="curve" smooth="yes"/>
      <point x="144" y="-11"/>
      <point x="167" y="26"/>
      <point x="182" y="27" type="curve"/>
      <point x="190" y="24"/>
      <point x="286" y="-17"/>
      <point x="381" y="-17" type="curve" smooth="yes"/>
      <point x="500" y="-17"/>
      <point x="537" y="102"/>
      <point x="537" y="136" type="curve" smooth="yes"/>
      <point x="537" y="145"/>
      <point x="531" y="151"/>
      <point x="524" y="151" type="curve" smooth="yes"/>
      <point x="507" y="151"/>
      <point x="487" y="50"/>
      <point x="349" y="50" type="curve" smooth="yes"/>
      <point x="284" y="50"/>
      <point x="221" y="64"/>
      <point x="210" y="67" type="curve"/>
      <point x="213" y="73"/>
      <point x="250" y="129"/>
      <point x="250" y="203" type="curve" smooth="yes"/>
      <point x="250" y="262"/>
      <point x="223" y="324"/>
      <point x="223" y="329" type="curve" smooth="yes"/>
      <point x="223" y="332"/>
      <point x="236" y="333"/>
      <point x="245" y="333" type="curve" smooth="yes"/>
      <point x="367" y="333" type="line" smooth="yes"/>
      <point x="389" y="333"/>
      <point x="390" y="339"/>
      <point x="390" y="354" type="curve" smooth="yes"/>
      <point x="390" y="372"/>
      <point x="390" y="376"/>
      <point x="369" y="376" type="curve" smooth="yes"/>
      <point x="214" y="376" type="line" smooth="yes"/>
      <point x="205" y="376"/>
      <point x="202" y="378"/>
      <point x="195" y="396" type="curve"/>
      <point x="177" y="437"/>
      <point x="147" y="500"/>
      <point x="147" y="569" type="curve" smooth="yes"/>
      <point x="147" y="650"/>
      <point x="204" y="683"/>
      <point x="262" y="683" type="curve" smooth="yes"/>
      <point x="304" y="683"/>
      <point x="346" y="665"/>
      <point x="365" y="635" type="curve" smooth="yes"/>
      <point x="386" y="602"/>
      <point x="387" y="565"/>
      <point x="407" y="565" type="curve" smooth="yes"/>
      <point x="420" y="565"/>
      <point x="447" y="592"/>
      <point x="447" y="615" type="curve" smooth="yes"/>
      <point x="447" y="676"/>
      <point x="365" y="719"/>
      <point x="280" y="719" type="curve" smooth="yes"/>
      <point x="183" y="719"/>
      <point x="78" y="663"/>
      <point x="78" y="522" type="curve" smooth="yes"/>
      <point x="78" y="450"/>
      <point x="109" y="383"/>
      <point x="109" y="377" type="curve" smooth="yes"/>
      <point x="109" y="376"/>
      <point x="107" y="375"/>
      <point x="92" y="375" type="curve" smooth="yes"/>
      <point x="34" y="375" type="line" smooth="yes"/>
      <point x="27" y="375"/>
      <point x="21" y="373"/>
      <point x="21" y="354" type="curve" smooth="yes"/>
      <point x="21" y="335"/>
      <point x="30" y="332"/>
      <point x="35" y="332" type="curve" smooth="yes"/>
      <point x="81" y="332"/>
      <point x="102" y="333"/>
      <point x="115" y="333" type="curve" smooth="yes"/>
      <point x="133" y="333"/>
      <point x="132" y="329"/>
      <point x="140" y="311" type="curve" smooth="yes"/>
      <point x="148" y="292"/>
      <point x="188" y="207"/>
      <point x="188" y="149" type="curve" smooth="yes"/>
      <point x="188" y="119"/>
      <point x="174" y="83"/>
      <point x="168" y="79" type="curve"/>
      <point x="162" y="79"/>
      <point x="126" y="100"/>
      <point x="88" y="100" type="curve" smooth="yes"/>
      <point x="37" y="100"/>
      <point x="20" y="68"/>
      <point x="20" y="43" type="curve" smooth="yes"/>
    </contour>
    <contour>
      <point x="58" y="59"/>
      <point x="70" y="63"/>
      <point x="86" y="63" type="curve" smooth="yes"/>
      <point x="110" y="63"/>
      <point x="142" y="52"/>
      <point x="146" y="47" type="curve"/>
      <point x="144" y="43"/>
      <point x="120" y="17"/>
      <point x="91" y="17" type="curve" smooth="yes"/>
      <point x="71" y="17"/>
      <point x="58" y="32"/>
      <point x="58" y="44" type="curve" smooth="yes"/>
    </contour>
  </outline>
</glyph>
<glyph name="yen" format="1">
  <advance width="712"/>
  <unicode hex="00A5"/>
  <outline>
    <contour>
      <point x="20" y="675"/>
      <point x="36" y="675"/>
      <point x="45" y="675" type="curve" smooth="yes"/>
      <point x="74" y="675"/>
      <point x="104" y="671"/>
      <point x="167" y="577" type="curve" smooth="yes"/>
      <point x="265" y="431" type="line" smooth="yes"/>
      <point x="274" y="417"/>
      <point x="279" y="410"/>
      <point x="279" y="408" type="curve" smooth="yes"/>
      <point x="279" y="406"/>
      <point x="279" y="405"/>
      <point x="188" y="405" type="curve" smooth="yes"/>
      <point x="163" y="405"/>
      <point x="162" y="397"/>
      <point x="162" y="384" type="curve" smooth="yes"/>
      <point x="162" y="368"/>
      <point x="163" y="361"/>
      <point x="186" y="361" type="curve" smooth="yes"/>
      <point x="286" y="361" type="line" smooth="yes"/>
      <point x="292" y="361"/>
      <point x="297" y="360"/>
      <point x="301" y="360" type="curve"/>
      <point x="319" y="358"/>
      <point x="328" y="324"/>
      <point x="328" y="292" type="curve" smooth="yes"/>
      <point x="328" y="274"/>
      <point x="329" y="265"/>
      <point x="329" y="258" type="curve" smooth="yes"/>
      <point x="329" y="243"/>
      <point x="325" y="241"/>
      <point x="307" y="241" type="curve" smooth="yes"/>
      <point x="292" y="241" type="line"/>
      <point x="193" y="241" type="line"/>
      <point x="172" y="241" type="line" smooth="yes"/>
      <point x="165" y="241"/>
      <point x="159" y="239"/>
      <point x="159" y="220" type="curve" smooth="yes"/>
      <point x="159" y="203"/>
      <point x="167" y="198"/>
      <point x="173" y="198" type="curve" smooth="yes"/>
      <point x="183" y="198"/>
      <point x="213" y="197"/>
      <point x="248" y="197" type="curve" smooth="yes"/>
      <point x="311" y="197" type="line" smooth="yes"/>
      <point x="326" y="197"/>
      <point x="328" y="196"/>
      <point x="328" y="183" type="curve" smooth="yes"/>
      <point x="328" y="147"/>
      <point x="326" y="97"/>
      <point x="326" y="89" type="curve" smooth="yes"/>
      <point x="326" y="50"/>
      <point x="304" y="33"/>
      <point x="284" y="27" type="curve" smooth="yes"/>
      <point x="263" y="21"/>
      <point x="244" y="28"/>
      <point x="244" y="8" type="curve" smooth="yes"/>
      <point x="244" y="1"/>
      <point x="247" y="-4"/>
      <point x="269" y="-4" type="curve" smooth="yes"/>
      <point x="284" y="-4"/>
      <point x="339" y="1"/>
      <point x="388" y="1" type="curve" smooth="yes"/>
      <point x="416" y="1"/>
      <point x="448" y="0"/>
      <point x="485" y="0" type="curve" smooth="yes"/>
      <point x="496" y="0"/>
      <point x="503" y="1"/>
      <point x="503" y="14" type="curve" smooth="yes"/>
      <point x="503" y="19"/>
      <point x="498" y="25"/>
      <point x="488" y="25" type="curve" smooth="yes"/>
      <point x="485" y="25"/>
      <point x="471" y="29"/>
      <point x="468" y="29" type="curve" smooth="yes"/>
      <point x="455" y="29"/>
      <point x="415" y="37"/>
      <point x="415" y="109" type="curve" smooth="yes"/>
      <point x="415" y="133" type="line" smooth="yes"/>
      <point x="415" y="163"/>
      <point x="414" y="178"/>
      <point x="414" y="183" type="curve" smooth="yes"/>
      <point x="414" y="195"/>
      <point x="416" y="196"/>
      <point x="431" y="196" type="curve" smooth="yes"/>
      <point x="457" y="196"/>
      <point x="508" y="197"/>
      <point x="560" y="197" type="curve" smooth="yes"/>
      <point x="585" y="197"/>
      <point x="585" y="206"/>
      <point x="585" y="219" type="curve" smooth="yes"/>
      <point x="585" y="235"/>
      <point x="585" y="242"/>
      <point x="562" y="242" type="curve" smooth="yes"/>
      <point x="437" y="242" type="line" smooth="yes"/>
      <point x="431" y="242"/>
      <point x="426" y="241"/>
      <point x="423" y="241" type="curve" smooth="yes"/>
      <point x="415" y="241"/>
      <point x="414" y="243"/>
      <point x="414" y="254" type="curve" smooth="yes"/>
      <point x="414" y="352"/>
      <point x="424" y="361"/>
      <point x="438" y="361" type="curve" smooth="yes"/>
      <point x="465" y="361"/>
      <point x="451" y="362"/>
      <point x="575" y="362" type="curve" smooth="yes"/>
      <point x="582" y="362"/>
      <point x="589" y="363"/>
      <point x="589" y="382" type="curve" smooth="yes"/>
      <point x="589" y="399"/>
      <point x="581" y="405"/>
      <point x="575" y="405" type="curve" smooth="yes"/>
      <point x="464" y="405"/>
      <point x="463" y="406"/>
      <point x="463" y="409" type="curve" smooth="yes"/>
      <point x="463" y="413"/>
      <point x="471" y="420"/>
      <point x="483" y="438" type="curve" smooth="yes"/>
      <point x="514" y="485" type="line" smooth="yes"/>
      <point x="558" y="554"/>
      <point x="605" y="626"/>
      <point x="649" y="661" type="curve" smooth="yes"/>
      <point x="670" y="678"/>
      <point x="692" y="678"/>
      <point x="692" y="688" type="curve" smooth="yes"/>
      <point x="692" y="702"/>
      <point x="671" y="703"/>
      <point x="643" y="703" type="curve" smooth="yes"/>
      <point x="605" y="703"/>
      <point x="582" y="704"/>
      <point x="537" y="704" type="curve" smooth="yes"/>
      <point x="521" y="704"/>
      <point x="507" y="705"/>
      <point x="496" y="705" type="curve" smooth="yes"/>
      <point x="478" y="705"/>
      <point x="468" y="703"/>
      <point x="468" y="693" type="curve" smooth="yes"/>
      <point x="468" y="659"/>
      <point x="542" y="692"/>
      <point x="542" y="632" type="curve" smooth="yes"/>
      <point x="542" y="605"/>
      <point x="501" y="547"/>
      <point x="466" y="494" type="curve" smooth="yes"/>
      <point x="424" y="432"/>
      <point x="417" y="406"/>
      <point x="403" y="406" type="curve" smooth="yes"/>
      <point x="395" y="406" type="line" smooth="yes"/>
      <point x="388" y="406"/>
      <point x="329" y="487"/>
      <point x="287" y="553" type="curve" smooth="yes"/>
      <point x="269" y="581"/>
      <point x="233" y="627"/>
      <point x="233" y="657" type="curve" smooth="yes"/>
      <point x="233" y="676"/>
      <point x="275" y="671"/>
      <point x="275" y="692" type="curve" smooth="yes"/>
      <point x="275" y="699"/>
      <point x="260" y="704"/>
      <point x="225" y="704" type="curve" smooth="yes"/>
      <point x="197" y="704"/>
      <point x="163" y="703"/>
      <point x="140" y="703" type="curve" smooth="yes"/>
      <point x="123" y="703"/>
      <point x="95" y="705"/>
      <point x="82" y="705" type="curve" smooth="yes"/>
      <point x="32" y="705"/>
      <point x="20" y="703"/>
      <point x="20" y="688" type="curve" smooth="yes"/>
    </contour>
  </outline>
</glyph>
<glyph name="brokenbar" format="1">
  <advance width="208"/>
  <unicode hex="00A6"/>
  <outline>
    <contour>
      <point x="78" y="-203"/>
      <point x="81" y="-209"/>
      <point x="111" y="-209" type="curve" smooth="yes"/>
      <point x="127" y="-209"/>
      <point x="128" y="-190"/>
      <point x="128" y="-171" type="curve" smooth="yes"/>
      <point x="128" y="-119"/>
      <point x="127" y="-151"/>
      <point x="127" y="176" type="curve" smooth="yes"/>
      <point x="127" y="193"/>
      <point x="125" y="201"/>
      <point x="106" y="201" type="curve" smooth="yes"/>
      <point x="87" y="201"/>
      <point x="80" y="193"/>
      <point x="80" y="176" type="curve" smooth="yes"/>
      <point x="80" y="-124"/>
      <point x="78" y="-101"/>
      <point x="78" y="-148" type="curve" smooth="yes"/>
    </contour>
    <contour>
      <point x="83" y="414" type="line" smooth="yes"/>
      <point x="83" y="359"/>
      <point x="84" y="353"/>
      <point x="114" y="353" type="curve" smooth="yes"/>
      <point x="130" y="353"/>
      <point x="130" y="372"/>
      <point x="130" y="391" type="curve" smooth="yes"/>
      <point x="130" y="737" type="line" smooth="yes"/>
      <point x="130" y="754"/>
      <point x="127" y="762"/>
      <point x="108" y="762" type="curve" smooth="yes"/>
      <point x="89" y="762"/>
      <point x="83" y="755"/>
      <point x="83" y="738" type="curve" smooth="yes"/>
    </contour>
  </outline>
</glyph>
<glyph name="section" format="1">
  <advance width="542"/>
  <unicode hex="00A7"/>
  <outline>
    <contour>
      <point x="59" y="75"/>
      <point x="423" y="97"/>
      <point x="423" y="-23" type="curve" smooth="yes"/>
      <point x="423" y="-100"/>
      <point x="345" y="-136"/>
      <point x="268" y="-136" type="curve" smooth="yes"/>
      <point x="143" y="-136"/>
      <point x="97" y="19"/>
      <point x="93" y="28" type="curve" smooth="yes"/>
      <point x="90" y="35"/>
      <point x="82" y="40"/>
      <point x="75" y="40" type="curve" smooth="yes"/>
      <point x="65" y="40"/>
      <point x="60" y="31"/>
      <point x="60" y="16" type="curve" smooth="yes"/>
      <point x="60" y="8"/>
      <point x="81" y="-131"/>
      <point x="104" y="-143" type="curve" smooth="yes"/>
      <point x="168" y="-177"/>
      <point x="207" y="-181"/>
      <point x="260" y="-181" type="curve" smooth="yes"/>
      <point x="382" y="-181"/>
      <point x="479" y="-112"/>
      <point x="479" y="9" type="curve" smooth="yes"/>
      <point x="479" y="25"/>
      <point x="474" y="45"/>
      <point x="466" y="65" type="curve" smooth="yes"/>
      <point x="443" y="120"/>
      <point x="407" y="122"/>
      <point x="407" y="131" type="curve" smooth="yes"/>
      <point x="407" y="138"/>
      <point x="422" y="138"/>
      <point x="443" y="167" type="curve" smooth="yes"/>
      <point x="466" y="198"/>
      <point x="483" y="220"/>
      <point x="483" y="287" type="curve" smooth="yes"/>
      <point x="483" y="447"/>
      <point x="276" y="463"/>
      <point x="180" y="517" type="curve" smooth="yes"/>
      <point x="143" y="538"/>
      <point x="133" y="562"/>
      <point x="133" y="585" type="curve" smooth="yes"/>
      <point x="133" y="621"/>
      <point x="164" y="683"/>
      <point x="249" y="683" type="curve" smooth="yes"/>
      <point x="284" y="683"/>
      <point x="312" y="676"/>
      <point x="333" y="665" type="curve" smooth="yes"/>
      <point x="430" y="616"/>
      <point x="409" y="526"/>
      <point x="442" y="526" type="curve" smooth="yes"/>
      <point x="448" y="526"/>
      <point x="455" y="532"/>
      <point x="455" y="555" type="curve" smooth="yes"/>
      <point x="455" y="569"/>
      <point x="442" y="644"/>
      <point x="435" y="690" type="curve" smooth="yes"/>
      <point x="434" y="697"/>
      <point x="423" y="700"/>
      <point x="417" y="700" type="curve" smooth="yes"/>
      <point x="409" y="700"/>
      <point x="398" y="693"/>
      <point x="394" y="693" type="curve" smooth="yes"/>
      <point x="370" y="693"/>
      <point x="345" y="720"/>
      <point x="264" y="720" type="curve" smooth="yes"/>
      <point x="155" y="720"/>
      <point x="72" y="650"/>
      <point x="72" y="552" type="curve" smooth="yes"/>
      <point x="72" y="455"/>
      <point x="160" y="438"/>
      <point x="160" y="425" type="curve" smooth="yes"/>
      <point x="160" y="416"/>
      <point x="59" y="391"/>
      <point x="59" y="275" type="curve" smooth="yes"/>
    </contour>
    <contour>
      <point x="119" y="371"/>
      <point x="195" y="404"/>
      <point x="207" y="404" type="curve" smooth="yes"/>
      <point x="218" y="404"/>
      <point x="315" y="367"/>
      <point x="315" y="367" type="curve"/>
      <point x="379" y="342"/>
      <point x="427" y="307"/>
      <point x="427" y="253" type="curve" smooth="yes"/>
      <point x="427" y="201"/>
      <point x="380" y="153"/>
      <point x="364" y="153" type="curve" smooth="yes"/>
      <point x="359" y="153"/>
      <point x="209" y="205"/>
      <point x="177" y="225" type="curve" smooth="yes"/>
      <point x="136" y="249"/>
      <point x="119" y="279"/>
      <point x="119" y="307" type="curve" smooth="yes"/>
    </contour>
  </outline>
</glyph>
<glyph name="dieresis" format="1">
  <advance width="439"/>
  <unicode hex="00A8"/>
  <outline>
    <contour>
      <point x="103" y="575"/>
      <point x="126" y="538"/>
      <point x="155" y="538" type="curve" smooth="yes"/>
      <point x="164" y="538"/>
      <point x="198" y="567"/>
      <point x="198" y="591" type="curve" smooth="yes"/>
      <point x="198" y="611"/>
      <point x="173" y="642"/>
      <point x="150" y="642" type="curve" smooth="yes"/>
      <point x="128" y="642"/>
      <point x="103" y="608"/>
      <point x="103" y="591" type="curve" smooth="yes"/>
    </contour>
    <contour>
      <point x="263" y="575"/>
      <point x="285" y="538"/>
      <point x="314" y="538" type="curve" smooth="yes"/>
      <point x="323" y="538"/>
      <point x="358" y="567"/>
      <point x="358" y="591" type="curve" smooth="yes"/>
      <point x="358" y="611"/>
      <point x="333" y="642"/>
      <point x="310" y="642" type="curve" smooth="yes"/>
      <point x="288" y="642"/>
      <point x="263" y="608"/>
      <point x="263" y="591" type="curve" smooth="yes"/>
    </contour>
  </outline>
</glyph>
<glyph name="ordfeminine" format="1">
  <advance width="302"/>
  <unicode hex="00AA"/>
  <outline>
    <contour>
      <point x="29" y="398"/>
      <point x="66" y="386"/>
      <point x="107" y="386" type="curve" smooth="yes"/>
      <point x="159" y="386"/>
      <point x="190" y="430"/>
      <point x="193" y="430" type="curve" smooth="yes"/>
      <point x="196" y="430"/>
      <point x="209" y="390"/>
      <point x="247" y="390" type="curve" smooth="yes"/>
      <point x="271" y="390" type="line" smooth="yes"/>
      <point x="282" y="390"/>
      <point x="288" y="393"/>
      <point x="288" y="404" type="curve" smooth="yes"/>
      <point x="288" y="408"/>
      <point x="285" y="414"/>
      <point x="280" y="414" type="curve" smooth="yes"/>
      <point x="272" y="414"/>
      <point x="273" y="413"/>
      <point x="267" y="413" type="curve" smooth="yes"/>
      <point x="252" y="413"/>
      <point x="242" y="420"/>
      <point x="242" y="470" type="curve" smooth="yes"/>
      <point x="242" y="515"/>
      <point x="246" y="505"/>
      <point x="246" y="584" type="curve" smooth="yes"/>
      <point x="246" y="607"/>
      <point x="246" y="660"/>
      <point x="145" y="660" type="curve" smooth="yes"/>
      <point x="87" y="660"/>
      <point x="33" y="624"/>
      <point x="33" y="592" type="curve" smooth="yes"/>
      <point x="33" y="571"/>
      <point x="70" y="568"/>
      <point x="79" y="568" type="curve" smooth="yes"/>
      <point x="87" y="568"/>
      <point x="93" y="570"/>
      <point x="93" y="580" type="curve" smooth="yes"/>
      <point x="93" y="585"/>
      <point x="90" y="593"/>
      <point x="90" y="601" type="curve" smooth="yes"/>
      <point x="90" y="616"/>
      <point x="95" y="636"/>
      <point x="133" y="636" type="curve" smooth="yes"/>
      <point x="150" y="636"/>
      <point x="191" y="623"/>
      <point x="191" y="571" type="curve" smooth="yes"/>
      <point x="191" y="561"/>
      <point x="190" y="554"/>
      <point x="190" y="542" type="curve" smooth="yes"/>
      <point x="190" y="534"/>
      <point x="186" y="534"/>
      <point x="179" y="533" type="curve" smooth="yes"/>
      <point x="98" y="519"/>
      <point x="29" y="510"/>
      <point x="29" y="446" type="curve" smooth="yes"/>
    </contour>
    <contour>
      <point x="88" y="508"/>
      <point x="141" y="514"/>
      <point x="180" y="520" type="curve"/>
      <point x="182" y="520"/>
      <point x="184" y="521"/>
      <point x="186" y="521" type="curve" smooth="yes"/>
      <point x="188" y="521"/>
      <point x="190" y="520"/>
      <point x="190" y="516" type="curve" smooth="yes"/>
      <point x="190" y="476" type="line" smooth="yes"/>
      <point x="190" y="456"/>
      <point x="190" y="417"/>
      <point x="134" y="417" type="curve" smooth="yes"/>
      <point x="104" y="417"/>
      <point x="88" y="434"/>
      <point x="88" y="460" type="curve" smooth="yes"/>
    </contour>
  </outline>
</glyph>
<glyph name="guillemotleft" format="1">
  <advance width="360"/>
  <unicode hex="00AB"/>
  <outline>
    <contour>
      <point x="20" y="212"/>
      <point x="22" y="210"/>
      <point x="25" y="208" type="curve"/>
      <point x="168" y="84"/>
      <point x="166" y="84"/>
      <point x="171" y="84" type="curve" smooth="yes"/>
      <point x="178" y="84"/>
      <point x="188" y="95"/>
      <point x="188" y="102" type="curve" smooth="yes"/>
      <point x="188" y="114"/>
      <point x="95" y="205"/>
      <point x="95" y="217" type="curve" smooth="yes"/>
      <point x="95" y="227"/>
      <point x="188" y="319"/>
      <point x="188" y="331" type="curve" smooth="yes"/>
      <point x="188" y="337"/>
      <point x="179" y="349"/>
      <point x="172" y="349" type="curve" smooth="yes"/>
      <point x="167" y="349"/>
      <point x="169" y="349"/>
      <point x="26" y="227" type="curve"/>
      <point x="23" y="224"/>
      <point x="20" y="221"/>
      <point x="20" y="216" type="curve" smooth="yes"/>
    </contour>
    <contour>
      <point x="152" y="212"/>
      <point x="155" y="210"/>
      <point x="158" y="208" type="curve"/>
      <point x="301" y="84"/>
      <point x="298" y="84"/>
      <point x="304" y="84" type="curve" smooth="yes"/>
      <point x="311" y="84"/>
      <point x="319" y="95"/>
      <point x="319" y="102" type="curve" smooth="yes"/>
      <point x="319" y="111"/>
      <point x="226" y="206"/>
      <point x="226" y="217" type="curve" smooth="yes"/>
      <point x="226" y="228"/>
      <point x="321" y="320"/>
      <point x="321" y="331" type="curve" smooth="yes"/>
      <point x="321" y="337"/>
      <point x="312" y="349"/>
      <point x="305" y="349" type="curve" smooth="yes"/>
      <point x="299" y="349"/>
      <point x="301" y="349"/>
      <point x="158" y="227" type="curve"/>
      <point x="154" y="224"/>
      <point x="152" y="221"/>
      <point x="152" y="216" type="curve" smooth="yes"/>
    </contour>
  </outline>
</glyph>
<glyph name="registered" format="1">
  <advance width="478"/>
  <unicode hex="00AE"/>
  <outline>
    <contour>
      <point x="29" y="432"/>
      <point x="122" y="337"/>
      <point x="237" y="337" type="curve" smooth="yes"/>
      <point x="354" y="337"/>
      <point x="449" y="432"/>
      <point x="449" y="546" type="curve" smooth="yes"/>
      <point x="449" y="663"/>
      <point x="354" y="757"/>
      <point x="237" y="757" type="curve" smooth="yes"/>
      <point x="122" y="757"/>
      <point x="29" y="663"/>
      <point x="29" y="546" type="curve" smooth="yes"/>
    </contour>
    <contour>
      <point x="59" y="645"/>
      <point x="141" y="726"/>
      <point x="237" y="726" type="curve" smooth="yes"/>
      <point x="336" y="726"/>
      <point x="418" y="645"/>
      <point x="418" y="546" type="curve" smooth="yes"/>
      <point x="418" y="450"/>
      <point x="336" y="369"/>
      <point x="237" y="369" type="curve" smooth="yes"/>
      <point x="141" y="369"/>
      <point x="59" y="450"/>
      <point x="59" y="546" type="curve" smooth="yes"/>
    </contour>
    <contour>
      <point x="123" y="656"/>
      <point x="126" y="651"/>
      <point x="134" y="651" type="curve" smooth="yes"/>
      <point x="147" y="651"/>
      <point x="164" y="648"/>
      <point x="164" y="625" type="curve" smooth="yes"/>
      <point x="164" y="604"/>
      <point x="163" y="590"/>
      <point x="163" y="529" type="curve" smooth="yes"/>
      <point x="163" y="505" type="line" smooth="yes"/>
      <point x="163" y="493"/>
      <point x="163" y="482"/>
      <point x="162" y="472" type="curve" smooth="yes"/>
      <point x="158" y="442"/>
      <point x="135" y="457"/>
      <point x="135" y="445" type="curve" smooth="yes"/>
      <point x="135" y="441"/>
      <point x="138" y="438"/>
      <point x="142" y="438" type="curve" smooth="yes"/>
      <point x="146" y="438"/>
      <point x="169" y="440"/>
      <point x="187" y="440" type="curve" smooth="yes"/>
      <point x="191" y="440"/>
      <point x="236" y="438"/>
      <point x="238" y="438" type="curve" smooth="yes"/>
      <point x="243" y="438"/>
      <point x="245" y="441"/>
      <point x="245" y="444" type="curve" smooth="yes"/>
      <point x="245" y="458"/>
      <point x="213" y="441"/>
      <point x="204" y="475" type="curve"/>
      <point x="203" y="481"/>
      <point x="201" y="490"/>
      <point x="201" y="525" type="curve" smooth="yes"/>
      <point x="201" y="547"/>
      <point x="203" y="547"/>
      <point x="211" y="547" type="curve" smooth="yes"/>
      <point x="236" y="547" type="line"/>
      <point x="253" y="543"/>
      <point x="286" y="457"/>
      <point x="315" y="441" type="curve" smooth="yes"/>
      <point x="328" y="434"/>
      <point x="334" y="434"/>
      <point x="342" y="434" type="curve" smooth="yes"/>
      <point x="362" y="434"/>
      <point x="367" y="447"/>
      <point x="367" y="451" type="curve" smooth="yes"/>
      <point x="367" y="452"/>
      <point x="366" y="455"/>
      <point x="362" y="455" type="curve" smooth="yes"/>
      <point x="360" y="455"/>
      <point x="357" y="454"/>
      <point x="356" y="454" type="curve" smooth="yes"/>
      <point x="350" y="454"/>
      <point x="345" y="456"/>
      <point x="335" y="469" type="curve" smooth="yes"/>
      <point x="326" y="481"/>
      <point x="309" y="505"/>
      <point x="298" y="525" type="curve" smooth="yes"/>
      <point x="290" y="539"/>
      <point x="276" y="552"/>
      <point x="276" y="554" type="curve" smooth="yes"/>
      <point x="276" y="559"/>
      <point x="321" y="561"/>
      <point x="321" y="605" type="curve" smooth="yes"/>
      <point x="321" y="652"/>
      <point x="278" y="669"/>
      <point x="234" y="669" type="curve" smooth="yes"/>
      <point x="220" y="669"/>
      <point x="207" y="667"/>
      <point x="158" y="667" type="curve" smooth="yes"/>
      <point x="135" y="667" type="line" smooth="yes"/>
      <point x="126" y="667"/>
      <point x="123" y="662"/>
      <point x="123" y="658" type="curve" smooth="yes"/>
    </contour>
    <contour>
      <point x="201" y="629" type="line" smooth="yes"/>
      <point x="201" y="648"/>
      <point x="203" y="652"/>
      <point x="218" y="652" type="curve" smooth="yes"/>
      <point x="269" y="652"/>
      <point x="282" y="617"/>
      <point x="282" y="604" type="curve" smooth="yes"/>
      <point x="282" y="571"/>
      <point x="269" y="561"/>
      <point x="229" y="561" type="curve" smooth="yes"/>
      <point x="223" y="561"/>
      <point x="225" y="562"/>
      <point x="215" y="562" type="curve" smooth="yes"/>
      <point x="202" y="562"/>
      <point x="201" y="571"/>
      <point x="201" y="596" type="curve" smooth="yes"/>
    </contour>
  </outline>
</glyph>
<glyph name="macron" format="1">
  <advance width="439"/>
  <unicode hex="00AF"/>
  <outline>
    <contour>
      <point x="113" y="566"/>
      <point x="119" y="564"/>
      <point x="123" y="564" type="curve" smooth="yes"/>
      <point x="159" y="564"/>
      <point x="293" y="563"/>
      <point x="311" y="563" type="curve" smooth="yes"/>
      <point x="313" y="563"/>
      <point x="325" y="565"/>
      <point x="325" y="577" type="curve" smooth="yes"/>
      <point x="325" y="604"/>
      <point x="322" y="606"/>
      <point x="310" y="606" type="curve" smooth="yes"/>
      <point x="223" y="606"/>
      <point x="269" y="608"/>
      <point x="129" y="608" type="curve" smooth="yes"/>
      <point x="122" y="608"/>
      <point x="113" y="604"/>
      <point x="113" y="589" type="curve" smooth="yes"/>
    </contour>
  </outline>
</glyph>
<glyph name="degree" format="1">
  <advance width="259"/>
  <unicode hex="00B0"/>
  <outline>
    <contour>
      <point x="30" y="581"/>
      <point x="41" y="504"/>
      <point x="131" y="504" type="curve" smooth="yes"/>
      <point x="149" y="504"/>
      <point x="230" y="533"/>
      <point x="230" y="606" type="curve" smooth="yes"/>
      <point x="230" y="643"/>
      <point x="204" y="713"/>
      <point x="132" y="713" type="curve" smooth="yes"/>
      <point x="71" y="713"/>
      <point x="30" y="653"/>
      <point x="30" y="611" type="curve" smooth="yes"/>
    </contour>
    <contour>
      <point x="72" y="644"/>
      <point x="104" y="669"/>
      <point x="131" y="669" type="curve" smooth="yes"/>
      <point x="180" y="669"/>
      <point x="188" y="630"/>
      <point x="188" y="608" type="curve" smooth="yes"/>
      <point x="188" y="558"/>
      <point x="141" y="548"/>
      <point x="131" y="548" type="curve" smooth="yes"/>
      <point x="96" y="548"/>
      <point x="72" y="573"/>
      <point x="72" y="610" type="curve" smooth="yes"/>
    </contour>
  </outline>
</glyph>
<glyph name="acute" format="1">
  <advance width="439"/>
  <unicode hex="00B4"/>
  <outline>
    <contour>
      <point x="181" y="485"/>
      <point x="187" y="480"/>
      <point x="193" y="480" type="curve" smooth="yes"/>
      <point x="201" y="480"/>
      <point x="217" y="495"/>
      <point x="232" y="511" type="curve" smooth="yes"/>
      <point x="273" y="554"/>
      <point x="329" y="615"/>
      <point x="329" y="636" type="curve" smooth="yes"/>
      <point x="329" y="657"/>
      <point x="281" y="662"/>
      <point x="277" y="662" type="curve" smooth="yes"/>
      <point x="273" y="662"/>
      <point x="263" y="659"/>
      <point x="256" y="643" type="curve" smooth="yes"/>
      <point x="204" y="518"/>
      <point x="181" y="505"/>
      <point x="181" y="491" type="curve" smooth="yes"/>
    </contour>
  </outline>
</glyph>
<glyph name="paragraph" format="1">
  <advance width="505"/>
  <unicode hex="00B6"/>
  <outline>
    <contour>
      <point x="44" y="337"/>
      <point x="179" y="321"/>
      <point x="276" y="321" type="curve" smooth="yes"/>
      <point x="289" y="321"/>
      <point x="301" y="319"/>
      <point x="301" y="307" type="curve" smooth="yes"/>
      <point x="301" y="216"/>
      <point x="304" y="152"/>
      <point x="304" y="86" type="curve" smooth="yes"/>
      <point x="304" y="78"/>
      <point x="303" y="67"/>
      <point x="303" y="55" type="curve" smooth="yes"/>
      <point x="303" y="-20"/>
      <point x="300" y="-155"/>
      <point x="237" y="-155" type="curve" smooth="yes"/>
      <point x="168" y="-155"/>
      <point x="179" y="-78"/>
      <point x="159" y="-78" type="curve" smooth="yes"/>
      <point x="146" y="-78"/>
      <point x="129" y="-124"/>
      <point x="129" y="-144" type="curve" smooth="yes"/>
      <point x="129" y="-153"/>
      <point x="133" y="-168"/>
      <point x="137" y="-170" type="curve"/>
      <point x="160" y="-183"/>
      <point x="178" y="-185"/>
      <point x="204" y="-185" type="curve" smooth="yes"/>
      <point x="321" y="-185"/>
      <point x="395" y="-60"/>
      <point x="395" y="94" type="curve" smooth="yes"/>
      <point x="395" y="296"/>
      <point x="398" y="409"/>
      <point x="398" y="611" type="curve" smooth="yes"/>
      <point x="398" y="651"/>
      <point x="404" y="668"/>
      <point x="412" y="677" type="curve" smooth="yes"/>
      <point x="429" y="695"/>
      <point x="458" y="692"/>
      <point x="458" y="708" type="curve" smooth="yes"/>
      <point x="458" y="711"/>
      <point x="453" y="718"/>
      <point x="449" y="718" type="curve" smooth="yes"/>
      <point x="437" y="718" type="line" smooth="yes"/>
      <point x="415" y="718"/>
      <point x="395" y="716"/>
      <point x="377" y="716" type="curve" smooth="yes"/>
      <point x="334" y="716"/>
      <point x="296" y="715"/>
      <point x="243" y="715" type="curve" smooth="yes"/>
      <point x="155" y="715"/>
      <point x="44" y="636"/>
      <point x="44" y="505" type="curve" smooth="yes"/>
    </contour>
    <contour>
      <point x="227" y="628"/>
      <point x="227" y="637"/>
      <point x="238" y="672" type="curve" smooth="yes"/>
      <point x="243" y="688"/>
      <point x="265" y="693"/>
      <point x="275" y="693" type="curve" smooth="yes"/>
      <point x="296" y="693"/>
      <point x="303" y="680"/>
      <point x="303" y="652" type="curve" smooth="yes"/>
      <point x="303" y="638"/>
      <point x="300" y="652"/>
      <point x="300" y="517" type="curve" smooth="yes"/>
      <point x="300" y="481"/>
      <point x="302" y="446"/>
      <point x="302" y="404" type="curve" smooth="yes"/>
      <point x="302" y="369" type="line" smooth="yes"/>
      <point x="302" y="357"/>
      <point x="286" y="350"/>
      <point x="275" y="350" type="curve" smooth="yes"/>
      <point x="236" y="350"/>
      <point x="227" y="415"/>
      <point x="227" y="503" type="curve" smooth="yes"/>
    </contour>
    <contour>
      <point x="326" y="560"/>
      <point x="327" y="619"/>
      <point x="328" y="683" type="curve" smooth="yes"/>
      <point x="328" y="691"/>
      <point x="338" y="696"/>
      <point x="346" y="696" type="curve" smooth="yes"/>
      <point x="357" y="696"/>
      <point x="369" y="689"/>
      <point x="369" y="678" type="curve" smooth="yes"/>
      <point x="369" y="485"/>
      <point x="371" y="337"/>
      <point x="371" y="120" type="curve" smooth="yes"/>
      <point x="371" y="13"/>
      <point x="341" y="-59"/>
      <point x="334" y="-59" type="curve" smooth="yes"/>
      <point x="328" y="-59"/>
      <point x="327" y="-55"/>
      <point x="327" y="-48" type="curve" smooth="yes"/>
      <point x="327" y="-33"/>
      <point x="330" y="-41"/>
      <point x="330" y="26" type="curve" smooth="yes"/>
      <point x="330" y="59"/>
      <point x="327" y="191"/>
      <point x="327" y="356" type="curve" smooth="yes"/>
      <point x="327" y="405"/>
      <point x="326" y="454"/>
      <point x="326" y="506" type="curve" smooth="yes"/>
    </contour>
  </outline>
</glyph>
<glyph name="periodcentered" format="1">
  <advance width="252"/>
  <unicode hex="00B7"/>
  <outline>
    <contour>
      <point x="77" y="317"/>
      <point x="97" y="275"/>
      <point x="126" y="275" type="curve" smooth="yes"/>
      <point x="135" y="275"/>
      <point x="173" y="306"/>
      <point x="173" y="330" type="curve" smooth="yes"/>
      <point x="173" y="350"/>
      <point x="149" y="387"/>
      <point x="126" y="387" type="curve" smooth="yes"/>
      <point x="104" y="387"/>
      <point x="77" y="346"/>
      <point x="77" y="333" type="curve" smooth="yes"/>
    </contour>
  </outline>
</glyph>
<glyph name="cedilla" format="1">
  <advance width="439"/>
  <unicode hex="00B8"/>
  <outline>
    <contour>
      <point x="170" y="-99"/>
      <point x="222" y="-95"/>
      <point x="222" y="-139" type="curve" smooth="yes"/>
      <point x="222" y="-180"/>
      <point x="180" y="-184"/>
      <point x="180" y="-194" type="curve" smooth="yes"/>
      <point x="180" y="-196"/>
      <point x="183" y="-201"/>
      <point x="189" y="-201" type="curve" smooth="yes"/>
      <point x="204" y="-201"/>
      <point x="272" y="-172"/>
      <point x="272" y="-105" type="curve" smooth="yes"/>
      <point x="272" y="-60"/>
      <point x="226" y="-44"/>
      <point x="220" y="-44" type="curve" smooth="yes"/>
      <point x="207" y="-44"/>
      <point x="199" y="-55"/>
      <point x="190" y="-61" type="curve"/>
      <point x="179" y="-69"/>
      <point x="170" y="-75"/>
      <point x="170" y="-79" type="curve" smooth="yes"/>
    </contour>
  </outline>
</glyph>
<glyph name="ordmasculine" format="1">
  <advance width="363"/>
  <unicode hex="00BA"/>
  <outline>
    <contour>
      <point x="29" y="451"/>
      <point x="79" y="384"/>
      <point x="178" y="384" type="curve" smooth="yes"/>
      <point x="256" y="384"/>
      <point x="334" y="430"/>
      <point x="334" y="522" type="curve" smooth="yes"/>
      <point x="334" y="611"/>
      <point x="259" y="658"/>
      <point x="183" y="658" type="curve" smooth="yes"/>
      <point x="81" y="658"/>
      <point x="29" y="588"/>
      <point x="29" y="519" type="curve" smooth="yes"/>
    </contour>
    <contour>
      <point x="88" y="613"/>
      <point x="133" y="638"/>
      <point x="168" y="638" type="curve" smooth="yes"/>
      <point x="242" y="638"/>
      <point x="277" y="568"/>
      <point x="277" y="505" type="curve" smooth="yes"/>
      <point x="277" y="438"/>
      <point x="238" y="407"/>
      <point x="196" y="407" type="curve" smooth="yes"/>
      <point x="145" y="407"/>
      <point x="88" y="454"/>
      <point x="88" y="540" type="curve" smooth="yes"/>
    </contour>
  </outline>
</glyph>
<glyph name="guillemotright" format="1">
  <advance width="360"/>
  <unicode hex="00BB"/>
  <outline>
    <contour>
      <point x="39" y="96"/>
      <point x="48" y="84"/>
      <point x="55" y="84" type="curve" smooth="yes"/>
      <point x="61" y="84"/>
      <point x="58" y="84"/>
      <point x="201" y="206" type="curve"/>
      <point x="205" y="209"/>
      <point x="208" y="211"/>
      <point x="208" y="216" type="curve" smooth="yes"/>
      <point x="208" y="220"/>
      <point x="205" y="223"/>
      <point x="202" y="225" type="curve"/>
      <point x="59" y="349"/>
      <point x="62" y="349"/>
      <point x="56" y="349" type="curve" smooth="yes"/>
      <point x="49" y="349"/>
      <point x="41" y="338"/>
      <point x="41" y="331" type="curve" smooth="yes"/>
      <point x="41" y="322"/>
      <point x="134" y="226"/>
      <point x="134" y="215" type="curve" smooth="yes"/>
      <point x="134" y="209"/>
      <point x="39" y="113"/>
      <point x="39" y="102" type="curve" smooth="yes"/>
    </contour>
    <contour>
      <point x="171" y="96"/>
      <point x="181" y="84"/>
      <point x="188" y="84" type="curve" smooth="yes"/>
      <point x="193" y="84"/>
      <point x="190" y="84"/>
      <point x="333" y="206" type="curve"/>
      <point x="336" y="209"/>
      <point x="340" y="211"/>
      <point x="340" y="216" type="curve" smooth="yes"/>
      <point x="340" y="220"/>
      <point x="337" y="223"/>
      <point x="334" y="225" type="curve"/>
      <point x="191" y="349"/>
      <point x="193" y="349"/>
      <point x="188" y="349" type="curve" smooth="yes"/>
      <point x="181" y="349"/>
      <point x="172" y="338"/>
      <point x="172" y="331" type="curve" smooth="yes"/>
      <point x="172" y="325"/>
      <point x="265" y="227"/>
      <point x="265" y="215" type="curve" smooth="yes"/>
      <point x="265" y="205"/>
      <point x="171" y="114"/>
      <point x="171" y="102" type="curve" smooth="yes"/>
    </contour>
  </outline>
</glyph>
